<svg width="359" height="338" viewBox="0 0 359 338" fill="none" xmlns="http://www.w3.org/2000/svg">
<g clip-path="url(#clip0_767_2538)">
<path d="M196.691 267.86H114.165V331.619H196.691V267.86Z" fill="#E0E0E0"/>
<path d="M176.018 331.174C175.907 331.174 175.812 316.959 175.812 299.426C175.812 281.893 175.907 267.677 176.018 267.677C176.128 267.677 176.224 281.893 176.224 299.426C176.224 316.959 176.128 331.174 176.018 331.174Z" fill="#E0E0E0"/>
<path d="M189.694 317.11H183.371V324.277H189.694V317.11Z" fill="#E0E0E0"/>
<path d="M148.72 268.027H139.347V281.631H148.72V268.027Z" fill="#E0E0E0"/>
<path d="M148.72 317.824H139.347V331.428H148.72V317.824Z" fill="#E0E0E0"/>
<path d="M346.441 251.875H242.379V332.269H346.441V251.875Z" fill="#E0E0E0"/>
<path d="M320.364 331.698C320.253 331.698 320.158 313.784 320.158 291.679C320.158 269.574 320.253 251.66 320.364 251.66C320.475 251.66 320.57 269.574 320.57 291.679C320.57 313.784 320.483 331.698 320.364 331.698Z" fill="#E0E0E0"/>
<path d="M337.622 313.967H329.643V322.999H337.622V313.967Z" fill="#E0E0E0"/>
<path d="M285.951 252.081H274.129V269.233H285.951V252.081Z" fill="#E0E0E0"/>
<path d="M285.951 314.871H274.129V332.023H285.951V314.871Z" fill="#E0E0E0"/>
<path d="M46.3775 254.24C50.593 252.065 55.5532 251.78 60.2282 252.557C62.74 252.97 65.3548 253.724 67.0664 255.613C68.7779 257.502 69.0948 260.828 67.1377 262.455C65.965 263.423 64.3406 263.566 62.8193 263.55C59.1585 263.503 55.1015 262.86 52.1777 265.066C50.5058 266.328 49.3965 268.416 47.4235 269.035C45.4505 269.654 43.2714 268.487 42.2414 266.725C41.2884 264.887 41.0784 262.753 41.655 260.764C41.8883 259.386 42.4358 258.081 43.2548 256.949C44.0739 255.818 45.1425 254.89 46.3775 254.24Z" fill="#E0E0E0"/>
<path d="M36.7264 235.58C39.3016 239.263 44.3094 238.048 46.6311 235.794C48.9527 233.54 49.9353 230.286 50.8227 227.183C52.867 220.079 54.9193 212.626 53.4058 205.395C53.0414 203.202 52.0789 201.153 50.6246 199.474C49.8883 198.65 48.9497 198.032 47.9018 197.682C46.8538 197.333 45.7329 197.264 44.6501 197.482C42.1225 198.149 40.5536 200.657 39.4205 202.982C36.0797 209.935 34.3309 217.546 34.3018 225.262C34.3018 228.857 34.7059 232.619 36.7264 235.58Z" fill="#E0E0E0"/>
<path d="M29.6585 240.866C32.4556 237.54 32.9865 232.699 31.7425 228.532C30.4984 224.365 27.6855 220.825 24.4447 217.928C20.6331 214.532 16.1978 211.911 11.3864 210.213C9.52167 209.459 7.51591 209.117 5.50702 209.213C4.50488 209.27 3.53193 209.572 2.67291 210.092C1.81389 210.613 1.09487 211.335 0.578467 212.197C-0.80026 214.825 0.523001 218.007 1.94927 220.611C4.46094 225.191 7.32756 229.567 10.5227 233.699C13.0979 237.017 16.0693 240.295 19.9599 241.795C23.8504 243.295 27.9549 243.12 30.0309 240.398" fill="#E0E0E0"/>
<path d="M36.5521 291.155C36.6897 290.61 36.7694 290.051 36.7898 289.488C36.9087 288.266 37.0513 286.734 37.2335 284.917C37.4607 282.668 37.8018 280.432 38.2557 278.218C38.8511 275.511 39.6646 272.856 40.6883 270.281C41.6923 267.722 43.0499 265.318 44.7215 263.137C46.088 261.364 47.8275 259.915 49.8164 258.891C51.1691 258.223 52.6184 257.773 54.1111 257.558C54.6729 257.536 55.2308 257.453 55.775 257.312C55.2142 257.25 54.6482 257.25 54.0873 257.312C52.5373 257.429 51.0208 257.824 49.6104 258.478C47.5101 259.471 45.6684 260.938 44.2302 262.764C42.4808 264.973 41.0706 267.432 40.0465 270.059C39.024 272.665 38.2287 275.355 37.6693 278.099C37.2383 280.341 36.9393 282.607 36.774 284.885C36.6313 286.83 36.5759 288.401 36.5521 289.488C36.4937 290.043 36.4937 290.601 36.5521 291.155Z" fill="#E0E0E0"/>
<path d="M36.869 287.647C36.9161 287.385 36.932 287.119 36.9166 286.853C36.9166 286.266 36.9166 285.528 36.9166 284.631C36.9166 282.702 36.9166 279.909 37.0117 276.464C37.186 269.574 37.804 262.177 38.9213 251.708C40.0068 241.874 41.4569 230.437 42.9941 223C43.319 221.309 43.6517 219.785 43.9687 218.452C44.2856 217.118 44.5154 215.96 44.7611 215.031C45.0067 214.102 45.1414 213.444 45.284 212.872C45.3616 212.614 45.4068 212.348 45.4187 212.078C45.2994 212.31 45.2089 212.555 45.1493 212.809C44.975 213.372 44.7611 214.071 44.4996 214.936C44.2381 215.801 43.9212 217.007 43.5884 218.333C43.2556 219.658 42.8752 221.182 42.5187 222.873C40.6152 231.669 39.1842 240.56 38.2319 249.51C37.0909 259.987 36.5759 269.527 36.5283 276.432C36.5283 279.885 36.5283 282.687 36.6472 284.615C36.7026 285.512 36.7502 286.25 36.7819 286.83C36.778 287.105 36.8073 287.379 36.869 287.647Z" fill="#E0E0E0"/>
<path d="M36.9166 269.249C36.977 268.475 36.977 267.697 36.9166 266.923C36.8295 265.431 36.6234 263.28 36.2035 260.637C35.6852 257.547 34.9921 254.489 34.1275 251.478C33.1282 247.772 31.8488 244.147 30.3003 240.636C27.6492 234.165 23.8446 228.232 19.0724 223.127C18.2444 222.25 17.3604 221.428 16.4259 220.666C16.0218 220.317 15.6335 219.976 15.3007 219.706L14.3182 218.999C13.7015 218.528 13.0469 218.109 12.361 217.745C12.2501 217.896 15.1264 219.595 18.7555 223.46C23.3716 228.614 27.0751 234.519 29.706 240.922C31.2278 244.41 32.5117 247.998 33.549 251.66C34.4204 254.644 35.1423 257.669 35.7122 260.725C36.1876 263.336 36.5046 265.487 36.6314 266.947C36.6653 267.721 36.7606 268.491 36.9166 269.249Z" fill="#E0E0E0"/>
<path d="M17.9393 298.902L19.7776 324.158H52.1698L54.0081 298.902H17.9393Z" fill="#E0E0E0"/>
<path d="M57.8749 288.949H14.8094V298.902H57.8749V288.949Z" fill="#E0E0E0"/>
<path d="M14.8094 323.197V325.951H16.83H57.1617V323.197H14.8094Z" fill="#E0E0E0"/>
<path d="M18.8109 330.507L16.83 325.65H55.6166L53.3028 330.507H18.8109Z" fill="#E0E0E0"/>
<path d="M53.4059 307.157C53.3654 307.242 53.3149 307.322 53.2554 307.395C53.1286 307.561 52.9622 307.776 52.772 308.038L50.8862 310.419L50.799 310.53L50.7198 310.419L46.0844 303.998H46.3459L41.7818 310.466L41.6392 310.673L41.4807 310.482L36.0688 304.029H36.3778L36.0847 304.41L31.2433 310.482L31.0769 310.688L30.9342 310.474L26.3623 304.005H26.6317L21.0058 310.419L20.9107 310.538L20.8315 310.403L19.0724 307.482C18.8823 307.164 18.7396 306.903 18.6208 306.688C18.561 306.6 18.5131 306.504 18.4781 306.402C18.5523 306.479 18.6162 306.564 18.6683 306.656L19.1675 307.41L21.0137 310.323H20.8394L26.386 303.831L26.5207 303.664L26.6475 303.839L31.2591 310.284H30.958L35.7836 304.196C35.8866 304.069 35.9896 303.942 36.0767 303.823L36.2352 303.625L36.3937 303.815L41.7897 310.284H41.4886L46.1002 303.847L46.2349 303.656L46.3617 303.847C48.1921 306.458 49.7451 308.672 50.902 310.339H50.7356L52.7007 307.958C52.9146 307.712 53.089 307.514 53.2237 307.347C53.2797 307.279 53.3406 307.215 53.4059 307.157Z" fill="#E0E0E0"/>
<path d="M54.4598 298.735C54.4598 298.846 46.3379 298.942 36.3303 298.942C26.3226 298.942 18.2008 298.846 18.2008 298.735C18.2008 298.624 26.3147 298.537 36.3303 298.537C46.3459 298.537 54.4598 298.624 54.4598 298.735Z" fill="#E0E0E0"/>
<path d="M281.682 12.3271L275.042 12.363L275.221 45.4601L281.861 45.4241L281.682 12.3271Z" fill="#E0E0E0"/>
<path d="M234.711 12.4151L217.517 12.5083L217.616 30.7792L234.81 30.686L234.711 12.4151Z" fill="#E0E0E0"/>
<path d="M251.826 12.3223L234.632 12.4155L234.73 30.6864L251.925 30.5932L251.826 12.3223Z" fill="#E0E0E0"/>
<path d="M217.538 17.5646C228.969 17.6599 240.406 17.607 251.848 17.4059C251.896 17.4059 251.942 17.3867 251.976 17.3524C252.011 17.3182 252.03 17.2718 252.03 17.2233C252.03 17.1749 252.011 17.1285 251.976 17.0943C251.942 17.06 251.896 17.0408 251.848 17.0408C240.422 16.9773 228.964 17.0408 217.538 17.2551C217.503 17.2631 217.472 17.2827 217.449 17.3109C217.427 17.339 217.415 17.3739 217.415 17.4099C217.415 17.4458 217.427 17.4807 217.449 17.5089C217.472 17.537 217.503 17.5566 217.538 17.5646Z" fill="#E0E0E0"/>
<path d="M238.041 30.3824L206.799 30.5518L206.879 45.4415L238.122 45.2722L238.041 30.3824Z" fill="#E0E0E0"/>
<path d="M269.133 30.2137L237.89 30.3831L237.971 45.2728L269.213 45.1035L269.133 30.2137Z" fill="#E0E0E0"/>
<path d="M206.817 34.7087C227.569 34.9389 248.393 34.7087 269.153 34.3991C269.201 34.3991 269.248 34.3799 269.282 34.3457C269.316 34.3114 269.335 34.265 269.335 34.2166C269.335 34.1682 269.316 34.1217 269.282 34.0875C269.248 34.0533 269.201 34.034 269.153 34.034C248.401 33.9229 227.569 33.9308 206.817 34.3912C206.775 34.3912 206.735 34.4079 206.705 34.4377C206.675 34.4675 206.659 34.5078 206.659 34.5499C206.659 34.592 206.675 34.6324 206.705 34.6622C206.735 34.692 206.775 34.7087 206.817 34.7087Z" fill="#E0E0E0"/>
<path d="M316.172 45.4556H195.13V50.7893H316.172V45.4556Z" fill="#E0E0E0"/>
<path d="M219.859 48.0193H214.947V66.219H219.859V48.0193Z" fill="#E0E0E0"/>
<path d="M293.209 48.0193H288.297V66.219H293.209V48.0193Z" fill="#E0E0E0"/>
<path d="M288.16 -0.0184085L281.52 0.0175781L281.766 45.536L288.406 45.5L288.16 -0.0184085Z" fill="#E0E0E0"/>
<path d="M298.538 8.45776L288.222 8.51367L288.421 45.4046L298.738 45.3487L298.538 8.45776Z" fill="#E0E0E0"/>
<path d="M298.463 15.5803C295.033 15.823 291.591 15.823 288.162 15.5803C291.592 15.3482 295.033 15.3482 298.463 15.5803Z" fill="#E0E0E0"/>
<path d="M298.463 14.0724C296.749 14.2461 295.026 14.3044 293.304 14.247C291.583 14.3041 289.86 14.2458 288.146 14.0724C291.575 13.8297 295.018 13.8297 298.447 14.0724H298.463Z" fill="#E0E0E0"/>
<path d="M298.463 39.8123C295.033 40.0549 291.591 40.0549 288.162 39.8123C291.592 39.5802 295.033 39.5802 298.463 39.8123Z" fill="#E0E0E0"/>
<path d="M298.463 38.2645C295.033 38.4966 291.592 38.4966 288.162 38.2645C291.591 38.0219 295.033 38.0219 298.463 38.2645Z" fill="#E0E0E0"/>
<path d="M293.471 34.8833C293.376 34.8833 293.297 31.1608 293.297 26.5732C293.297 21.9856 293.376 18.2551 293.471 18.2551C293.566 18.2551 293.653 21.9776 293.653 26.5732C293.653 31.1687 293.574 34.8833 293.471 34.8833Z" fill="#E0E0E0"/>
<path d="M309.81 17.533H298.582V45.3762H309.81V17.533Z" fill="#E0E0E0"/>
<path d="M284.747 9.68309C285.801 9.68309 286.656 8.82668 286.656 7.77025C286.656 6.71383 285.801 5.85742 284.747 5.85742C283.692 5.85742 282.837 6.71383 282.837 7.77025C282.837 8.82668 283.692 9.68309 284.747 9.68309Z" fill="#E0E0E0"/>
<path d="M285.333 13.0325H284.153V40.1137H285.333V13.0325Z" fill="#E0E0E0"/>
<path d="M350.015 331.833C350.015 331.952 273.852 332.039 179.932 332.039C86.012 332.039 9.83337 331.952 9.83337 331.833C9.83337 331.714 85.9803 331.626 179.932 331.626C273.883 331.626 350.015 331.722 350.015 331.833Z" fill="#263238"/>
<path d="M100.061 40.5427C103.797 45.1233 105.821 50.8667 105.782 56.782C105.742 60.1314 105.124 63.8221 107.073 66.5446C108.547 68.6082 111.241 69.6479 112.438 71.8862C113.88 74.5769 112.652 77.9819 113.539 80.9027C114.791 85.0459 119.64 86.7841 122.517 90.0145C123.743 91.4429 124.6 93.1507 125.015 94.9883C125.429 96.8259 125.388 98.7372 124.894 100.555C124.37 102.365 123.422 104.024 122.129 105.393C120.837 106.763 119.236 107.803 117.461 108.428C115.566 109.177 113.452 109.143 111.582 108.333C109.641 107.365 108.412 105.373 107.462 103.428C105.552 99.6024 88.7774 78.9264 87.8265 74.7515" fill="#263238"/>
<path d="M87.8582 35.6692C80.9963 34.5581 74.3879 39.1219 71.5116 45.4556C68.6353 51.7894 68.5402 58.9487 68.3421 65.9333C68.144 72.9179 67.6369 80.1565 64.095 86.1411C61.8447 89.9429 58.3582 93.2844 57.8115 97.6577C57.3202 101.579 59.3487 105.531 58.6752 109.428C58.0888 112.825 55.5057 115.778 55.6087 119.215C55.7355 123.358 59.9905 126.477 64.1188 126.588C68.247 126.699 72.1138 124.533 75.3546 121.961C80.6347 117.762 84.8599 112.382 87.6919 106.254" fill="#263238"/>
<path d="M76.5669 52.0514C76.3513 50.3224 76.4847 48.5676 76.9592 46.8913C77.4336 45.2149 78.2395 43.6511 79.3288 42.2926C80.4182 40.9342 81.7689 39.8088 83.3008 38.9833C84.8327 38.1577 86.5145 37.6489 88.2465 37.4869C95.1639 36.8202 101.321 41.9872 102.359 48.8766C103.27 54.9167 104.046 61.0124 104.023 63.2268C103.935 69.9019 100.061 72.4973 98.476 73.2831C97.9059 73.488 97.3165 73.6343 96.7169 73.7196V73.7672L98.1907 81.4344C98.8642 86.4586 96.0672 90.9589 91.0594 91.6653C86.0516 92.3717 82.1135 88.5381 81.3449 83.514L76.5669 52.0514Z" fill="#FFBE9D"/>
<path d="M100.996 51.7974C100.885 51.9561 100.005 51.4878 98.8801 51.6545C97.7549 51.8212 97.0022 52.5038 96.8595 52.3847C96.7169 52.2657 96.8595 52.0672 97.2082 51.7498C97.6415 51.3269 98.1953 51.0496 98.7929 50.956C99.3793 50.8655 99.9791 50.9656 100.504 51.2418C100.901 51.4958 101.051 51.7339 100.996 51.7974Z" fill="#263238"/>
<path d="M90.9643 54.242C90.8534 54.4008 89.9738 53.9245 88.8407 54.0912C87.7076 54.2579 86.9707 54.9484 86.8281 54.8294C86.6855 54.7103 86.8281 54.5039 87.1768 54.1944C87.61 53.7716 88.1638 53.4942 88.7615 53.4007C89.3486 53.317 89.9472 53.4197 90.473 53.6943C90.8613 53.9404 91.0198 54.1706 90.9643 54.242Z" fill="#263238"/>
<path d="M95.0767 60.2981C95.6435 60.025 96.2425 59.825 96.8595 59.7028C97.1448 59.6314 97.4063 59.5361 97.43 59.3298C97.4044 59.0398 97.2942 58.7638 97.1131 58.5361L95.9325 56.4248C94.2923 53.4722 93.0641 51.0276 93.1829 50.9562C93.3018 50.8847 94.7677 53.242 96.3524 56.1946C96.7565 56.9248 97.1448 57.6233 97.4934 58.2821C97.7237 58.6049 97.8356 58.9974 97.8104 59.3933C97.7843 59.5016 97.7335 59.6024 97.662 59.6877C97.5905 59.7731 97.5003 59.8407 97.3984 59.8854C97.2439 59.9531 97.0815 60.0011 96.915 60.0282C96.3166 60.1981 95.6986 60.2888 95.0767 60.2981Z" fill="#263238"/>
<path d="M96.6535 73.7275C96.6535 73.7275 92.351 74.7197 86.424 72.2354C86.424 72.2354 88.9834 77.7516 97.0576 75.7912L96.6535 73.7275Z" fill="#EB996E"/>
<path d="M90.3859 51.2814C90.3225 51.6068 89.1735 51.6227 87.874 51.9798C86.5746 52.337 85.5524 52.845 85.3385 52.5989C85.2434 52.4799 85.386 52.1624 85.7743 51.8052C86.297 51.3573 86.9148 51.0345 87.5806 50.8612C88.2465 50.6879 88.9429 50.6688 89.6173 50.8051C90.1402 50.9242 90.3859 51.1305 90.3859 51.2814Z" fill="#263238"/>
<path d="M100.069 49.2972C99.9102 49.5829 99.0941 49.4321 98.1591 49.5512C97.2241 49.6702 96.4555 49.9798 96.2336 49.7337C96.1385 49.6147 96.2336 49.3448 96.5347 49.0511C96.9502 48.6821 97.4717 48.4543 98.0244 48.4003C98.5701 48.3344 99.123 48.4369 99.6091 48.694C99.9894 48.9083 100.14 49.1543 100.069 49.2972Z" fill="#263238"/>
<path d="M88.5159 55.7025C88.5333 55.8254 88.5749 55.9435 88.6383 56.0501C88.7016 56.1567 88.7855 56.2496 88.885 56.3234C88.9846 56.3973 89.0977 56.4506 89.218 56.4802C89.3383 56.5099 89.4632 56.5153 89.5856 56.4962C89.7046 56.4825 89.8196 56.4452 89.9241 56.3865C90.0286 56.3279 90.1203 56.2489 90.1941 56.1544C90.2678 56.0599 90.322 55.9516 90.3536 55.8358C90.3852 55.7201 90.3934 55.5993 90.3779 55.4803C90.3408 55.2331 90.2073 55.0108 90.0068 54.8621C89.8063 54.7133 89.5551 54.6502 89.3082 54.6866C89.1888 54.6993 89.0732 54.7359 88.9682 54.7942C88.8632 54.8526 88.771 54.9315 88.6971 55.0263C88.6231 55.1211 88.569 55.2298 88.5379 55.346C88.5067 55.4622 88.4993 55.5834 88.5159 55.7025Z" fill="#263238"/>
<path d="M98.5077 53.5355C98.5449 53.7827 98.6783 54.005 98.8788 54.1538C99.0793 54.3025 99.3305 54.3656 99.5774 54.3292C99.6964 54.3155 99.8114 54.2782 99.9159 54.2195C100.02 54.1609 100.112 54.082 100.186 53.9874C100.26 53.8929 100.314 53.7846 100.345 53.6689C100.377 53.5531 100.385 53.4323 100.37 53.3133C100.333 53.0662 100.199 52.8438 99.9986 52.6951C99.7981 52.5463 99.5469 52.4832 99.3001 52.5196C99.1807 52.5323 99.065 52.5689 98.96 52.6272C98.855 52.6856 98.7628 52.7645 98.6889 52.8593C98.615 52.9541 98.5608 53.0628 98.5297 53.179C98.4986 53.2952 98.4911 53.4164 98.5077 53.5355Z" fill="#263238"/>
<path d="M96.8516 62.4886C96.5406 62.3917 96.2054 62.4068 95.9044 62.5315C95.6033 62.6562 95.3554 62.8825 95.2035 63.1712C95.0584 63.4363 94.9995 63.7401 95.035 64.0403C95.0705 64.3405 95.1987 64.6222 95.4016 64.8459C95.6175 65.0584 95.9019 65.1871 96.2038 65.2089C96.5057 65.2307 96.8056 65.1442 97.0497 64.965C97.3554 64.6862 97.5402 64.2989 97.5647 63.8856C97.6186 63.5066 97.528 63.1213 97.3112 62.8061C97.1999 62.652 97.041 62.539 96.8591 62.4845C96.6772 62.4299 96.4824 62.437 96.3049 62.5045" fill="#EB996E"/>
<path d="M101.479 43.4396C100.857 40.9249 99.3051 38.7406 97.1369 37.3281C95.3621 36.044 93.2539 35.3024 91.0673 35.193C88.8671 35.0981 86.7189 35.8801 85.0928 37.3678C83.9389 38.5134 83.279 40.0663 83.2545 41.6935L83.3813 40.5823C83.0484 41.4865 83.0484 42.4799 83.3813 43.3841C83.5636 43.8682 83.7854 44.3603 83.9756 44.8445C84.5428 46.2436 85.5951 47.3907 86.9391 48.0749C87.5477 48.4019 88.2294 48.5685 88.92 48.5591C89.2657 48.5521 89.6058 48.4697 89.9164 48.3175C90.2271 48.1653 90.5009 47.9471 90.7187 47.678C91.2106 46.8177 91.3633 45.804 91.1466 44.8366C91.6665 45.7926 92.4084 46.6093 93.3097 47.2177C93.7699 47.5123 94.3173 47.6391 94.8599 47.577C95.4025 47.5148 95.9071 47.2674 96.289 46.8764C96.9388 46.0827 96.6852 44.8286 96.289 43.8444C96.9021 44.7728 97.7608 45.512 98.7692 45.9795C99.0345 46.132 99.3286 46.2277 99.6327 46.2604C99.9369 46.2932 100.244 46.2624 100.536 46.17C100.769 46.0542 100.973 45.8868 101.132 45.6806C101.292 45.4744 101.402 45.2346 101.455 44.9794C101.573 44.4738 101.581 43.9487 101.479 43.4396Z" fill="#263238"/>
<path d="M95.7502 45.5508C95.6789 45.5508 95.6947 44.6063 95.3857 43.1697C95.0293 41.2607 94.0711 39.5164 92.652 38.1931C91.8721 37.4827 90.9311 36.9732 89.9104 36.7089C89.0745 36.5034 88.2041 36.4817 87.359 36.6454C86.5801 36.8277 85.8361 37.136 85.1562 37.5582C85.1562 37.5582 85.2909 37.3597 85.6395 37.1057C86.1399 36.7551 86.7017 36.502 87.2956 36.3597C88.1843 36.1513 89.1089 36.1513 89.9976 36.3597C91.0925 36.6335 92.1009 37.1794 92.9294 37.9471C94.4152 39.325 95.3855 41.1708 95.6789 43.1776C95.7732 43.7709 95.8209 44.3706 95.8215 44.9714C95.8313 45.1672 95.8072 45.3632 95.7502 45.5508Z" fill="#455A64"/>
<path d="M168.728 138.089L138.261 125.985C138.261 125.985 122.659 105.484 122.984 105.087L112.026 117.104L127.952 138.685L164.869 147.352L182.349 147.495C180.97 140.756 168.728 138.089 168.728 138.089Z" fill="#FFBE9D"/>
<path d="M102.327 79.6008L98.1749 78.0134L80.2514 80.2914V83.4662L79.7364 83.5297C75.8728 84.3525 72.1671 85.7944 68.7621 87.7998C65.5726 89.7501 63.0383 92.6114 61.4851 96.0159C59.9319 99.4203 59.4307 103.212 60.046 106.904C60.7749 111.444 62.1854 116.961 64.9111 120.151C70.117 126.255 74.8712 118.715 74.8712 118.715C74.8712 118.715 78.1358 126.176 77.9457 129.708C77.7872 132.668 76.4877 138.827 76.0677 140.748C76.0505 140.825 76.049 140.904 76.0634 140.982C76.0779 141.059 76.1079 141.133 76.1516 141.198C76.1953 141.263 76.2519 141.319 76.3179 141.362C76.3838 141.404 76.4578 141.433 76.5352 141.446L114.347 148.455L114.529 139.192L113.325 101.094L111.621 86.2997C111.621 86.2997 111.677 79.2357 102.327 79.6008Z" fill="#FFBE10"/>
<path d="M111.051 83.8394L125.464 104.706L113.856 118.866L111.051 83.8394Z" fill="#FFBE10"/>
<path d="M114.157 127.747C114.105 127.299 114.087 126.848 114.102 126.398C114.102 125.461 114.102 124.231 114.054 122.731C113.984 118.705 113.696 114.685 113.19 110.69C112.596 106.007 111.685 101.825 110.995 98.7847L110.156 95.2131C110.034 94.781 109.944 94.3407 109.886 93.8955C110.066 94.3079 110.21 94.7355 110.314 95.1734C110.56 95.9671 110.892 97.2132 111.273 98.7212C112.296 102.637 113.074 106.614 113.602 110.627C114.112 114.638 114.361 118.679 114.347 122.723C114.347 124.31 114.308 125.533 114.26 126.398C114.264 126.85 114.23 127.301 114.157 127.747Z" fill="#263238"/>
<path d="M78.6588 96.0227C78.6588 96.0862 77.5653 96.0783 75.8142 96.1656C73.5293 96.2897 71.2568 96.5842 69.0156 97.0466C66.775 97.5176 64.5717 98.1516 62.4231 98.9436C60.775 99.5547 59.7845 100.007 59.7528 99.9437C59.9559 99.7842 60.1799 99.6534 60.4184 99.5547C60.8542 99.3166 61.504 99.015 62.3201 98.6737C66.5957 96.9051 71.1652 95.9574 75.7904 95.8799C76.6779 95.8799 77.3752 95.8799 77.8902 95.9275C78.1498 95.9191 78.4091 95.9513 78.6588 96.0227Z" fill="#FAFAFA"/>
<path d="M112.057 105.571C111.478 105.782 110.873 105.915 110.259 105.968C107.329 106.396 104.36 106.497 101.408 106.269C100.791 106.259 100.179 106.168 99.5853 106C100.197 105.945 100.812 105.945 101.424 106C102.549 106 104.11 106 105.829 106C107.549 106 109.102 105.825 110.227 105.722C110.831 105.616 111.444 105.566 112.057 105.571Z" fill="#FAFAFA"/>
<path d="M118.674 96.1338C117.8 97.1446 116.754 97.9913 115.583 98.6339C114.478 99.382 113.246 99.9201 111.946 100.221C111.899 100.11 113.531 99.4276 115.369 98.253C117.208 97.0783 118.594 96.0385 118.674 96.1338Z" fill="#FAFAFA"/>
<path d="M112.85 86.4586C110.35 88.7112 107.164 90.0535 103.809 90.2684C103.809 90.1414 105.988 89.8081 108.492 88.7366C110.995 87.6651 112.77 86.3554 112.85 86.4586Z" fill="#FAFAFA"/>
<path d="M113.634 121.731C113.401 121.888 113.151 122.018 112.889 122.12C112.39 122.358 111.669 122.652 110.75 122.993C108.362 123.852 105.897 124.48 103.389 124.866C100.881 125.254 98.341 125.395 95.8057 125.287C94.8311 125.247 94.0466 125.175 93.5078 125.104C93.2257 125.085 92.9466 125.035 92.6758 124.953C92.6758 124.882 93.8802 124.953 95.8453 125.001C100.883 125.048 105.895 124.276 110.686 122.715C112.493 122.12 113.61 121.667 113.634 121.731Z" fill="#FAFAFA"/>
<path d="M113.927 132.486C113.927 132.486 113.816 132.565 113.587 132.684L112.572 133.128C111.701 133.541 110.409 134.081 108.793 134.716C107.176 135.351 105.219 135.962 103.016 136.565C98.2274 137.857 93.3119 138.621 88.3574 138.843C86.0754 138.93 84.0231 138.923 82.2957 138.843C80.5684 138.764 79.1817 138.637 78.2229 138.502L77.1216 138.351C76.9918 138.342 76.8639 138.315 76.7412 138.272C76.8698 138.251 77.0009 138.251 77.1295 138.272L78.2388 138.343C79.1976 138.423 80.6159 138.502 82.3037 138.55C83.9914 138.597 86.0754 138.55 88.3415 138.47C90.6077 138.391 93.0958 138.105 95.6868 137.676C98.2779 137.248 100.718 136.732 102.921 136.176C105.124 135.621 107.073 134.994 108.69 134.414C110.306 133.835 111.621 133.351 112.509 132.986L113.539 132.581C113.665 132.536 113.795 132.504 113.927 132.486Z" fill="#FAFAFA"/>
<path d="M44.4283 301.22L40.1416 320.61L32.3208 334.968C32.1879 335.213 32.1065 335.483 32.0818 335.761C32.057 336.039 32.0895 336.319 32.1771 336.584C32.2648 336.849 32.4057 337.093 32.5913 337.301C32.7768 337.509 33.003 337.677 33.2558 337.794C33.5494 337.929 33.8709 337.991 34.1935 337.976C34.5161 337.961 34.8304 337.868 35.11 337.706C38.7391 335.611 52.0588 327.809 52.2886 326.372C52.5659 324.713 58.168 306.22 58.168 306.22L44.4283 301.22Z" fill="#FFBE10"/>
<g opacity="0.6">
<path d="M33.2559 337.794L52.6135 325.094L52.4075 325.888C52.2381 326.596 51.8223 327.221 51.2348 327.65C49.65 328.785 45.2365 331.833 35.1734 337.722C34.8845 337.892 34.5582 337.987 34.2236 338C33.889 338.012 33.5565 337.941 33.2559 337.794Z" fill="white"/>
</g>
<g opacity="0.6">
<path d="M50.1809 317.88C49.9013 317.996 49.6747 318.212 49.5445 318.486C49.4143 318.76 49.3898 319.073 49.4757 319.364C49.5815 319.647 49.7915 319.879 50.0627 320.012C50.3338 320.145 50.6455 320.168 50.9336 320.078C51.233 319.954 51.4753 319.723 51.613 319.429C51.7508 319.135 51.7742 318.801 51.6785 318.491C51.5381 318.21 51.2958 317.993 51.0011 317.885C50.7064 317.778 50.3818 317.787 50.0937 317.911" fill="white"/>
</g>
<path d="M39.7216 330.444C39.4019 329.73 38.9533 329.082 38.3983 328.531C37.7591 328.085 37.0412 327.765 36.2827 327.587C36.2827 327.531 36.56 327.444 37.0275 327.491C37.6359 327.57 38.2084 327.824 38.6757 328.222C39.1465 328.604 39.4939 329.118 39.6741 329.698C39.8088 330.15 39.7691 330.444 39.7216 330.444Z" fill="#263238"/>
<path d="M37.7169 332.69C37.6059 332.754 37.1384 331.976 36.2114 331.444C35.62 331.169 35.0112 330.933 34.3889 330.738C34.731 330.625 35.0948 330.596 35.4503 330.653C35.8058 330.709 36.1428 330.85 36.4332 331.063C37.4871 331.674 37.8278 332.666 37.7169 332.69Z" fill="#263238"/>
<path d="M43.0812 327.761C42.4074 327.012 41.6762 326.317 40.8943 325.682C40.0328 325.155 39.1321 324.696 38.2002 324.309C39.2719 324.287 40.3164 324.647 41.1478 325.324C42.0644 325.877 42.751 326.742 43.0812 327.761Z" fill="#263238"/>
<path d="M44.88 321.975C44.8007 322.078 43.842 321.372 42.5028 320.983C41.1637 320.594 39.9514 320.657 39.9435 320.523C40.8254 320.294 41.7527 320.308 42.6272 320.564C43.5017 320.819 44.291 321.307 44.9117 321.975H44.88Z" fill="#263238"/>
<path d="M46.2824 316.316C45.5095 315.837 44.6751 315.466 43.8023 315.213C42.9032 315.09 41.9916 315.09 41.0924 315.213C41.0924 315.165 41.338 314.975 41.8452 314.824C42.5118 314.642 43.2115 314.62 43.8884 314.758C44.5653 314.895 45.2006 315.19 45.7436 315.618C46.1477 315.999 46.3141 316.284 46.2824 316.316Z" fill="#263238"/>
<path d="M44.0954 314.141C44.096 313.889 44.15 313.641 44.2539 313.411C44.4784 312.756 44.8344 312.154 45.2999 311.641C45.6044 311.235 46.0328 310.94 46.5201 310.8C46.686 310.773 46.8563 310.796 47.0088 310.867C47.1614 310.937 47.2893 311.052 47.3759 311.197C47.5215 311.492 47.5526 311.832 47.463 312.149C47.2599 312.786 46.8421 313.332 46.2812 313.694C45.7203 314.056 45.0513 314.211 44.3886 314.133C43.7351 314.04 43.1238 313.755 42.6317 313.315C42.1396 312.874 41.7887 312.297 41.6232 311.657C41.5852 311.494 41.5818 311.325 41.6132 311.161C41.6446 310.997 41.7101 310.842 41.8055 310.705C41.915 310.577 42.0623 310.487 42.2261 310.448C42.39 310.41 42.5618 310.424 42.7167 310.49C43.1646 310.714 43.5468 311.05 43.826 311.467C44.246 312.017 44.5652 312.638 44.769 313.3C44.8655 313.537 44.9114 313.791 44.9037 314.046C44.5842 313.19 44.1382 312.388 43.5804 311.665C43.3207 311.326 42.9838 311.054 42.5979 310.871C42.513 310.834 42.4185 310.826 42.3285 310.848C42.2385 310.869 42.1578 310.919 42.0987 310.99C42.0433 311.084 42.0077 311.188 41.9941 311.296C41.9804 311.403 41.9891 311.513 42.0194 311.617C42.1847 312.156 42.4985 312.637 42.9246 313.005C43.3508 313.373 43.872 313.613 44.4282 313.697C44.9887 313.762 45.5547 313.635 46.0338 313.337C46.513 313.038 46.8772 312.586 47.0668 312.054C47.1436 311.838 47.1436 311.603 47.0668 311.387C47.0219 311.306 46.9526 311.241 46.8688 311.201C46.7849 311.161 46.6907 311.148 46.5993 311.165C46.1864 311.279 45.8184 311.517 45.5455 311.848C44.9376 312.526 44.4475 313.301 44.0954 314.141Z" fill="#263238"/>
<g opacity="0.3">
<path d="M43.9053 303.323L42.9783 307.768L56.9953 310.093L58.168 306.22L44.4045 301.22L43.9053 303.323Z" fill="black"/>
</g>
<path d="M107.026 308.395L105.869 323.888C105.869 323.888 121.209 330.238 121.273 333.158L91.1624 331.992L91.9548 307.768L107.026 308.395Z" fill="#FFBE10"/>
<g opacity="0.6">
<path d="M96.6377 322.221C96.3455 322.3 96.0921 322.483 95.9256 322.736C95.7591 322.989 95.6911 323.294 95.7344 323.594C95.8011 323.889 95.9775 324.148 96.2277 324.318C96.4779 324.487 96.7831 324.555 97.0814 324.507C97.3922 324.425 97.6614 324.23 97.837 323.96C98.0126 323.69 98.0822 323.365 98.0323 323.047C97.9322 322.745 97.7195 322.494 97.4389 322.346C97.1583 322.198 96.8315 322.165 96.5268 322.253" fill="white"/>
</g>
<g opacity="0.6">
<path d="M91.1782 331.992L91.3525 329.547L120.155 331.555C120.155 331.555 121.479 332.19 121.288 333.143L91.1782 331.992Z" fill="white"/>
</g>
<path d="M106.376 323.753C106.376 323.904 105.631 323.944 104.894 324.388C104.157 324.833 103.745 325.436 103.611 325.372C103.476 325.309 103.729 324.467 104.633 323.944C105.536 323.42 106.416 323.618 106.376 323.753Z" fill="#263238"/>
<path d="M109.482 325.205C109.482 325.356 108.864 325.579 108.341 326.182C107.818 326.785 107.652 327.436 107.501 327.428C107.351 327.42 107.295 326.579 107.961 325.84C108.626 325.102 109.482 325.047 109.482 325.205Z" fill="#263238"/>
<path d="M111.13 329.039C110.995 329.039 110.821 328.317 111.225 327.531C111.629 326.745 112.335 326.444 112.39 326.571C112.446 326.698 112.01 327.11 111.685 327.761C111.36 328.412 111.273 329.031 111.13 329.039Z" fill="#263238"/>
<path d="M106.233 320.197C106.17 320.324 105.504 320.094 104.649 320.118C103.793 320.142 103.159 320.38 103.064 320.253C102.969 320.126 103.634 319.626 104.649 319.61C105.663 319.594 106.328 320.086 106.233 320.197Z" fill="#263238"/>
<g opacity="0.3">
<path d="M106.812 311.458L106.614 314.221L91.8359 313.514L91.931 310.323L106.812 311.458Z" fill="black"/>
</g>
<path d="M106.431 317.062C105.934 317.183 105.412 317.161 104.926 316.999C104.377 316.884 103.844 316.7 103.341 316.451C103.048 316.306 102.765 316.142 102.493 315.959C102.328 315.857 102.178 315.731 102.05 315.586C101.962 315.472 101.915 315.332 101.915 315.189C101.915 315.045 101.962 314.906 102.05 314.792C102.127 314.692 102.226 314.611 102.341 314.557C102.455 314.503 102.581 314.478 102.707 314.482C102.898 314.49 103.087 314.522 103.27 314.578C103.587 314.67 103.895 314.793 104.189 314.943C104.689 315.188 105.147 315.512 105.544 315.903C106.217 316.578 106.431 317.141 106.384 317.165C106.336 317.189 105.996 316.737 105.306 316.173C104.901 315.856 104.46 315.59 103.991 315.379C103.711 315.263 103.426 315.163 103.135 315.078C102.818 314.983 102.549 314.975 102.462 315.078C102.374 315.181 102.462 315.157 102.462 315.252C102.557 315.357 102.666 315.448 102.786 315.522C103.041 315.699 103.305 315.861 103.579 316.006C104.036 316.259 104.516 316.466 105.013 316.625C105.496 316.737 105.97 316.883 106.431 317.062Z" fill="#263238"/>
<path d="M106.233 317.268C105.97 316.823 105.851 316.308 105.893 315.792C105.896 315.234 105.987 314.679 106.162 314.149C106.276 313.838 106.416 313.538 106.582 313.252C106.671 313.056 106.809 312.886 106.982 312.758C107.156 312.63 107.359 312.549 107.572 312.522C107.708 312.531 107.838 312.578 107.947 312.658C108.057 312.738 108.141 312.848 108.19 312.974C108.259 313.152 108.302 313.34 108.317 313.53C108.369 313.867 108.369 314.209 108.317 314.546C108.211 315.107 107.969 315.633 107.612 316.078C106.994 316.871 106.376 316.991 106.36 316.943C106.344 316.895 106.835 316.602 107.319 315.863C107.596 315.443 107.777 314.966 107.85 314.467C107.89 314.177 107.89 313.883 107.85 313.593C107.81 313.276 107.699 313.006 107.58 313.038C107.461 313.07 107.168 313.26 107.034 313.514C106.879 313.768 106.744 314.033 106.629 314.308C106.446 314.787 106.329 315.289 106.281 315.8C106.178 316.689 106.313 317.268 106.233 317.268Z" fill="#263238"/>
<path d="M75.9013 141.304C75.9013 141.304 71.1471 141.518 67.9776 157.805C64.8081 174.092 40.6487 306.061 40.6487 306.061L58.168 306.22L91.1782 180.751L88.9834 310.125L106.78 311.49C106.78 311.49 120.132 168.393 120.25 160.067C120.409 149.685 114.458 139.185 114.458 139.185L75.9013 141.304Z" fill="#371300"/>
<path d="M99.9815 139.915C100.092 139.915 98.27 149.241 95.9166 160.694C93.5633 172.147 91.5665 181.418 91.4556 181.394C91.3446 181.37 93.1592 172.068 95.5125 160.614C97.8659 149.161 99.8943 139.891 99.9815 139.915Z" fill="#455A64"/>
<path d="M102.707 142.24C102.707 142.193 103.183 142.05 103.729 142.534C103.885 142.675 104.008 142.848 104.09 143.041C104.172 143.234 104.211 143.443 104.205 143.653C104.185 143.918 104.09 144.173 103.932 144.386C103.773 144.6 103.557 144.764 103.309 144.859C103.068 144.969 102.8 145.009 102.536 144.974C102.273 144.939 102.025 144.831 101.82 144.661C101.667 144.517 101.546 144.342 101.465 144.148C101.384 143.954 101.346 143.744 101.352 143.534C101.352 142.804 101.844 142.55 101.851 142.597C101.718 142.889 101.648 143.205 101.645 143.526C101.656 143.687 101.699 143.845 101.771 143.989C101.843 144.134 101.943 144.262 102.065 144.367C102.222 144.475 102.403 144.542 102.592 144.562C102.78 144.581 102.971 144.553 103.146 144.48C103.321 144.406 103.475 144.29 103.594 144.141C103.712 143.993 103.792 143.817 103.824 143.629C103.836 143.468 103.816 143.307 103.764 143.154C103.712 143.002 103.63 142.861 103.523 142.74C103.135 142.288 102.699 142.304 102.707 142.24Z" fill="#455A64"/>
<path d="M101.954 148.685C101.954 148.638 102.446 148.685 102.747 149.344C102.823 149.532 102.858 149.735 102.849 149.937C102.839 150.14 102.785 150.339 102.691 150.519C102.555 150.733 102.363 150.905 102.136 151.018C101.909 151.131 101.656 151.18 101.404 151.16C101.151 151.139 100.909 151.05 100.703 150.903C100.497 150.755 100.335 150.553 100.235 150.32C100.172 150.129 100.151 149.926 100.174 149.726C100.198 149.526 100.264 149.333 100.37 149.161C100.742 148.566 101.249 148.582 101.233 148.63C101.218 148.677 100.853 148.788 100.623 149.296C100.507 149.581 100.507 149.9 100.623 150.185C100.706 150.343 100.827 150.477 100.975 150.575C101.124 150.673 101.294 150.732 101.471 150.746C101.649 150.76 101.826 150.729 101.988 150.656C102.15 150.583 102.291 150.47 102.398 150.328C102.547 150.057 102.584 149.738 102.501 149.439C102.271 148.9 101.915 148.741 101.954 148.685Z" fill="#455A64"/>
<path d="M85.1641 142.399C85.1316 142.672 85.0623 142.939 84.9581 143.193C84.7106 143.919 84.4004 144.623 84.031 145.296C82.8221 147.541 81.0759 149.451 78.9491 150.854C76.8222 152.258 74.3811 153.11 71.8444 153.336C71.0825 153.403 70.3163 153.403 69.5544 153.336C69.286 153.328 69.0197 153.285 68.762 153.209C68.762 153.13 69.9585 153.265 71.8523 153.027C74.3204 152.727 76.6855 151.857 78.7616 150.487C80.8377 149.117 82.5682 147.283 83.8171 145.129C84.7442 143.526 85.0928 142.375 85.1641 142.399Z" fill="#455A64"/>
<path d="M119.252 153.979C119.252 153.979 119.046 153.884 118.721 153.662C118.267 153.335 117.843 152.968 117.453 152.566C116.15 151.245 115.133 149.668 114.467 147.935C113.8 146.202 113.498 144.35 113.579 142.494C113.597 141.936 113.668 141.38 113.793 140.835C113.88 140.446 113.935 140.24 113.967 140.248C113.999 140.256 113.872 141.113 113.872 142.502C113.873 146.148 115.226 149.664 117.667 152.368C118.594 153.392 119.292 153.916 119.252 153.979Z" fill="#455A64"/>
<path d="M68.9363 109.92L76.7174 110.349C77.2686 112.525 78.0056 114.649 78.9202 116.699C85.1879 105.809 90.0134 91.2128 91.2495 85.3473C91.0752 84.7705 90.8613 84.1197 90.6077 83.3947C90.4179 82.2989 90.4502 81.176 90.7028 80.0929C90.9167 78.7912 91.2812 77.0292 91.3842 76.2196C91.7249 73.7433 92.1211 73.3464 92.969 73.6322C94.1417 74.0131 92.4856 80.593 93.4444 80.7358C93.9674 80.8073 94.5933 78.5531 94.7835 76.7038C94.9737 74.8545 95.7978 69.1715 96.4079 68.7667C97.3033 68.2111 98.0798 69.0922 97.8579 70.9336C97.636 72.775 97.3429 78.3547 98.3175 78.4261C99.2921 78.4976 100.084 69.0683 100.084 69.0683C100.084 69.0683 99.9339 67.0206 101.059 67.0682C103.095 67.1555 101.511 77.1007 101.336 78.0452C101.21 78.696 102.271 78.8389 102.367 78.1087C102.462 77.3784 102.953 68.6715 105.021 68.7429C106.606 68.7985 103.793 76.934 104.688 78.823C105.584 80.712 106.202 72.4178 107.723 72.5289C108.286 72.5765 108.705 72.6876 107.667 77.3785C106.654 81.1085 105.44 84.7808 104.03 88.3792C101.653 101.396 91.0435 143.034 74.4671 135.414C65.1963 131.152 60.8621 110.016 60.8621 110.016L68.9363 109.92Z" fill="#FFBE9D"/>
<path d="M104.046 88.4508C104.06 88.3525 104.087 88.2564 104.126 88.1651C104.197 87.9587 104.284 87.6889 104.403 87.3714C104.664 86.6174 105.021 85.5697 105.488 84.1966C105.956 82.8234 106.519 81.1566 107.073 79.1883C107.358 78.212 107.596 77.1484 107.81 76.0134C107.921 75.442 108.024 74.8546 108.095 74.2514C108.115 73.9528 108.115 73.6531 108.095 73.3545C108.095 73.045 108.024 72.791 107.778 72.783C107.533 72.7751 107.358 72.9259 107.184 73.1878C107.026 73.4681 106.896 73.7632 106.796 74.0688C106.574 74.6959 106.4 75.3626 106.225 76.0372C106.051 76.7119 105.893 77.4183 105.687 78.1326C105.597 78.5239 105.436 78.8953 105.211 79.2279C105.155 79.2931 105.08 79.3401 104.997 79.3629C104.945 79.3744 104.891 79.3739 104.839 79.3616C104.786 79.3492 104.738 79.3252 104.696 79.2914C104.605 79.2078 104.53 79.1083 104.474 78.9978C104.391 78.8028 104.335 78.5971 104.308 78.3866C104.272 76.7857 104.431 75.1864 104.783 73.6244C104.918 72.8307 105.061 72.037 105.164 71.2433C105.211 70.8385 105.259 70.4496 105.267 70.0209C105.275 69.5923 105.211 69.1399 105.045 69.0685C104.878 68.9971 104.474 69.2193 104.252 69.5527C104.033 69.9048 103.86 70.2835 103.737 70.6797C103.467 71.5088 103.263 72.3581 103.127 73.2196C102.977 74.0927 102.858 74.9816 102.755 75.8864C102.715 76.3389 102.668 76.7913 102.628 77.2516L102.565 77.9421C102.573 78.0896 102.549 78.2371 102.494 78.3743C102.44 78.5115 102.355 78.6349 102.248 78.7358C102.112 78.8352 101.948 78.8887 101.78 78.8887C101.612 78.8887 101.448 78.8352 101.313 78.7358C101.236 78.685 101.171 78.6184 101.121 78.5404C101.072 78.4624 101.04 78.3748 101.027 78.2834C101.015 78.1992 101.015 78.1137 101.027 78.0294V77.8628L101.241 76.4738C101.376 75.5372 101.487 74.6006 101.574 73.6482C101.661 72.6957 101.733 71.7354 101.748 70.775C101.795 69.8241 101.699 68.8717 101.463 67.9494C101.409 67.7153 101.267 67.511 101.067 67.3779C100.971 67.3471 100.869 67.3475 100.773 67.3788C100.678 67.4102 100.595 67.471 100.536 67.5525C100.28 68.0224 100.174 68.5602 100.235 69.0923C100.061 70.9575 99.8626 72.791 99.5932 74.5927C99.4585 75.4896 99.308 76.3865 99.0861 77.2675C99.0227 77.4818 98.9593 77.704 98.8801 77.9263C98.8048 78.1956 98.6468 78.4344 98.4285 78.6088C98.3319 78.6563 98.2222 78.6696 98.1171 78.6466C98.012 78.6235 97.9179 78.5654 97.85 78.4819C97.7533 78.3801 97.6802 78.2581 97.6361 78.1247C97.5506 77.9045 97.4895 77.6756 97.4538 77.4421C97.2681 75.7149 97.2522 73.9736 97.4063 72.2433C97.5234 71.4367 97.5685 70.6213 97.541 69.8066C97.5154 69.4589 97.3563 69.1347 97.0973 68.9018C97.0364 68.8639 96.9686 68.8388 96.8977 68.8279C96.8269 68.817 96.7546 68.8205 96.6852 68.8383C96.6111 68.8633 96.5395 68.8952 96.4713 68.9336C96.4 68.9971 96.4079 68.9336 96.3604 69.0685C96.0738 69.7823 95.864 70.5246 95.7344 71.2829C95.5759 72.0766 95.4412 72.7989 95.3224 73.545C95.2035 74.2911 95.0926 75.0213 94.9975 75.7515C94.9024 76.4817 94.8549 77.196 94.7122 77.9104C94.5891 78.6083 94.4035 79.2936 94.1576 79.9581C94.0923 80.1272 94.0155 80.2917 93.9278 80.4503C93.8169 80.6011 93.7535 80.7915 93.4524 80.8868C93.3753 80.901 93.2958 80.8919 93.2239 80.8609C93.152 80.8298 93.0908 80.778 93.0483 80.7122C92.9928 80.6205 92.9502 80.5217 92.9215 80.4185C92.8859 80.2459 92.8647 80.0707 92.8581 79.8946C92.8581 78.5374 93.0403 77.2992 93.1116 76.1007C93.1633 75.5278 93.1633 74.9513 93.1116 74.3784C93.1116 74.1244 92.9928 73.8228 92.8502 73.7672C92.7503 73.7182 92.6405 73.6927 92.5292 73.6927C92.418 73.6927 92.3082 73.7182 92.2083 73.7672C91.8757 74.125 91.6697 74.5824 91.622 75.0689C91.5031 75.5531 91.4556 76.0452 91.3684 76.5135C91.0356 78.3866 90.687 80.0058 90.5206 81.3233C90.4425 81.9027 90.4425 82.4901 90.5206 83.0695C90.6315 83.5457 90.7979 83.9743 90.8851 84.3077C90.9722 84.641 91.0594 84.8791 91.1149 85.1014C91.1444 85.1864 91.1656 85.2742 91.1783 85.3633C91.1308 85.2865 91.0935 85.2037 91.0673 85.1172L90.7979 84.3235C90.687 83.9822 90.5206 83.6013 90.3859 83.0774C90.3011 82.4825 90.3011 81.8785 90.3859 81.2836C90.5364 79.9423 90.8534 78.339 91.1783 76.4579C91.2654 75.9896 91.313 75.4975 91.416 74.9895C91.4727 74.7213 91.5441 74.4563 91.6299 74.1958C91.7091 73.9072 91.882 73.6531 92.1212 73.4736C92.2652 73.3971 92.4257 73.3572 92.5887 73.3572C92.7517 73.3572 92.9122 73.3971 93.0562 73.4736C93.2111 73.5714 93.3384 73.7074 93.4258 73.8686C93.5132 74.0298 93.5578 74.2108 93.5554 74.3943C93.6109 74.9909 93.6109 75.5914 93.5554 76.188C93.4999 77.3945 93.3097 78.6565 93.3414 79.9423C93.3472 80.0944 93.3658 80.2457 93.3969 80.3947C93.3969 80.5455 93.5078 80.609 93.492 80.5772C93.4761 80.5455 93.6425 80.4503 93.7059 80.3233C93.7841 80.1824 93.8529 80.0366 93.9119 79.8867C94.1466 79.2433 94.3191 78.5789 94.427 77.9024C94.5617 77.2119 94.6092 76.4976 94.7043 75.7594C94.7994 75.0213 94.8945 74.2911 95.0133 73.5371C95.1322 72.783 95.2669 72.029 95.4174 71.2591C95.5463 70.4551 95.7697 69.6691 96.083 68.9177C96.1464 68.7917 96.2421 68.6848 96.3604 68.6081C96.4657 68.5503 96.5774 68.505 96.6932 68.4732C96.8261 68.4352 96.9656 68.4261 97.1022 68.4466C97.2389 68.4672 97.3696 68.5168 97.4855 68.5923C97.6694 68.7385 97.8213 68.9211 97.9317 69.1286C98.0421 69.3362 98.1087 69.5643 98.1274 69.7987C98.1868 70.2306 98.1868 70.6685 98.1274 71.1004C98.0877 71.5052 98.0481 71.8941 98.0243 72.3386C97.8699 74.0291 97.8859 75.7309 98.0719 77.4183C98.1058 77.6187 98.1589 77.8154 98.2304 78.0056C98.2541 78.0824 98.2948 78.1529 98.3492 78.212C98.3492 78.212 98.3492 78.212 98.3888 78.212C98.3888 78.3945 98.3888 78.212 98.3888 78.2834C98.3888 78.3549 98.3888 78.2834 98.3888 78.2199C98.4877 78.0873 98.5652 77.94 98.6186 77.7834C98.6926 77.5876 98.756 77.3813 98.8088 77.1643C99.0227 76.323 99.1654 75.434 99.3001 74.5451C99.5695 72.7592 99.7676 70.9258 99.934 69.0685V69.1082C99.8635 68.454 100.005 67.7944 100.338 67.2271C100.465 67.065 100.64 66.9465 100.837 66.8882C101.034 66.8299 101.245 66.8346 101.439 66.9017C101.606 66.994 101.752 67.1189 101.869 67.2689C101.986 67.4189 102.072 67.5909 102.121 67.7748C102.375 68.7507 102.479 69.7597 102.43 70.767C102.43 71.7512 102.343 72.7196 102.256 73.6799C102.168 74.6403 102.05 75.5848 101.915 76.5214C101.844 76.9976 101.772 77.458 101.701 77.9263C101.638 78.2199 101.653 78.2279 101.701 78.3152C101.756 78.3524 101.821 78.3722 101.887 78.3722C101.954 78.3722 102.018 78.3524 102.073 78.3152C102.168 78.2437 102.184 78.1088 102.208 77.8469L102.264 77.1564L102.406 75.7833C102.501 74.8784 102.628 73.9736 102.779 73.0926C102.925 72.2077 103.137 71.3348 103.412 70.4813C103.556 70.0499 103.75 69.6369 103.991 69.2511C104.122 69.0431 104.294 68.8646 104.498 68.7272C104.611 68.6453 104.742 68.5918 104.88 68.5711C105.018 68.5504 105.158 68.5631 105.29 68.6081C105.412 68.6831 105.514 68.7852 105.59 68.9063C105.665 69.0275 105.712 69.1644 105.726 69.3066C105.759 69.5299 105.772 69.7557 105.766 69.9813C105.766 70.4178 105.71 70.8385 105.663 71.2591C105.552 72.0528 105.401 72.8942 105.259 73.6958C104.918 75.2035 104.753 76.7457 104.767 78.2914C104.79 78.4573 104.832 78.6199 104.894 78.7755C104.923 78.8319 104.957 78.8851 104.997 78.9343C104.997 78.9343 104.997 78.9343 104.997 78.8787C105.175 78.5918 105.306 78.2783 105.385 77.9501C105.591 77.2595 105.758 76.5611 105.94 75.8785C106.104 75.1993 106.302 74.5291 106.534 73.8704C106.644 73.5442 106.788 73.2303 106.962 72.9339C107.057 72.7723 107.18 72.6297 107.327 72.5132C107.406 72.444 107.502 72.395 107.604 72.3703C107.707 72.3542 107.811 72.3542 107.913 72.3703C108.021 72.3811 108.125 72.4207 108.212 72.4849C108.3 72.549 108.369 72.6356 108.412 72.7354C108.479 72.9022 108.513 73.0798 108.515 73.2593C108.522 73.5804 108.503 73.9014 108.46 74.2197C108.389 74.8387 108.27 75.4261 108.159 76.0055C107.929 77.1405 107.675 78.2199 107.366 79.1803C106.772 81.1487 106.178 82.8155 105.695 84.1727C105.211 85.53 104.799 86.5539 104.522 87.2841C104.387 87.6174 104.276 87.8793 104.197 88.0778C104.161 88.2076 104.111 88.3328 104.046 88.4508Z" fill="#EB996E"/>
<path d="M60.7908 110.817C62.2963 116.143 65.2439 124.358 68.4055 133.041C68.5051 133.321 68.6854 133.565 68.9236 133.742C69.1617 133.919 69.4469 134.021 69.7431 134.035C70.0393 134.05 70.3331 133.976 70.5872 133.823C70.8414 133.67 71.0445 133.445 71.1708 133.176L78.9202 116.754C78.9202 116.754 77.0502 103.261 77.2087 103.745C77.3672 104.23 61.2187 105.492 61.2187 105.492L60.7908 110.817Z" fill="#FFBE10"/>
<path d="M78.2546 108.174C78.2546 108.238 77.2879 108.524 75.7587 109.111C73.76 109.871 71.8346 110.811 70.006 111.921C68.1799 113.035 66.4563 114.31 64.8556 115.73C63.6274 116.818 62.9222 117.564 62.8747 117.516C62.8272 117.469 63.0094 117.294 63.3105 116.937C63.735 116.441 64.1846 115.966 64.6575 115.516C66.2194 114.01 67.9412 112.679 69.7921 111.548C71.6436 110.43 73.6093 109.515 75.6557 108.817C76.2742 108.604 76.9037 108.424 77.5415 108.278C77.7722 108.205 78.013 108.17 78.2546 108.174Z" fill="#FAFAFA"/>
<path d="M81.329 112.27C80.8255 111.761 80.3888 111.191 80.0296 110.571C79.1042 109.126 78.3087 107.601 77.6524 106.015C76.9957 104.425 76.4839 102.778 76.1232 101.094C75.9385 100.406 75.8453 99.6961 75.8458 98.9832C76.0821 99.6486 76.2702 100.33 76.4084 101.023C76.8329 102.667 77.3622 104.281 77.9932 105.857C78.6523 107.424 79.4092 108.948 80.2593 110.42C80.655 111.013 81.0123 111.631 81.329 112.27Z" fill="#263238"/>
<path d="M86.4953 39.5505C85.1511 41.7699 84.3177 44.2615 84.0559 46.8442C83.7941 49.4268 84.1104 52.0354 84.9819 54.4801C85.7743 56.6628 87.0421 58.8138 86.8123 61.1314C86.5825 63.449 84.7759 65.7428 85.4098 68.0287C85.7901 69.3859 86.947 70.4098 87.3986 71.7274C87.9137 73.3148 87.3987 74.9895 87.1213 76.6166C86.4874 80.7756 87.8186 84.9585 88.1435 89.1492C88.4683 93.34 87.3511 98.2531 83.6111 100.079C82.478 100.634 80.9963 100.793 80.0534 99.9436C78.849 98.8721 79.1817 96.9355 79.5145 95.3481C82.795 79.4739 72.6605 63.9808 74.9743 47.9162C75.3467 45.3446 76.7809 40.9792 78.6271 39.1854C80.4733 37.3916 85.6 37.598 87.3432 39.5029" fill="#263238"/>
<path d="M70.8856 85.6014C70.8856 85.6014 71.369 85.0299 72.0821 83.9029C73.0829 82.3111 73.7838 80.5491 74.1502 78.7041C74.3893 77.4332 74.4718 76.1377 74.3958 74.8467C74.2572 73.3455 74.2017 71.8378 74.2294 70.3305C74.2767 69.505 74.4285 68.6889 74.6811 67.9018C74.9707 67.0909 75.3368 66.3095 75.7746 65.5683C76.662 64.0682 77.7793 62.6712 78.8093 61.1791C79.8671 59.7688 80.6029 58.1431 80.9646 56.4168C81.1403 54.7908 81.0466 53.1468 80.6873 51.5514C80.3875 50.0686 80.2704 48.5545 80.3386 47.0431C80.4329 45.7229 80.6993 44.4208 81.131 43.1699C81.7363 41.3547 82.689 39.6751 83.936 38.2251C84.2672 37.8309 84.6274 37.4621 85.0136 37.1218C85.1361 36.9911 85.2745 36.8764 85.4257 36.7805C85.4257 36.7805 84.8948 37.2964 84.0548 38.3679C82.0543 40.8553 80.8847 43.9093 80.711 47.0987C80.658 48.5854 80.7884 50.0729 81.0993 51.5276C81.4773 53.1659 81.579 54.856 81.4004 56.5279C81.0248 58.3024 80.2677 59.9735 79.1818 61.4251C78.1437 62.9411 77.0265 64.3301 76.1549 65.7905C75.7262 66.5042 75.3704 67.2594 75.0931 68.0446C74.8425 68.7996 74.6906 69.584 74.6415 70.3781C74.6064 71.8688 74.6487 73.3604 74.7682 74.8467C74.8312 76.1638 74.73 77.4835 74.4671 78.7755C74.0701 80.6457 73.3168 82.4216 72.2485 84.0061C71.9593 84.4344 71.6416 84.8427 71.2977 85.2284C71.1744 85.3675 71.0362 85.4926 70.8856 85.6014Z" fill="#455A64"/>
<path d="M63.3739 86.7839C63.4377 86.5989 63.52 86.4207 63.6195 86.2522C63.8176 85.8791 64.0712 85.387 64.4119 84.7679C65.0775 83.4742 66.068 81.5931 67.0426 79.212C68.2348 76.431 68.8959 73.4507 68.9918 70.4256C68.9923 69.5541 68.926 68.6837 68.7937 67.8223C68.659 66.9333 68.453 66.0364 68.3183 65.0999C68.1535 64.1311 68.175 63.1397 68.3817 62.179C68.6496 61.1927 69.2007 60.3068 69.9664 59.6312C71.4561 58.274 73.2548 57.385 74.1898 55.7897C74.9998 54.2078 75.4772 52.4762 75.5923 50.702C75.76 49.0756 76.1272 47.4761 76.6857 45.9398C77.9417 42.6415 80.1796 39.8097 83.096 37.8281C83.561 37.5146 84.0453 37.231 84.5461 36.9788C84.7151 36.8774 84.8961 36.7974 85.0849 36.7407C85.0849 36.7407 84.3718 37.1217 83.1911 37.963C81.5271 39.1525 80.0865 40.6278 78.9361 42.3205C78.1383 43.4808 77.4888 44.7367 77.0027 46.0588C76.4688 47.5988 76.1229 49.1979 75.9726 50.8211C75.7349 52.5117 75.5447 54.4007 74.5305 56.0754C73.5163 57.7501 71.6621 58.7026 70.2438 60.044C69.5209 60.6722 68.9999 61.5007 68.7462 62.4251C68.5536 63.334 68.5347 64.2712 68.6907 65.1872C68.8175 66.0999 69.0156 67.0048 69.1503 67.9017C69.2874 68.7838 69.351 69.6758 69.3405 70.5685C69.2328 73.649 68.5361 76.6802 67.2882 79.4977C66.4777 81.4018 65.557 83.2569 64.5308 85.0537L63.6908 86.2998C63.6026 86.4719 63.4963 86.6342 63.3739 86.7839Z" fill="#455A64"/>
<path d="M325.538 311.062C325.575 310.946 325.623 310.834 325.681 310.728C325.792 310.49 325.942 310.173 326.125 309.768C326.676 308.528 327.118 307.243 327.448 305.926C328.319 302.513 328.628 297.299 327.337 291.108C326.635 287.732 325.717 284.404 324.587 281.147C323.43 277.615 322.075 273.868 320.974 269.813C319.731 265.583 319.13 261.189 319.191 256.78C319.358 252.169 320.721 247.573 322.218 242.985C323.716 238.398 325.261 233.929 325.72 229.405C326.231 225.067 325.36 220.678 323.232 216.864C321.251 213.205 318.755 210.07 316.893 206.832C315.15 203.823 313.865 200.57 313.082 197.181C311.958 192.273 311.874 187.185 312.836 182.243C313.187 180.435 313.718 178.667 314.421 176.965C314.4 177.084 314.368 177.201 314.326 177.314L314.009 178.322C313.74 179.211 313.383 180.544 313.042 182.291C312.157 187.21 312.289 192.259 313.431 197.125C314.226 200.473 315.515 203.683 317.258 206.649C319.12 209.824 321.624 212.999 323.652 216.674C325.832 220.564 326.728 225.045 326.212 229.476C325.744 234.064 324.191 238.58 322.694 243.16C321.196 247.74 319.849 252.288 319.683 256.82C319.612 261.185 320.199 265.536 321.426 269.725C322.511 273.757 323.842 277.504 324.991 281.052C326.11 284.327 327.01 287.673 327.685 291.068C328.945 297.307 328.589 302.577 327.685 305.998C327.332 307.317 326.857 308.6 326.267 309.831L325.776 310.776C325.708 310.88 325.628 310.976 325.538 311.062Z" fill="#263238"/>
<path d="M319.429 210.031C319.429 210.031 315.641 197.879 322.44 190.767C322.493 190.71 322.56 190.669 322.635 190.648C322.71 190.627 322.789 190.627 322.864 190.648C322.939 190.67 323.006 190.711 323.058 190.769C323.111 190.826 323.146 190.897 323.161 190.974C323.526 192.982 323.977 199.093 319.429 210.031Z" fill="#371300"/>
<path d="M321.703 194.815C321.691 195.568 321.606 196.317 321.45 197.053C321.196 198.601 320.903 200.411 320.586 202.411C320.269 204.411 319.976 206.229 319.73 207.768C319.661 208.519 319.528 209.263 319.334 209.991C319.26 209.24 319.276 208.483 319.381 207.737C319.508 206.348 319.754 204.443 320.095 202.347C320.435 200.252 320.808 198.379 321.101 197.006C321.217 196.255 321.419 195.52 321.703 194.815Z" fill="#263238"/>
<path d="M323.882 238.691C323.882 238.691 326.204 226.175 335.538 223.079C335.611 223.053 335.691 223.049 335.767 223.066C335.843 223.082 335.913 223.12 335.969 223.174C336.025 223.229 336.064 223.298 336.083 223.373C336.102 223.449 336.1 223.529 336.077 223.603C335.459 225.532 333.01 231.143 323.882 238.691Z" fill="#371300"/>
<path d="M332.994 226.294C332.632 226.955 332.208 227.579 331.727 228.159L328.454 232.485L325.205 236.826C324.796 237.456 324.332 238.048 323.819 238.596C324.108 237.898 324.481 237.237 324.928 236.628C325.72 235.461 326.798 233.889 328.098 232.199C329.397 230.508 330.578 229.024 331.473 227.945C331.918 227.34 332.428 226.786 332.994 226.294Z" fill="#263238"/>
<path d="M321.362 270.067C321.362 270.067 319.952 257.415 327.987 251.74C328.048 251.691 328.123 251.662 328.201 251.654C328.279 251.647 328.358 251.662 328.428 251.698C328.498 251.734 328.556 251.789 328.596 251.857C328.636 251.925 328.655 252.003 328.652 252.081C328.628 254.121 327.907 260.201 321.362 270.067Z" fill="#371300"/>
<path d="M326.513 255.566C326.365 256.305 326.14 257.026 325.839 257.717L323.969 262.812C323.272 264.717 322.646 266.439 322.115 267.908C321.912 268.63 321.647 269.334 321.323 270.011C321.396 269.258 321.561 268.517 321.814 267.805C322.202 266.471 322.804 264.63 323.541 262.646C324.278 260.661 324.999 258.875 325.546 257.598C325.798 256.889 326.122 256.208 326.513 255.566Z" fill="#263238"/>
<path d="M328.391 301.64C328.391 301.64 327.44 288.941 335.665 283.56C335.729 283.515 335.804 283.49 335.883 283.486C335.961 283.482 336.038 283.5 336.106 283.538C336.175 283.576 336.231 283.633 336.269 283.701C336.307 283.769 336.326 283.847 336.322 283.925C336.227 285.965 335.292 292.021 328.391 301.64Z" fill="#371300"/>
<path d="M334.032 287.338C333.855 288.071 333.603 288.783 333.28 289.465C332.693 290.909 331.996 292.64 331.227 294.489C330.459 296.338 329.785 298.061 329.199 299.513C328.964 300.23 328.664 300.923 328.304 301.585C328.409 300.834 328.603 300.099 328.882 299.394C329.318 298.077 329.983 296.267 330.792 294.306C331.6 292.346 332.376 290.584 332.971 289.33C333.253 288.63 333.609 287.962 334.032 287.338Z" fill="#263238"/>
<path d="M313.977 199.355C313.977 199.355 302.742 193.45 302.496 183.616C302.495 183.539 302.515 183.463 302.554 183.396C302.593 183.33 302.649 183.275 302.716 183.238C302.784 183.2 302.86 183.182 302.937 183.184C303.014 183.186 303.089 183.209 303.154 183.251C304.826 184.41 309.469 188.41 313.977 199.355Z" fill="#371300"/>
<path d="M304.833 186.997C305.361 187.537 305.831 188.13 306.236 188.767C307.155 190.029 308.225 191.521 309.405 193.164L312.575 197.546C313.058 198.122 313.487 198.741 313.859 199.395C313.279 198.912 312.76 198.36 312.313 197.752C311.418 196.688 310.245 195.165 309.009 193.442C307.773 191.72 306.688 190.125 305.943 188.958C305.506 188.345 305.134 187.688 304.833 186.997Z" fill="#263238"/>
<path d="M326.077 225.444C326.077 225.444 314.477 220.246 313.661 210.427C313.654 210.35 313.669 210.273 313.703 210.204C313.738 210.134 313.791 210.076 313.856 210.035C313.922 209.994 313.998 209.972 314.075 209.971C314.152 209.97 314.228 209.991 314.294 210.031C316.03 211.086 320.903 214.785 326.077 225.444Z" fill="#371300"/>
<path d="M316.212 213.666C316.771 214.17 317.275 214.731 317.717 215.34L321.156 219.539L324.603 223.722C325.119 224.269 325.586 224.862 325.998 225.492C325.39 225.042 324.837 224.523 324.35 223.944C323.399 222.928 322.131 221.484 320.792 219.841C319.453 218.198 318.28 216.666 317.456 215.547C316.973 214.968 316.556 214.337 316.212 213.666Z" fill="#263238"/>
<path d="M319.381 254.566C319.381 254.566 311.458 244.644 315.158 235.517C315.187 235.445 315.236 235.383 315.298 235.337C315.36 235.291 315.434 235.263 315.511 235.257C315.588 235.25 315.666 235.265 315.735 235.3C315.804 235.334 315.862 235.388 315.903 235.453C317.004 237.176 319.643 242.7 319.381 254.566Z" fill="#371300"/>
<path d="M315.958 239.549C316.229 240.254 316.426 240.985 316.545 241.731C316.878 243.255 317.266 245.049 317.694 247.033C318.122 249.018 318.526 250.803 318.858 252.327C319.07 253.051 319.216 253.792 319.294 254.542C318.946 253.867 318.68 253.153 318.502 252.415C318.114 251.073 317.638 249.24 317.194 247.128C316.751 245.017 316.402 243.16 316.18 241.795C316.025 241.056 315.95 240.303 315.958 239.549Z" fill="#263238"/>
<path d="M327.305 288.782C327.305 288.782 315.792 283.393 315.142 273.567C315.135 273.489 315.149 273.41 315.184 273.339C315.219 273.269 315.273 273.209 315.34 273.168C315.406 273.127 315.484 273.105 315.562 273.105C315.641 273.106 315.718 273.128 315.784 273.17C317.488 274.257 322.297 278.043 327.305 288.782Z" fill="#371300"/>
<path d="M317.614 276.837C318.159 277.357 318.652 277.929 319.088 278.543L322.456 282.79L325.831 287.036C326.339 287.591 326.795 288.192 327.194 288.83C326.604 288.366 326.072 287.833 325.609 287.242C324.667 286.211 323.43 284.742 322.115 283.075C320.8 281.409 319.659 279.861 318.851 278.726C318.367 278.147 317.952 277.513 317.614 276.837Z" fill="#263238"/>
<path d="M350.213 238.747C350.213 238.747 350.213 238.842 350.213 239.025C350.213 239.207 350.213 239.509 350.213 239.819C350.213 240.612 350.133 241.62 350.078 242.906C349.935 245.621 349.721 249.407 349.476 253.931C348.683 258.534 346.306 263.638 343.137 268.598C340.831 272.249 338.383 275.567 336.322 278.655C334.442 281.364 332.753 284.202 331.267 287.147C330.283 289.138 329.487 291.215 328.89 293.354C328.692 294.108 328.533 294.703 328.446 295.108C328.409 295.319 328.353 295.526 328.28 295.727C328.283 295.513 328.309 295.3 328.359 295.092C328.414 294.68 328.533 294.076 328.716 293.306C329.249 291.131 330.006 289.016 330.974 286.996C332.447 284.028 334.134 281.171 336.021 278.448C338.097 275.337 340.498 272.011 342.796 268.384C345.926 263.447 348.255 258.423 349.135 253.891C349.452 249.375 349.713 245.597 349.927 242.882C350.03 241.596 350.118 240.573 350.181 239.803C350.181 239.485 350.236 239.215 350.26 239.009C350.233 238.924 350.217 238.836 350.213 238.747Z" fill="#263238"/>
<path d="M343.359 267.686C343.359 267.686 348.232 255.939 342.107 248.232C342.059 248.17 341.995 248.123 341.923 248.095C341.85 248.067 341.771 248.061 341.694 248.076C341.618 248.09 341.547 248.126 341.49 248.179C341.432 248.232 341.391 248.3 341.37 248.375C340.823 250.343 339.817 256.383 343.359 267.686Z" fill="#FFBE10"/>
<path d="M342.471 252.335C342.681 253.06 342.811 253.805 342.859 254.558C343.034 255.939 343.224 257.851 343.374 259.971C343.525 262.09 343.596 264.011 343.596 265.408C343.644 266.162 343.599 266.919 343.462 267.662C343.325 266.921 343.258 266.169 343.264 265.416C343.161 263.828 343.034 262.026 342.899 260.002C342.764 257.978 342.638 256.145 342.527 254.589C342.434 253.842 342.416 253.087 342.471 252.335Z" fill="#263238"/>
<g opacity="0.3">
<path d="M343.359 267.686C343.359 267.686 348.232 255.939 342.107 248.232C342.059 248.17 341.995 248.123 341.923 248.095C341.85 248.067 341.771 248.061 341.694 248.076C341.618 248.09 341.547 248.126 341.49 248.179C341.432 248.232 341.391 248.3 341.37 248.375C340.823 250.343 339.817 256.383 343.359 267.686Z" fill="black"/>
</g>
<path d="M328.264 296.013C328.264 296.013 332.17 283.901 325.435 276.726C325.383 276.669 325.316 276.627 325.242 276.606C325.167 276.584 325.089 276.584 325.014 276.604C324.939 276.625 324.872 276.665 324.819 276.722C324.766 276.778 324.73 276.848 324.714 276.924C324.334 278.924 323.819 285.036 328.264 296.013Z" fill="#FFBE10"/>
<path d="M326.132 280.758C326.407 281.463 326.598 282.199 326.703 282.948C326.988 284.306 327.329 286.203 327.654 288.298C327.979 290.393 328.201 292.306 328.319 293.695C328.422 294.445 328.436 295.204 328.359 295.957C328.171 295.228 328.044 294.485 327.979 293.735C327.749 292.187 327.479 290.378 327.186 288.369C326.893 286.361 326.608 284.552 326.394 283.004C326.233 282.266 326.146 281.513 326.132 280.758Z" fill="#263238"/>
<g opacity="0.3">
<path d="M328.264 296.013C328.264 296.013 332.17 283.901 325.435 276.726C325.383 276.669 325.316 276.627 325.242 276.606C325.167 276.584 325.089 276.584 325.014 276.604C324.939 276.625 324.872 276.665 324.819 276.722C324.766 276.778 324.73 276.848 324.714 276.924C324.334 278.924 323.819 285.036 328.264 296.013Z" fill="black"/>
</g>
<path d="M349.571 253.327C349.571 253.327 359.975 246.025 358.929 236.231C358.921 236.154 358.891 236.081 358.845 236.019C358.798 235.958 358.735 235.91 358.662 235.883C358.59 235.855 358.512 235.847 358.436 235.861C358.36 235.875 358.289 235.91 358.231 235.961C356.718 237.326 352.661 241.866 349.571 253.327Z" fill="#FFBE10"/>
<g opacity="0.3">
<path d="M349.571 253.327C349.571 253.327 359.975 246.025 358.929 236.231C358.921 236.154 358.891 236.081 358.845 236.019C358.798 235.958 358.735 235.91 358.662 235.883C358.59 235.855 358.512 235.847 358.436 235.861C358.36 235.875 358.289 235.91 358.231 235.961C356.718 237.326 352.661 241.866 349.571 253.327Z" fill="black"/>
</g>
<path d="M357.043 239.89C356.836 240.617 356.547 241.317 356.179 241.977C355.585 243.231 354.721 244.946 353.715 246.819C352.709 248.692 351.742 250.351 350.997 251.526C350.631 252.185 350.186 252.798 349.674 253.351C349.952 252.653 350.297 251.983 350.704 251.351C351.449 249.978 352.328 248.375 353.295 246.589L355.878 241.827C356.202 241.145 356.593 240.496 357.043 239.89Z" fill="#263238"/>
<path d="M332.464 284.004C332.464 284.004 345.015 282.044 348.374 272.789C348.402 272.717 348.408 272.639 348.394 272.563C348.38 272.487 348.345 272.416 348.294 272.359C348.242 272.302 348.176 272.26 348.102 272.237C348.028 272.215 347.95 272.214 347.875 272.233C345.918 272.821 340.245 275.083 332.464 284.004Z" fill="#FFBE10"/>
<g opacity="0.3">
<path d="M332.464 284.004C332.464 284.004 345.015 282.044 348.374 272.789C348.402 272.717 348.408 272.639 348.394 272.563C348.38 272.487 348.345 272.416 348.294 272.359C348.242 272.302 348.176 272.26 348.102 272.237C348.028 272.215 347.95 272.214 347.875 272.233C345.918 272.821 340.245 275.083 332.464 284.004Z" fill="black"/>
</g>
<path d="M345.078 275.242C344.569 275.798 344.001 276.296 343.382 276.726C342.297 277.599 340.768 278.758 339.048 279.996C337.329 281.234 335.72 282.29 334.532 283.02C333.912 283.453 333.241 283.808 332.535 284.076C333.097 283.574 333.705 283.125 334.349 282.734L338.771 279.607L343.184 276.432C343.772 275.969 344.406 275.57 345.078 275.242Z" fill="#263238"/>
<path d="M320.483 307.149L316.822 331.833H339.642L336.687 307.149H320.483Z" fill="#371300"/>
<path d="M337.606 314.792C337.606 314.927 333.486 315.03 328.407 315.03C323.327 315.03 319.199 314.927 319.199 314.792C322.262 314.557 325.335 314.477 328.407 314.554C331.475 314.477 334.545 314.557 337.606 314.792Z" fill="#263238"/>
<path d="M338.05 316.76C338.05 316.895 333.795 316.998 328.541 316.998C323.288 316.998 319.033 316.895 319.033 316.76C319.033 316.625 323.288 316.522 328.541 316.522C333.795 316.522 338.05 316.625 338.05 316.76Z" fill="#263238"/>
<path d="M249.312 67.6793C249.312 67.6793 249.098 67.6793 248.686 67.6793C248.084 67.6435 247.481 67.6435 246.879 67.6793C244.552 67.8157 242.266 68.3527 240.12 69.2667C236.72 70.6945 233.761 73.004 231.547 75.9576C230.182 77.8019 229.167 79.8815 228.552 82.093C227.165 87.3609 227.914 92.9645 230.636 97.6814C231.378 98.9873 232.283 100.193 233.33 101.269C234.386 102.409 235.616 103.373 236.975 104.126C238.369 104.912 239.947 105.309 241.547 105.277C243.196 105.257 244.777 104.617 245.976 103.483C246.556 102.875 247.01 102.158 247.313 101.374C247.617 100.589 247.763 99.7526 247.743 98.9116C247.731 97.1645 247.177 95.4643 246.158 94.0462C244.106 91.1492 240.778 89.2046 237.236 88.1569C233.563 87.1236 229.685 87.0689 225.985 87.9982C224.096 88.4903 222.275 89.2155 220.565 90.157C218.838 91.1331 217.269 92.367 215.913 93.816C215.589 94.1891 215.216 94.5304 214.923 94.9431L214.028 96.1495C213.483 96.9997 212.996 97.8853 212.57 98.8005C211.722 100.659 211.143 102.628 210.85 104.65C210.275 108.689 210.823 112.809 212.435 116.556C213.975 120.217 216.658 123.28 220.081 125.287C221.741 126.236 223.594 126.798 225.501 126.929C227.371 127.034 229.231 126.587 230.85 125.644C232.456 124.754 233.726 123.36 234.463 121.675C235.158 120.015 235.206 118.154 234.598 116.46C233.971 114.826 232.947 113.375 231.618 112.238C230.329 111.122 228.843 110.258 227.236 109.69C224.103 108.701 220.751 108.643 217.585 109.523C214.624 110.327 211.903 111.845 209.662 113.944C207.62 115.904 206.065 118.315 205.121 120.985C203.471 125.617 203.547 130.691 205.335 135.271C206.73 138.691 208.975 141.696 211.857 144.002C213.672 145.46 215.693 146.64 217.855 147.502C218.6 147.78 219.178 147.987 219.574 148.098L220.161 148.288C220.161 148.288 219.955 148.248 219.558 148.137C218.973 147.98 218.396 147.792 217.831 147.574C215.641 146.749 213.593 145.587 211.761 144.129C208.831 141.825 206.542 138.805 205.113 135.359C203.293 130.735 203.201 125.608 204.852 120.921C205.797 118.211 207.369 115.763 209.44 113.778C211.713 111.636 214.474 110.083 217.482 109.254C220.714 108.35 224.138 108.406 227.339 109.412C228.993 109.99 230.523 110.876 231.848 112.024C233.229 113.198 234.292 114.702 234.938 116.397C235.59 118.167 235.562 120.116 234.859 121.866C234.077 123.616 232.752 125.067 231.079 126.001C229.401 126.981 227.473 127.45 225.533 127.35C223.579 127.214 221.682 126.633 219.986 125.652C216.485 123.617 213.735 120.501 212.15 116.77C210.504 112.954 209.939 108.758 210.517 104.642C210.82 102.58 211.412 100.57 212.276 98.6735C212.712 97.7389 213.209 96.8346 213.766 95.967L214.685 94.7367C214.978 94.3161 215.359 93.943 215.692 93.5779C217.079 92.1014 218.682 90.8437 220.446 89.8475C222.196 88.888 224.059 88.1521 225.992 87.6569C229.763 86.7103 233.716 86.7677 237.458 87.8235C241.071 88.903 244.455 90.8793 246.586 93.8795C247.657 95.3568 248.239 97.1334 248.25 98.9592C248.289 100.756 247.613 102.495 246.372 103.793C245.105 104.985 243.436 105.656 241.697 105.674C240.034 105.712 238.391 105.298 236.943 104.476C235.552 103.707 234.294 102.718 233.219 101.547C232.158 100.447 231.24 99.2173 230.485 97.8877C227.715 93.0833 226.963 87.3736 228.393 82.0136C229.028 79.7765 230.067 77.6753 231.46 75.8148C233.714 72.8387 236.724 70.5227 240.176 69.1079C242.339 68.2116 244.643 67.7064 246.982 67.6158C247.589 67.5757 248.198 67.5757 248.805 67.6158L249.312 67.6793Z" fill="#263238"/>
<path d="M275.777 147.098H164.679V232.929H275.777V147.098Z" fill="#EAD9A4"/>
<path d="M164.679 147.098L185.193 166.274H294.414L275.777 147.098H164.679Z" fill="#C49E00"/>
<path d="M164.671 147.098L275.801 146.899H275.888L275.951 146.955L294.398 165.932L294.588 166.131L294.929 166.48H294.437L185.225 166.393H185.177L164.671 147.098L185.272 166.147H185.185L294.398 166.067L294.255 166.416L294.057 166.218L275.619 147.24L275.761 147.304L164.671 147.098Z" fill="#263238"/>
<path d="M198.045 186.68C197.444 186.702 196.874 186.959 196.46 187.397C196.046 187.835 195.82 188.418 195.831 189.022C195.842 189.625 196.089 190.2 196.519 190.622C196.948 191.045 197.526 191.282 198.129 191.282C198.731 191.282 199.309 191.045 199.739 190.622C200.168 190.2 200.415 189.625 200.426 189.022C200.437 188.418 200.211 187.835 199.797 187.397C199.383 186.959 198.814 186.702 198.212 186.68" fill="#263238"/>
<path d="M224.297 186.68C223.697 186.703 223.131 186.96 222.719 187.397C222.307 187.834 222.083 188.415 222.094 189.015C222.106 189.616 222.352 190.188 222.78 190.609C223.208 191.03 223.784 191.266 224.384 191.266C224.984 191.266 225.56 191.03 225.988 190.609C226.416 190.188 226.662 189.616 226.673 189.015C226.685 188.415 226.461 187.834 226.049 187.397C225.637 186.96 225.07 186.703 224.471 186.68" fill="#263238"/>
<path d="M224.447 207.221C223.989 205.468 223.245 203.802 222.245 202.292C221.132 200.677 219.703 199.305 218.045 198.26C216.045 196.93 213.712 196.19 211.312 196.124C208.912 196.058 206.542 196.669 204.472 197.887C202.762 198.843 201.261 200.133 200.058 201.681C198.975 203.135 198.142 204.761 197.594 206.491C197.6 206.362 197.621 206.234 197.657 206.11C197.733 205.752 197.831 205.4 197.95 205.054C198.385 203.779 199.018 202.582 199.828 201.506C201.023 199.886 202.542 198.534 204.289 197.538C206.413 196.268 208.853 195.63 211.325 195.697C213.798 195.764 216.2 196.535 218.251 197.919C219.938 199.005 221.379 200.432 222.482 202.109C223.235 203.229 223.805 204.461 224.17 205.761C224.267 206.113 224.344 206.471 224.4 206.832C224.427 206.96 224.443 207.09 224.447 207.221Z" fill="#263238"/>
<path opacity="0.5" d="M164.924 148.042L184.575 172.996H275.777V166.273H185.193L164.924 148.042Z" fill="black"/>
<path d="M253.86 232.739C253.749 232.739 253.654 217.809 253.654 199.403C253.654 180.997 253.749 166.067 253.86 166.067C253.971 166.067 254.074 180.989 254.074 199.403C254.074 217.817 253.979 232.739 253.86 232.739Z" fill="#263238"/>
<path d="M271.308 213.277H261.514V224.365H271.308V213.277Z" fill="#F5F5F5"/>
<path d="M164.679 147.098L141.866 166.274H164.679V147.098Z" fill="#C49E00"/>
<g opacity="0.4">
<path d="M164.679 147.098L141.866 166.274H164.679V147.098Z" fill="black"/>
</g>
<path d="M279.058 232.929H151.319V331.618H279.058V232.929Z" fill="#371300"/>
<path opacity="0.3" d="M279.058 232.929H151.319V331.618H279.058V232.929Z" fill="black"/>
<path d="M247.046 330.92C246.935 330.92 246.84 308.926 246.84 281.797C246.84 254.669 246.935 232.667 247.046 232.667C247.157 232.667 247.252 254.661 247.252 281.797C247.252 308.934 247.157 330.92 247.046 330.92Z" fill="#263238"/>
<path d="M268.226 309.156H258.432V320.245H268.226V309.156Z" fill="#F5F5F5"/>
<path d="M204.796 233.183H190.288V254.24H204.796V233.183Z" fill="#263238"/>
<path d="M204.796 310.268H190.288V331.325H204.796V310.268Z" fill="#263238"/>
<path d="M277.94 232.929H277.608H276.649L272.964 232.969L259.391 233.032L214.63 233.135L169.853 233.08L156.287 233.016L152.603 232.977L156.287 232.937L169.853 232.874L214.63 232.81L259.391 232.874L272.964 232.937L276.649 232.977H277.608L277.94 232.929Z" fill="#263238"/>
<path d="M59.0238 62.0679L45.1098 58.6391H45.2128C41.6201 60.9282 37.4657 62.178 33.2084 62.2504C30.688 62.2619 28.1801 61.8954 25.768 61.163C21.5273 59.7991 17.7651 57.2477 14.926 53.8102C12.0868 50.3727 10.2894 46.1929 9.74623 41.7648C9.31961 38.4159 9.63367 35.0139 10.6662 31.8002C11.6986 28.5864 13.4243 25.6395 15.7207 23.1683C16.9279 21.8401 18.2808 20.6526 19.7539 19.6284C20.4987 19.1601 21.2436 18.6759 22.0201 18.2711L23.2007 17.6997L23.7871 17.4139L24.4051 17.1917C27.5868 15.9563 30.9999 15.4334 34.4048 15.6598C38.9681 15.9566 43.3415 17.5998 46.9739 20.3824C50.6063 23.1649 53.3351 26.9623 54.8164 31.2958C55.6393 33.72 56.0726 36.2598 56.1 38.8202C56.1198 43.0753 54.9654 47.2532 52.7641 50.8925V50.7655C56.6309 57.758 58.5801 61.29 59.0159 62.0679C58.5643 61.2742 56.5437 57.8057 52.5422 50.8845V50.821V50.7575C54.6645 47.1535 55.7606 43.036 55.7117 38.8519C55.675 36.3325 55.2363 33.8352 54.4122 31.4546C52.9471 27.2097 50.2642 23.492 46.6997 20.7672C43.1352 18.0424 38.8474 16.4314 34.3732 16.1361C31.0353 15.9181 27.6902 16.4328 24.5715 17.6441L23.9693 17.8584L23.3909 18.1441L22.234 18.6997C21.4416 19.1045 20.7444 19.5728 20.0075 20.0332C18.5628 21.0299 17.234 22.1853 16.0456 23.4778C13.7911 25.9037 12.0966 28.7964 11.082 31.951C10.0674 35.1057 9.75742 38.4452 10.1741 41.7331C10.9087 47.7567 13.994 53.2442 18.7555 56.9961C20.8843 58.6857 23.3002 59.9763 25.8869 60.8059C28.2556 61.5394 30.7211 61.9113 33.2004 61.9091C37.4067 61.864 41.5192 60.6584 45.086 58.4247H45.1336H45.2207L59.0238 62.0679Z" fill="#263238"/>
<path d="M30.958 28.5973L31.6632 40.2647C31.6914 40.7249 31.8866 41.1589 32.212 41.485C32.5375 41.811 32.9708 42.0065 33.4302 42.0347C33.9136 42.0621 34.3891 41.9029 34.759 41.59C35.1289 41.277 35.3651 40.834 35.419 40.3521L36.7106 28.6608C36.7331 28.4516 36.711 28.24 36.6456 28.0401C36.5803 27.8401 36.4733 27.6564 36.3316 27.501C36.19 27.3457 36.0171 27.2222 35.8242 27.1389C35.6314 27.0556 35.423 27.0143 35.213 27.0178H32.3843C32.1858 27.0237 31.9905 27.0698 31.8102 27.1531C31.63 27.2365 31.4684 27.3556 31.3351 27.5031C31.2019 27.6506 31.0999 27.8236 31.035 28.0116C30.9702 28.1996 30.944 28.3988 30.958 28.5973Z" fill="#371300"/>
<path d="M36.5047 48.5511C36.3274 49.0841 35.9963 49.5524 35.5534 49.897C35.1104 50.2416 34.5754 50.4469 34.016 50.487C33.4565 50.5271 32.8978 50.4002 32.4104 50.1223C31.9229 49.8444 31.5287 49.428 31.2774 48.9257C31.0261 48.4235 30.9292 47.8579 30.9987 47.3004C31.0682 46.7429 31.3012 46.2186 31.6681 45.7938C32.0351 45.3689 32.5195 45.0625 33.0602 44.9133C33.6009 44.7641 34.1736 44.7788 34.706 44.9556C35.06 45.0731 35.3873 45.2594 35.6694 45.5038C35.9514 45.7481 36.1825 46.0458 36.3496 46.3798C36.5167 46.7137 36.6163 47.0774 36.643 47.45C36.6696 47.8225 36.6226 48.1967 36.5047 48.5511Z" fill="#371300"/>
</g>
<defs>
<clipPath id="clip0_767_2538">
<rect width="359" height="338" fill="white"/>
</clipPath>
</defs>
</svg>
