<svg width="245" height="372" viewBox="0 0 245 372" fill="none" xmlns="http://www.w3.org/2000/svg">
<g clip-path="url(#clip0_579_3139)">
<path d="M180.833 60.1118C180.138 60.1118 179.545 59.4882 179.48 58.6542C178.289 43.852 174.206 29.7906 167.989 19.0553C162.484 9.54534 155.927 3.86992 150.45 3.86992H150.432C130.48 3.9156 126.306 58.0823 126.266 58.6383C126.203 59.526 125.546 60.1833 124.792 60.1058C124.038 60.0284 123.489 59.2499 123.552 58.3643C123.723 56.0091 127.996 0.698603 150.426 0.646973H150.45C156.921 0.646973 164.138 6.69175 170.237 17.2344C176.71 28.4124 180.95 43.014 182.192 58.3404C182.261 59.2261 181.713 60.0125 180.964 60.0979C180.92 60.1071 180.876 60.1118 180.833 60.1118Z" fill="black"/>
<path d="M97.7164 171.613L123.979 187.338L139.891 129.583L113.673 52.1548L106.237 54.3114L94.9568 165.516C94.7009 168.03 95.804 170.467 97.7164 171.613Z" fill="#9E9E9E"/>
<path d="M139.891 129.583L113.673 52.1548L109.286 53.4257C108.787 61.766 108.811 70.1294 109.36 78.4666C111.125 104.824 116.954 112.172 114.127 130.556C111.776 145.847 106.64 147.924 107.09 158.21C107.578 169.416 114.186 178.799 122.043 186.178L123.979 187.338L139.891 129.583Z" fill="#9E9E9E"/>
<path d="M113.673 52.1548H211.598L244.007 175.9L123.979 187.338L113.673 52.1548Z" fill="url(#paint0_linear_579_3139)"/>
<path d="M144.018 67.5051C146.12 67.5051 147.825 65.4896 147.825 63.0033C147.825 60.517 146.12 58.5015 144.018 58.5015C141.915 58.5015 140.211 60.517 140.211 63.0033C140.211 65.4896 141.915 67.5051 144.018 67.5051Z" fill="url(#paint1_linear_579_3139)"/>
<path d="M143.312 95.1192C145.446 86.8643 151.745 81.0538 159.466 81.0856C169.318 81.1253 177.752 90.6929 178.511 102.401C177.752 90.6849 184.796 81.1888 194.047 81.2266C200.991 81.2544 207.153 86.6796 209.918 94.2574C220.093 120.758 181.509 148.563 181.509 148.563C181.509 148.563 135.009 124.88 143.312 95.1192Z" fill="white"/>
<path d="M144.008 62.7606C143.391 62.7606 142.832 62.2582 142.683 61.5155C142.405 60.1135 135.971 26.9626 145.044 10.679C147.642 6.01439 151.277 3.16675 155.84 2.21555C179.291 -2.6715 193.732 56.9005 194.327 59.4384C194.525 60.2962 194.109 61.1859 193.385 61.4242C192.66 61.6625 191.909 61.164 191.704 60.3082C191.563 59.7124 177.351 0.992301 156.308 5.38688C152.455 6.1812 149.513 8.50061 147.311 12.4504C138.88 27.5762 145.264 60.4452 145.327 60.7748C145.5 61.6406 145.046 62.5084 144.314 62.711C144.214 62.7412 144.112 62.7579 144.008 62.7606Z" fill="black"/>
<g style="mix-blend-mode:multiply" opacity="0.3">
<path d="M211.598 52.1548H163.017C160.623 55.0362 158.923 58.3584 158.76 62.0838C157.996 79.5906 192.028 85.3435 195.309 109.346C197.676 126.654 183.108 146.627 170.114 155.526C156.425 164.903 147.141 160.155 137.878 170.562C133.809 175.129 131.331 180.855 129.857 186.782L244.011 175.904L211.598 52.1548Z" fill="url(#paint2_linear_579_3139)"/>
</g>
<path d="M193.66 67.0881C195.763 67.0881 197.467 65.0726 197.467 62.5863C197.467 60.1 195.763 58.0845 193.66 58.0845C191.558 58.0845 189.853 60.1 189.853 62.5863C189.853 65.0726 191.558 67.0881 193.66 67.0881Z" fill="black"/>
<path d="M71.194 369.045C71.1992 368.856 71.1799 368.667 71.1365 368.483C68.3333 357.363 54.4244 350.434 54.4244 350.434L48.9132 350.865C45.739 360.667 46.1516 366.678 46.6595 369.357C46.6754 369.43 46.6972 369.502 46.7171 369.575C51.2641 369.984 60.622 370.248 71.194 369.045Z" fill="black"/>
<path d="M46.717 369.577C46.8177 370.004 47.0344 370.396 47.3432 370.708C47.6519 371.019 48.0408 371.24 48.4668 371.344C54.9342 372.707 65.2126 371.611 69.5295 371.047C70.4818 370.921 71.1781 370.04 71.194 369.045C60.622 370.248 51.2641 369.984 46.717 369.577Z" fill="#212121"/>
<path d="M24.8905 172.177C21.4862 175.815 16.475 178.956 12.9476 180.914C18.2148 187.432 25.3428 193.957 34.7702 200.345L37.4702 206.412L46.1219 196.032C46.1219 196.032 30.606 188.299 24.8905 172.177Z" fill="url(#paint3_linear_579_3139)"/>
<path d="M46.6972 342.649L49.0302 353.897C49.096 354.284 49.2838 354.64 49.5662 354.912C49.8486 355.184 50.2107 355.359 50.5995 355.41C51.8031 355.533 53.017 355.513 54.2161 355.353C55.4203 355.176 56.2594 353.951 56.0452 352.636L54.4224 342.649H46.6972Z" fill="url(#paint4_linear_579_3139)"/>
<path d="M95.056 369.464C88.9675 369.293 85.8191 368.576 84.1923 367.909C84.1923 368.517 84.1923 369.132 84.2122 369.772C84.232 370.453 84.7379 370.999 85.3588 370.995L118.781 370.779C119.848 370.779 120.471 369.534 120.009 368.555C115.635 368.918 104.473 369.73 95.056 369.464Z" fill="#212121"/>
<path d="M120.017 368.554C119.981 368.466 119.937 368.382 119.884 368.302C116.932 364.174 109.415 355.952 94.56 352.388L87.434 352.164C87.434 352.164 84.2598 357.684 84.2003 367.909C85.827 368.576 88.9754 369.299 95.0639 369.464C104.473 369.73 115.635 368.918 120.017 368.554Z" fill="black"/>
<path d="M86.1127 341.351C86.1901 341.883 87.1682 349.965 87.5451 353.099C87.5748 353.445 87.7201 353.772 87.9575 354.026C88.1949 354.281 88.5108 354.448 88.8544 354.501C90.0666 354.646 92.0286 354.777 93.7486 354.425C94.6751 354.227 95.3476 353.343 95.3476 352.306V339.621L86.1127 341.351Z" fill="url(#paint5_linear_579_3139)"/>
<path d="M80.3952 193.871C80.3952 193.871 97.5835 259.258 97.272 341.539C97.2706 342.268 97.0192 342.974 96.5598 343.539C96.1004 344.104 95.4609 344.494 94.7485 344.643C92.5861 345.098 89.41 345.636 86.7793 345.565C86.0979 345.542 85.4453 345.284 84.9325 344.835C84.4196 344.385 84.0782 343.771 83.9662 343.098C81.5558 328.951 67.7243 249.251 59.8444 236.312C59.8444 236.312 54.6605 307.296 56.317 344.123C56.3376 344.564 56.1905 344.996 55.9052 345.333C55.6199 345.67 55.2176 345.886 54.7795 345.938C52.6527 346.167 50.5071 346.161 48.3816 345.92C47.8634 345.868 47.3774 345.645 47.0007 345.285C46.624 344.925 46.3782 344.45 46.3025 343.934C44.5864 331.96 34.7048 260.689 35.1253 209.351C35.1492 206.455 42.7751 193.861 42.7751 193.861L80.3952 193.871Z" fill="#3D0B00"/>
<path d="M136.6 53.0684C129.061 67.1258 116.531 81.4653 96.1551 85.3138C77.342 88.8644 43.5607 93.257 29.9831 94.9608C25.9009 95.4762 22.1546 97.4885 19.4686 100.608C8.79541 112.97 -14.6202 146.814 12.9417 180.916C16.469 178.956 21.4723 175.815 24.8846 172.179C21.8354 163.574 21.5854 152.579 27.9774 139.095C28.1945 140.164 28.4667 141.222 28.7928 142.263C37.6012 170.195 38.0714 193.439 38.0515 198.796C38.0495 199.151 38.1541 199.499 38.3519 199.793C38.5497 200.088 38.8314 200.316 39.1605 200.449C50.7582 205.107 73.0728 202.327 80.5738 201.211C81.2285 201.107 81.8159 200.749 82.2085 200.215C82.6011 199.68 82.7672 199.012 82.6707 198.355C78.9867 171.69 97.8632 127.832 102.847 116.846C103.574 115.239 104.86 113.951 106.465 113.222C134.964 100.315 147.353 80.4565 152.374 62.5585C148.025 56.7202 141.296 54.1705 136.6 53.0684Z" fill="#FFBE00"/>
<path d="M152.374 62.5582C158.462 40.8693 153.727 22.0757 153.727 22.0757H147.232C147.232 22.0757 145.01 37.3922 136.596 53.0681C141.296 54.1702 148.025 56.72 152.374 62.5582Z" fill="url(#paint6_linear_579_3139)"/>
<path d="M149.521 25.5333C149.521 25.5333 139.635 12.7189 142.847 6.04266C146.059 -0.633599 157.07 0.0157558 157.07 0.0157558L158.613 5.24834C159.02 6.62466 158.965 8.09634 158.456 9.43838L152.374 25.5234L149.521 25.5333Z" fill="url(#paint7_linear_579_3139)"/>
<path d="M50.0222 69.3123L47.7844 92.1609C47.7844 92.1609 60.6259 96.0313 69.966 89.4364L63.3994 68.6709L50.0222 69.3123Z" fill="url(#paint8_linear_579_3139)"/>
<path d="M64.9191 43.2644C65.2286 43.5563 77.963 68.5873 77.963 68.5873L63.5284 75.5615L47.9391 53.6382C47.9391 53.6382 59.7432 38.3952 64.9191 43.2644Z" fill="url(#paint9_linear_579_3139)"/>
<path d="M54.3252 54.2438C54.1978 54.5723 54.1472 54.9256 54.1771 55.2766C54.207 55.6277 54.3167 55.9672 54.4978 56.2694L61.6952 68.2854C61.8037 68.4675 61.9373 68.6333 62.092 68.7779C62.9491 69.5722 65.8812 71.8976 68.1488 68.7362C70.0791 66.0415 71.8923 63.593 73.8345 62.5802C74.1054 62.442 74.4009 62.3587 74.704 62.3353C75.0071 62.3119 75.3119 62.3488 75.6007 62.4439C75.8895 62.5389 76.1567 62.6903 76.3868 62.8892C76.6168 63.0882 76.8053 63.3307 76.9413 63.6029C78.1316 65.9561 80.423 70.7518 81.8672 75.3013C82.039 75.8519 81.9971 76.4471 81.7501 76.9682C81.503 77.4894 81.0688 77.8982 80.5341 78.1132C77.6118 79.3047 71.8348 81.4434 66.7085 82.1503C66.2951 82.2087 65.8736 82.1534 65.4892 81.9904C65.1048 81.8274 64.7719 81.5628 64.5262 81.2249C62.3221 78.1966 56.1107 69.745 53.9899 67.6301C52.0199 65.6642 48.3835 66.4069 46.7428 66.8775C46.4362 66.9665 46.1145 66.9909 45.798 66.9492C45.4814 66.9075 45.177 66.8006 44.9038 66.6353C43.2413 65.6423 40.3409 63.1363 42.9953 58.9105C43.3076 58.398 43.4082 57.7839 43.2756 57.1985C43.143 56.6131 42.7877 56.1024 42.2851 55.7749C40.4302 54.5517 38.4146 52.2581 40.3349 48.5426C42.2771 44.7696 45.7469 44.4419 48.1097 44.7319C48.6219 44.8024 49.1431 44.7051 49.5954 44.4546C50.0478 44.204 50.407 43.8136 50.6193 43.3418C50.718 43.0947 50.88 42.878 51.0889 42.7134C51.2979 42.5489 51.5465 42.4423 51.8096 42.4045C52.102 42.3535 52.3813 42.2446 52.6311 42.0843C52.881 41.924 53.0965 41.7154 53.2649 41.4708C53.4333 41.2262 53.5514 40.9505 53.6122 40.6597C53.673 40.369 53.6753 40.069 53.6189 39.7773C53.2023 37.6485 53.5158 34.8843 56.9121 33.0256C63.1395 29.5981 68.5932 35.1822 69.9799 39.8964C71.3666 44.6107 64.4052 47.9429 60.0248 48.4989C56.7991 48.8921 55.0334 52.399 54.3252 54.2438Z" fill="black"/>
<path d="M56.6919 72.0408C56.6919 72.0408 53.9145 63.9308 50.3793 64.2287C46.844 64.5266 44.0448 68.0613 48.4371 72.0349C53.9006 76.9775 56.6919 72.0408 56.6919 72.0408Z" fill="url(#paint10_linear_579_3139)"/>
<path d="M26.8109 137.004C22.1409 124.206 23.8351 108.75 23.855 108.597L25.1425 108.744C25.1246 108.897 23.4661 124.055 28.031 136.561L26.8109 137.004Z" fill="#CC9200"/>
<path d="M59.2135 234.646C59.0699 234.646 58.9305 234.598 58.8171 234.51C58.7036 234.422 58.6226 234.299 58.5866 234.159C57.1602 228.657 46.485 222.61 46.3798 222.548C46.3028 222.508 46.2346 222.453 46.1793 222.386C46.1239 222.319 46.0827 222.241 46.0579 222.158C46.0331 222.075 46.0252 221.987 46.0349 221.901C46.0445 221.814 46.0714 221.731 46.1139 221.655C46.1565 221.579 46.2138 221.512 46.2825 221.459C46.3512 221.406 46.4299 221.367 46.5139 221.345C46.598 221.323 46.6856 221.317 46.7716 221.33C46.8576 221.342 46.9403 221.372 47.0147 221.417C47.4729 221.675 58.2771 227.797 59.8404 233.834C59.8627 233.916 59.8684 234.003 59.8571 234.088C59.8458 234.173 59.8178 234.254 59.7746 234.328C59.7313 234.402 59.6739 234.467 59.6055 234.518C59.5371 234.57 59.4591 234.607 59.3762 234.628C59.3229 234.641 59.2682 234.647 59.2135 234.646Z" fill="black"/>
</g>
<defs>
<linearGradient id="paint0_linear_579_3139" x1="101.184" y1="68.3788" x2="242.84" y2="177.417" gradientUnits="userSpaceOnUse">
<stop stop-color="#000D2A"/>
<stop offset="1" stop-color="#BFDCFF"/>
</linearGradient>
<linearGradient id="paint1_linear_579_3139" x1="138.761" y1="61.0492" x2="140.332" y2="61.6321" gradientUnits="userSpaceOnUse">
<stop stop-color="#444B8C"/>
<stop offset="1" stop-color="#26264F"/>
</linearGradient>
<linearGradient id="paint2_linear_579_3139" x1="138.296" y1="94.4563" x2="240.196" y2="172.893" gradientUnits="userSpaceOnUse">
<stop stop-color="#FFC444"/>
<stop offset="1" stop-color="#F36F56"/>
</linearGradient>
<linearGradient id="paint3_linear_579_3139" x1="12.9476" y1="189.294" x2="46.1298" y2="189.294" gradientUnits="userSpaceOnUse">
<stop stop-color="#F9B776"/>
<stop offset="1" stop-color="#F47960"/>
</linearGradient>
<linearGradient id="paint4_linear_579_3139" x1="53.2321" y1="331.823" x2="48.4696" y2="373.341" gradientUnits="userSpaceOnUse">
<stop stop-color="#F9B776"/>
<stop offset="1" stop-color="#F47960"/>
</linearGradient>
<linearGradient id="paint5_linear_579_3139" x1="91.9473" y1="336.263" x2="87.1848" y2="377.781" gradientUnits="userSpaceOnUse">
<stop stop-color="#F9B776"/>
<stop offset="1" stop-color="#F47960"/>
</linearGradient>
<linearGradient id="paint6_linear_579_3139" x1="168.086" y1="16.4976" x2="134.956" y2="63.197" gradientUnits="userSpaceOnUse">
<stop stop-color="#F9B776"/>
<stop offset="1" stop-color="#F47960"/>
</linearGradient>
<linearGradient id="paint7_linear_579_3139" x1="154.078" y1="6.55897" x2="120.946" y2="53.2584" gradientUnits="userSpaceOnUse">
<stop stop-color="#F9B776"/>
<stop offset="1" stop-color="#F47960"/>
</linearGradient>
<linearGradient id="paint8_linear_579_3139" x1="63.7307" y1="63.2" x2="45.5507" y2="141.689" gradientUnits="userSpaceOnUse">
<stop stop-color="#F9B776"/>
<stop offset="1" stop-color="#F47960"/>
</linearGradient>
<linearGradient id="paint9_linear_579_3139" x1="60.7706" y1="48.0099" x2="69.7328" y2="100.694" gradientUnits="userSpaceOnUse">
<stop stop-color="#F9B776"/>
<stop offset="1" stop-color="#F47960"/>
</linearGradient>
<linearGradient id="paint10_linear_579_3139" x1="53.0101" y1="105.519" x2="51.4162" y2="68.5195" gradientUnits="userSpaceOnUse">
<stop stop-color="#F9B776"/>
<stop offset="1" stop-color="#F47960"/>
</linearGradient>
<clipPath id="clip0_579_3139">
<rect width="244" height="372" fill="white" transform="translate(0.00683594)"/>
</clipPath>
</defs>
</svg>
