<svg width="306" height="394" viewBox="0 0 306 394" fill="none" xmlns="http://www.w3.org/2000/svg">
<g clip-path="url(#clip0_569_2388)">
<path d="M297.63 369.087C297.63 369.087 300.226 373.17 300.875 384.605C300.891 384.858 300.855 385.112 300.769 385.35C300.683 385.589 300.55 385.808 300.376 385.993C300.203 386.179 299.993 386.327 299.76 386.428C299.527 386.53 299.276 386.583 299.022 386.584H278.725C278.535 386.584 278.348 386.539 278.18 386.452C278.011 386.366 277.865 386.241 277.754 386.087C277.644 385.934 277.571 385.756 277.542 385.569C277.513 385.382 277.529 385.191 277.589 385.011C278.779 381.497 282.375 372.929 290.4 368.032L297.63 369.087Z" fill="black"/>
<path d="M298.514 361.338L297.365 370.949C297.32 371.353 297.139 371.73 296.852 372.018C296.565 372.306 296.189 372.489 295.785 372.537C294.359 372.715 292.915 372.702 291.493 372.497C290.802 372.374 290.177 372.011 289.728 371.472C289.279 370.933 289.036 370.254 289.041 369.553V360.273L298.514 361.338Z" fill="#FFBE9D"/>
<path d="M247.409 368.027C247.409 368.027 251.296 374.056 251.213 382.33C251.193 383.269 250.803 384.163 250.129 384.818C249.454 385.473 248.549 385.837 247.608 385.832H216.08C215.759 385.832 215.446 385.731 215.187 385.541C214.927 385.352 214.735 385.085 214.639 384.779C214.542 384.473 214.545 384.145 214.649 383.841C214.752 383.538 214.95 383.275 215.213 383.091C221.178 378.911 232.904 371.097 241.383 368.027H247.409Z" fill="black"/>
<path d="M250.656 357.658L248.208 369.535C248.146 369.852 248.021 370.154 247.841 370.423C247.661 370.692 247.43 370.922 247.16 371.101C246.89 371.28 246.588 371.404 246.27 371.466C245.952 371.528 245.625 371.526 245.308 371.461C244.325 371.235 243.388 370.843 242.537 370.303C242.065 370.005 241.693 369.572 241.468 369.061C241.243 368.55 241.176 367.984 241.275 367.435L243.808 353.057L250.656 357.658Z" fill="#FFBE9D"/>
<path d="M294.014 192.639C294.014 192.639 302.53 200.132 304.132 209.148C305.735 218.164 299.592 364.703 299.592 364.703C299.592 364.703 291.078 366.118 286.689 363.463C286.689 363.463 281.483 268.36 277.526 246.384C277.526 246.384 256.776 344.897 251.027 362.699C251.027 362.699 242.825 363.694 240.181 362.137C240.181 362.137 245.616 234.435 252.439 211.73L294.014 192.639Z" fill="#371300"/>
<path d="M277.769 242.751C277.736 242.751 277.702 242.747 277.67 242.738C277.57 242.712 277.485 242.648 277.433 242.559C277.381 242.47 277.367 242.365 277.392 242.265L281.008 228.409C281.034 228.314 281.093 228.231 281.176 228.178L288.989 223.175C289.032 223.144 289.08 223.123 289.132 223.111C289.184 223.1 289.237 223.099 289.289 223.109C289.341 223.118 289.391 223.139 289.435 223.168C289.478 223.198 289.516 223.236 289.544 223.281C289.573 223.325 289.592 223.375 289.601 223.427C289.61 223.479 289.607 223.532 289.595 223.584C289.582 223.635 289.559 223.683 289.527 223.725C289.495 223.767 289.455 223.803 289.409 223.829L281.735 228.758L278.155 242.461C278.133 242.546 278.083 242.621 278.013 242.674C277.943 242.727 277.857 242.754 277.769 242.751Z" fill="black"/>
<path d="M209.991 107.959C245.834 104.988 255.202 112.393 255.202 112.393L237.976 139.539C237.976 139.539 202.757 138.845 177.522 119.427C182.245 114.349 185.526 108.738 187.627 104.369C194.137 107.068 201.632 108.652 209.991 107.959Z" fill="#FCC447"/>
<path d="M153.863 55.4353C153.874 55.1904 153.966 54.9562 154.126 54.7701C154.286 54.584 154.504 54.4567 154.745 54.4084C154.985 54.3602 155.236 54.3938 155.455 54.5039C155.674 54.6141 155.851 54.7943 155.955 55.016L160.529 64.7588C161.414 66.6411 161.697 68.7497 161.34 70.7982L159.737 76.4686C159.498 77.8343 159.553 79.2352 159.898 80.5783C160.242 81.9214 160.869 83.176 161.736 84.2588C165.938 89.5045 174.895 99.0836 187.629 104.369C185.527 108.738 182.247 114.349 177.524 119.428C168.264 112.303 160.347 102.661 156.008 89.6035C154.997 89.2936 154.118 88.6591 153.506 87.7987C152.894 86.9382 152.584 85.9 152.624 84.8455L153.863 55.4353Z" fill="#FFBE9D"/>
<path d="M198.194 123.698C210.813 110.124 234.847 103.991 248.761 101.473C251.711 100.932 254.758 101.445 257.367 102.923C259.975 104.4 261.98 106.748 263.027 109.553C269.29 126.358 286.321 170.078 289.621 177.593C292.325 183.756 295.159 189.777 296.954 193.542C297.473 194.621 297.541 195.86 297.145 196.989C296.749 198.118 295.921 199.044 294.842 199.563C283.136 205.196 262.068 211.57 253.528 214.057C253.09 214.184 252.63 214.207 252.182 214.126C251.734 214.044 251.312 213.859 250.948 213.586C250.584 213.313 250.289 212.959 250.086 212.552C249.883 212.145 249.777 211.697 249.778 211.243C249.778 209.585 249.327 207.959 248.473 206.539L216.129 152.732C195.968 175.046 178.313 177.089 164.754 172.203C166.997 165.333 168.502 158.244 169.242 151.056C189.275 147.628 198.194 123.698 198.194 123.698Z" fill="#FFBE10"/>
<path d="M136.121 147.31L139.737 142.496C151.443 150.522 161.228 152.424 169.239 151.055C168.498 158.243 166.994 165.331 164.75 172.201C146.883 165.768 136.121 147.31 136.121 147.31Z" fill="#FFBE9D"/>
<path d="M138.67 147.396L118.3 148.19L99.5424 137.731C102.236 136.046 117.46 139.491 117.46 139.491C117.46 139.491 133.379 137.086 137.684 137.081C141.26 137.081 140.748 142.213 140.474 143.954C140.419 144.313 140.372 144.522 140.372 144.522L138.67 147.396Z" fill="#FFBE9D"/>
<path d="M229.621 76.5441L240.37 102.728C240.37 102.728 228.017 111.261 218.084 110.449L212.72 86.9059L229.621 76.5441Z" fill="#FFBE9D"/>
<path d="M211.465 58.6943C211.22 59.0416 203.689 86.1969 203.689 86.1969L219.312 90.1559L230.279 65.4768C230.279 65.4768 215.579 52.8655 211.465 58.6943Z" fill="#FFBE9D"/>
<path d="M224.397 69.2308L219.642 82.6734C219.582 82.8445 219.498 83.0067 219.395 83.1557C218.75 84.0699 216.298 87.0553 213.39 84.3668C210.753 81.9266 208.309 79.7384 206.052 79.3407C205.563 79.2521 205.059 79.3498 204.64 79.6144C204.22 79.8789 203.914 80.2911 203.784 80.7695C203.101 83.2367 201.663 88.8261 201.156 93.8721C201.108 94.3669 201.248 94.8618 201.549 95.2582C201.849 95.6547 202.288 95.9237 202.778 96.0117C205.828 96.5912 212.3 97.6313 217.701 97.2516C218.059 97.2277 218.405 97.1076 218.701 96.9039C218.997 96.7003 219.232 96.4206 219.382 96.0945C220.869 92.8553 225.43 82.9955 227.134 80.4384C228.725 78.045 232.628 78.1134 234.267 78.2573C234.531 78.2813 234.798 78.2513 235.051 78.169C235.303 78.0867 235.536 77.9539 235.736 77.7786C237.167 76.519 239.893 73.3265 236.058 69.5007C235.868 69.3116 235.718 69.0861 235.617 68.8379C235.516 68.5896 235.467 68.3235 235.471 68.0556C235.475 67.7877 235.534 67.5234 235.643 67.2785C235.752 67.0336 235.909 66.8132 236.105 66.6304C237.751 65.0864 239.512 62.3439 236.769 58.9463C233.982 55.4911 230.301 56.04 228.046 56.8624C227.605 57.0192 227.123 57.0165 226.684 56.8547C226.245 56.6928 225.877 56.3822 225.645 55.977C225.362 55.5019 224.87 55.1438 224.022 55.2158C223.749 55.2345 223.475 55.1959 223.218 55.1026C222.961 55.0094 222.726 54.8634 222.528 54.6741C222.331 54.4848 222.175 54.2564 222.072 54.0035C221.968 53.7506 221.918 53.4789 221.926 53.2057C221.965 50.9923 221.172 48.1958 217.326 47.0008C210.501 44.8792 206.245 51.4619 205.823 56.3729C205.401 61.2839 212.933 63.1644 217.36 62.8333C220.727 62.5814 223.226 65.9124 224.231 67.523C224.386 67.777 224.481 68.0624 224.509 68.358C224.538 68.6536 224.5 68.9519 224.397 69.2308Z" fill="black"/>
<path d="M225.344 85.3241C225.344 85.3241 226.445 76.7978 229.998 76.3803C233.551 75.9628 237.01 78.8781 233.477 83.6631C229.084 89.616 225.344 85.3241 225.344 85.3241Z" fill="#F2B499"/>
<path d="M152.539 58.1886H46.5418V139.804H152.539V58.1886Z" fill="#F0D9A2"/>
<path d="M46.5418 58.1886L66.1201 76.4181H170.32L152.539 58.1886H46.5418Z" fill="#D19E00"/>
<path d="M46.5418 58.1886L152.536 57.9961H152.617L152.673 58.0537L170.274 76.0942L170.454 76.2742L170.78 76.6089H170.313L66.1129 76.5315H66.066L66.0317 76.4991L46.5418 58.1886L66.1994 76.3318L66.1201 76.2994L170.32 76.222L170.178 76.5549L169.998 76.375L152.402 58.3308L152.541 58.3884L46.5418 58.1886Z" fill="#1A2E35"/>
<path d="M78.3779 95.8228C77.8117 95.8442 77.2765 96.0866 76.8874 96.4977C76.4984 96.9089 76.2864 97.4561 76.2971 98.0216C76.3079 98.5872 76.5405 99.1259 76.9449 99.522C77.3493 99.9182 77.8933 100.14 78.4599 100.14C79.0265 100.14 79.5705 99.9182 79.9749 99.522C80.3793 99.1259 80.6119 98.5872 80.6226 98.0216C80.6334 97.4561 80.4214 96.9089 80.0324 96.4977C79.6433 96.0866 79.1081 95.8442 78.5419 95.8228" fill="#1A2E35"/>
<path d="M103.407 95.8228C102.841 95.844 102.306 96.0862 101.916 96.4973C101.527 96.9084 101.315 97.4556 101.326 98.0212C101.336 98.5868 101.569 99.1257 101.973 99.5219C102.378 99.9182 102.922 100.14 103.488 100.14C104.055 100.14 104.599 99.9182 105.004 99.5219C105.408 99.1257 105.64 98.5868 105.651 98.0212C105.662 97.4556 105.45 96.9084 105.06 96.4973C104.671 96.0862 104.136 95.844 103.569 95.8228" fill="#1A2E35"/>
<path d="M103.568 115.359C103.454 115.405 103.286 113.316 101.469 110.667C100.406 109.133 99.0441 107.828 97.464 106.832C95.5558 105.568 93.3302 104.863 91.0407 104.8C88.7511 104.736 86.4897 105.316 84.514 106.472C82.8821 107.381 81.4506 108.609 80.3049 110.082C78.3454 112.629 78.0624 114.705 77.9525 114.653C77.9562 114.531 77.9768 114.41 78.0137 114.293C78.0848 113.954 78.1776 113.619 78.2913 113.291C78.7056 112.077 79.3104 110.937 80.0832 109.913C81.2233 108.379 82.6717 107.099 84.3355 106.156C86.3609 104.944 88.6903 104.335 91.0505 104.399C93.4107 104.462 95.7037 105.197 97.6605 106.516C99.2695 107.549 100.645 108.906 101.7 110.5C102.416 111.565 102.957 112.736 103.303 113.971C103.399 114.304 103.473 114.643 103.524 114.986C103.557 115.108 103.571 115.233 103.568 115.359Z" fill="#1A2E35"/>
<path opacity="0.5" d="M46.7816 59.0865L65.527 82.8137H152.539V76.4181H66.1201L46.7816 59.0865Z" fill="black"/>
<path d="M131.636 139.617C131.528 139.617 131.44 125.42 131.44 107.914C131.44 90.4079 131.528 76.2058 131.636 76.2058C131.744 76.2058 131.835 90.3989 131.835 107.914C131.835 125.429 131.746 139.617 131.636 139.617Z" fill="#1A2E35"/>
<path d="M148.28 121.115H138.937V131.659H148.28V121.115Z" fill="#F5F5F5"/>
<path d="M46.5418 58.1886L24.7806 76.4181H46.5418V58.1886Z" fill="#D19E00"/>
<g opacity="0.4">
<path d="M46.5418 58.1886L24.7806 76.4181H46.5418V58.1886Z" fill="black"/>
</g>
<path d="M133.379 54.1864L117.091 50.1914L117.212 50.1716C113.002 52.8397 108.137 54.2963 103.151 54.3808C100.201 54.3951 97.2655 53.9669 94.4428 53.1103C91.3646 52.1315 88.488 50.6076 85.9507 48.6114C80.6744 44.5372 76.5662 38.0066 75.6757 30.4899C75.1783 26.5807 75.5473 22.6101 76.7565 18.859C77.9657 15.1079 79.9857 11.6677 82.6735 8.78183C84.0705 7.20182 85.7145 5.88995 87.391 4.67705C88.2724 4.13718 89.1395 3.57032 90.048 3.09344L91.4324 2.4276L92.1228 2.09648L92.8439 1.83555C96.5732 0.397675 100.572 -0.210326 104.561 0.0539895C109.901 0.398534 115.02 2.31282 119.272 5.55576C123.525 8.79871 126.721 13.2253 128.458 18.2781C129.425 21.1061 129.933 24.0701 129.963 27.0581C129.986 32.0222 128.635 36.8962 126.061 41.1432V40.9957C130.589 49.1549 132.878 53.2758 133.383 54.1864L125.812 41.1396L125.769 41.0659L125.814 40.9921C128.319 36.7785 129.619 31.9597 129.572 27.0599C129.527 24.1182 129.013 21.2024 128.049 18.422C126.323 13.4662 123.17 9.12942 118.984 5.95559C114.799 2.78176 109.768 0.91216 104.523 0.581259C100.613 0.32843 96.6947 0.928375 93.0404 2.33942L92.3373 2.60576L91.6614 2.93148L90.2968 3.57572C89.4081 4.0436 88.5573 4.59787 87.6938 5.12873C86.0498 6.31824 84.4383 7.60312 83.0701 9.15254C80.4354 11.9821 78.4544 15.3539 77.2665 19.0306C76.0786 22.7072 75.7128 26.5992 76.1949 30.4323C77.0529 37.8105 81.062 44.2223 86.2409 48.2479C88.729 50.2152 91.5503 51.7213 94.5708 52.6946C97.3482 53.5486 100.238 53.9829 103.144 53.9831C108.063 53.9246 112.872 52.5184 117.046 49.9179L117.102 49.8819L117.165 49.8981L133.379 54.1864Z" fill="#1A2E35"/>
<path d="M106.416 17.9019C106.416 15.5121 104.793 14.22 102.481 14.22C100.318 14.22 98.7511 15.334 97.1467 16.9194L92.4095 12.6004C95.1639 9.46561 99.0052 7.28455 103.562 7.28455C109.853 7.28455 114.652 10.3906 114.652 17.2973C114.652 24.4955 105.862 26.6981 106.551 33.6066H99.0305C97.8408 25.6058 106.416 22.3144 106.416 17.9019ZM97.592 42.4299C97.592 39.3706 99.802 37.0132 102.784 37.0132C105.765 37.0132 107.975 39.3706 107.975 42.4299C107.975 45.4891 105.765 47.8285 102.784 47.8285C99.802 47.8285 97.592 45.4639 97.592 42.4263V42.4299Z" fill="#371300"/>
</g>
<defs>
<clipPath id="clip0_569_2388">
<rect width="306" height="394" fill="white"/>
</clipPath>
</defs>
</svg>
