<svg width="320" height="269" viewBox="0 0 320 269" fill="none" xmlns="http://www.w3.org/2000/svg">
<path d="M317.113 269.009H6.06622C4.71357 269.009 3.41633 268.472 2.45987 267.516C1.5034 266.56 0.966064 265.263 0.966064 263.911C0.966064 263.155 1.26661 262.43 1.80158 261.895C2.33655 261.36 3.06213 261.06 3.8187 261.06H317.113C317.488 261.06 317.859 261.134 318.205 261.277C318.551 261.42 318.866 261.63 319.131 261.895C319.395 262.16 319.606 262.474 319.749 262.82C319.892 263.166 319.966 263.537 319.966 263.911V266.165C319.965 266.921 319.663 267.644 319.128 268.177C318.594 268.711 317.869 269.01 317.113 269.009Z" fill="#DCDCDC"/>
<path d="M50.6972 256.396C50.6972 258.647 50.0293 260.848 48.7779 262.72C47.5265 264.592 45.7478 266.051 43.6668 266.913C41.5858 267.774 39.296 267.999 37.0869 267.56C34.8778 267.121 32.8487 266.036 31.2561 264.444C29.6636 262.852 28.5791 260.824 28.1399 258.616C27.7007 256.407 27.9265 254.119 28.7887 252.039C29.6509 249.959 31.1109 248.181 32.9838 246.931C34.8568 245.68 37.0588 245.013 39.3112 245.013C42.3311 245.014 45.2272 246.213 47.3624 248.348C49.4977 250.482 50.6972 253.377 50.6972 256.396Z" fill="black"/>
<path d="M145.041 256.396C145.041 258.647 144.373 260.848 143.121 262.72C141.87 264.592 140.092 266.051 138.011 266.912C135.93 267.774 133.64 267.999 131.431 267.56C129.222 267.121 127.193 266.037 125.6 264.445C124.008 262.853 122.923 260.825 122.484 258.617C122.044 256.409 122.27 254.12 123.132 252.04C123.994 249.96 125.453 248.182 127.326 246.932C129.199 245.681 131.4 245.013 133.653 245.013C136.673 245.013 139.57 246.212 141.705 248.347C143.841 250.482 145.041 253.377 145.041 256.396Z" fill="black"/>
<path d="M33.7243 256.171L32.8016 256.332C31.6932 256.526 30.5533 256.272 29.6322 255.626C28.7111 254.98 28.0842 253.995 27.8894 252.887L25.6606 240.178L35.2239 240.161L37.1708 251.261C37.3646 252.368 37.1104 253.508 36.4642 254.429C35.818 255.349 34.8325 255.976 33.7243 256.171Z" fill="#FFAB00"/>
<path d="M128.066 256.171L127.143 256.332C126.594 256.428 126.032 256.416 125.488 256.294C124.945 256.173 124.43 255.946 123.974 255.626C123.518 255.307 123.13 254.9 122.831 254.43C122.532 253.96 122.329 253.436 122.233 252.887L120.004 240.178L129.567 240.161L131.512 251.261C131.707 252.369 131.453 253.508 130.806 254.429C130.16 255.35 129.174 255.976 128.066 256.171Z" fill="#FFAB00"/>
<path d="M131.052 240.905H22.0582C21.6818 240.892 21.3252 240.733 21.0637 240.462C20.8022 240.191 20.656 239.829 20.656 239.452C20.656 239.076 20.8022 238.714 21.0637 238.443C21.3252 238.172 21.6818 238.013 22.0582 237.999H131.052C139.089 237.999 143.176 228.207 137.473 222.507C131.26 216.302 123.051 212.496 114.299 211.762L84.7954 209.306C84.4115 209.273 84.0562 209.09 83.8075 208.796C83.5588 208.502 83.4369 208.121 83.4686 207.737C83.5344 206.937 84.3011 206.411 85.1054 206.477L114.551 208.868C123.989 209.657 132.844 213.76 139.544 220.452C141.221 222.127 142.363 224.262 142.826 226.586C143.289 228.911 143.052 231.32 142.144 233.509C141.237 235.699 139.7 237.57 137.729 238.887C135.758 240.203 133.44 240.906 131.069 240.905H131.052Z" fill="#020202"/>
<path d="M133.593 209.31C133.207 209.31 132.838 209.157 132.565 208.884C132.293 208.612 132.14 208.243 132.14 207.858V141.093C132.147 134.916 134.513 128.975 138.755 124.484C142.998 119.993 148.796 117.291 154.965 116.93L175.655 115.741C176.039 115.719 176.417 115.851 176.705 116.107C176.992 116.364 177.166 116.724 177.188 117.108C177.21 117.493 177.078 117.87 176.822 118.158C176.565 118.445 176.205 118.619 175.82 118.641L155.132 119.83C149.702 120.145 144.599 122.522 140.865 126.475C137.131 130.428 135.049 135.657 135.045 141.093V207.859C135.045 208.244 134.891 208.613 134.619 208.885C134.347 209.157 133.977 209.31 133.593 209.31Z" fill="#020202"/>
<path d="M135.314 148.231L135.047 147.93H36.389C36.0979 147.93 35.8103 147.994 35.5466 148.117C35.283 148.241 35.0496 148.42 34.8632 148.644C34.6767 148.867 34.5417 149.129 34.4676 149.411C34.3936 149.692 34.3823 149.986 34.4346 150.272L44.9582 208.066C45.0205 208.414 45.2038 208.729 45.4757 208.956C45.7476 209.182 46.0907 209.305 46.4446 209.304H135.047L135.314 209.005V148.231ZM43.1353 181.853H55.7523L57.4567 193.067H45.178L43.1353 181.853ZM132.142 163.391H122.37V150.842H132.142V163.391ZM122.37 193.069V181.855H132.142V193.069H122.37ZM132.142 195.135V206.405H122.37V195.135H132.142ZM122.37 179.804V165.459H132.142V179.804H122.37ZM120.312 163.4H103.535V150.842H120.318L120.312 163.4ZM120.312 165.467V179.812H103.535V165.467H120.312ZM120.312 181.87V193.084H103.535V181.87H120.312ZM120.312 195.143V206.413H103.535V195.143H120.312ZM101.962 163.398H75.2772L73.8358 150.84H101.967L101.962 163.398ZM101.962 165.465V179.81H77.1564L75.5083 165.465H101.962ZM101.962 181.868V193.082H78.6879L77.3988 181.868H101.962ZM101.962 195.141V206.411H80.2176L78.9228 195.141H101.962ZM71.5188 150.847L72.9601 163.406H55.6358L53.7246 150.847H71.5188ZM73.1969 165.465L74.845 179.81H58.1201L55.9383 165.465H73.1969ZM55.4403 179.81H42.7595L40.1436 165.465H53.253L55.4403 179.81ZM58.4471 181.876H75.0893L76.3765 193.09H60.1459L58.4471 181.876ZM76.6133 195.148L77.9081 206.419H62.1698L60.4559 195.148H76.6133ZM51.0299 150.842L52.941 163.4H39.7697L37.4808 150.842H51.0299ZM45.5539 195.135H57.7687L59.4844 206.405H47.6078L45.5539 195.135Z" fill="#020202"/>
<path d="M225.852 251.563L222.823 259.978L215.7 256.143C215.7 256.143 216.061 254.927 216.792 254.426C217.523 253.924 219.585 243.156 219.585 243.156L225.852 251.563Z" fill="#E76A53"/>
<path d="M290.876 242.252L297.666 237.073C297.666 237.073 277.819 193.308 277.819 182.915C277.819 172.522 283.543 118.158 276.639 111.259C269.735 104.36 269.887 96.7185 269.887 96.7185L244.809 109.181C244.809 109.181 247.549 167.858 254.822 189.665C262.094 211.473 290.876 242.252 290.876 242.252Z" fill="#3D0B00"/>
<path d="M276.639 111.259C271.34 105.96 270.197 100.229 269.953 97.8531C269.701 97.5582 269.463 97.2896 269.241 97.0398L244.811 109.182C244.811 109.182 246.762 150.952 251.74 177.107C261.613 160.778 281.23 144.382 279.779 124.526C279.364 117.989 278.423 113.04 276.639 111.259Z" fill="#1C0400"/>
<path d="M250.218 110.739C250.218 110.739 214.302 166.827 212.224 177.721C210.146 188.616 217.262 248.278 217.262 248.278L227.222 251.561C227.222 251.561 233.399 190.573 240.801 183.172C248.203 175.771 274.869 140.746 277.821 134.104C282.668 123.209 274.044 102.949 274.044 102.949L250.218 110.739Z" fill="#3D0B00"/>
<path d="M274.042 102.951L250.218 110.739C250.218 110.739 245.862 117.538 240.098 126.862C240.837 127.41 241.626 127.886 242.455 128.284C251.879 132.762 269.891 122.518 276.639 115.412C277.015 115.006 277.31 114.345 277.506 113.466C276.591 109.886 275.434 106.373 274.042 102.951Z" fill="#1C0400"/>
<path d="M222.216 7.84009C222.216 7.84009 216.014 8.62712 214.511 11.2474C213.008 13.8677 212.589 31.8718 216.172 33.5323C219.756 35.1928 229.462 29.0749 230.078 21.6479C230.695 14.2209 222.216 7.84009 222.216 7.84009Z" fill="#FFA283"/>
<g style="mix-blend-mode:multiply" opacity="0.68">
<path d="M214.52 11.2474C216.007 8.61773 222.225 7.84009 222.225 7.84009C222.225 7.84009 226.209 10.8455 228.519 15.115C227.645 15.7536 226.955 16.041 226.639 15.7179C225.487 14.5665 217.542 15.0981 213.804 14.3449C213.977 12.8779 214.229 11.764 214.52 11.2474Z" fill="#FF7F4C"/>
</g>
<path d="M244.247 33.8066L230.084 21.6479L220.99 29.862L228.597 41.397L244.247 33.8066Z" fill="#FFA283"/>
<g style="mix-blend-mode:multiply" opacity="0.68">
<path d="M220.99 29.862L230.084 21.6479L232.209 23.4718L231.773 23.6954C231.328 23.9142 230.974 24.2844 230.777 24.7397C230.579 25.1949 230.55 25.7056 230.695 26.1804C231.709 29.5126 233.203 36.9359 227.618 39.9188L220.99 29.862Z" fill="#FF7F4C"/>
</g>
<path d="M218.544 26.6294C220.423 28.5077 226.707 19.4296 226.707 16.197C226.707 12.9643 216.918 13.5804 213.421 11.9199C209.924 10.2595 207.689 3.46732 213.421 1.02545C219.153 -1.41642 222.39 1.28842 222.39 1.28842C222.39 1.28842 227.81 -0.285642 232.619 1.46311C237.428 3.21187 237.952 6.96859 237.952 6.96859C237.952 6.96859 240.837 7.05499 241.536 12.3858C242.235 17.7166 237.542 28.0588 237.542 28.0588L230.108 22.3467L229.967 22.4313C229.366 22.7921 228.917 23.3598 228.705 24.0279C228.492 24.696 228.531 25.4186 228.814 26.0602C229.443 27.4972 230.108 29.3568 230.108 30.8238C230.108 32.535 228.49 36.2146 225.008 38.5063C220.913 41.2036 215.328 39.2933 213.592 34.7101C212.641 32.1968 211.912 29.5596 212.502 28.4645C213.786 26.1034 216.663 24.7491 218.544 26.6294Z" fill="black"/>
<path d="M226.622 15.7181C226.622 15.7181 229.419 13.3082 231.32 15.2147C233.222 17.1212 232.929 18.9282 230.875 20.3671C228.821 21.8059 225.76 19.3753 225.76 19.3753L226.622 15.7181Z" fill="#FFA283"/>
<path d="M235.601 33.3709C235.601 33.3709 222.614 56.2173 222.614 71.7946C222.614 87.3718 228.896 117.365 242.455 123.485C251.879 127.74 269.891 118.008 276.639 111.259C283.387 104.51 260.016 23.5076 235.601 33.3709Z" fill="#FFBE00"/>
<path d="M231.854 111.939C237.503 110.196 242.874 106.005 245.572 97.0398C252.713 73.2672 245.557 36.2354 245.557 36.2354L243.535 33.2056L223.484 83.3728C224.777 92.8529 227.532 103.736 231.854 111.939Z" fill="#BA8500"/>
<path d="M297.468 236.514L302.565 241.662L297.878 246.942C297.878 246.942 296.472 245.122 296.125 244.313C295.777 243.503 291.515 240.413 291.515 240.413L297.468 236.514Z" fill="#E76A53"/>
<path d="M310.119 243.55C309.875 242.871 309.489 242.253 308.985 241.736C308.482 241.22 307.873 240.817 307.201 240.556C304.872 239.617 301.926 239.053 301.52 239.224C301.114 239.395 299.791 243.528 298.365 244.138C296.938 244.749 293.573 243.871 293.573 243.871C293.573 243.871 292.336 245.938 293.112 250.239C293.888 254.54 290.004 261.697 289.354 263.318C288.704 264.939 291.122 266.323 291.122 266.323C291.122 266.323 299.596 265.399 310.119 243.55Z" fill="black"/>
<path d="M299.671 236.929L290.711 242.588L288.021 241.037L297.495 234.098L299.671 236.929Z" fill="#2D2D2D"/>
<path d="M221.441 267.473C222.059 267.1 222.59 266.6 222.998 266.004C223.405 265.409 223.68 264.733 223.804 264.022C224.262 261.556 224.245 258.558 223.992 258.199C223.738 257.841 219.429 257.352 218.542 256.075C217.655 254.798 217.862 251.327 217.862 251.327C217.862 251.327 215.588 250.521 211.527 252.127C207.466 253.733 199.688 251.332 197.957 251.011C196.226 250.69 195.358 253.333 195.358 253.333C195.358 253.333 197.94 261.453 221.441 267.473Z" fill="black"/>
<path d="M227.385 254.426L215.7 249.129L216.101 244.754L229.68 250.624L227.385 254.426Z" fill="#2D2D2D"/>
<path d="M180.415 111.024C179.541 111.898 169.427 111.939 167.014 111.939C164.601 111.939 160.178 115.992 160.779 116.594C161.38 117.195 166.943 116.239 166.943 116.239C166.943 116.239 169.837 118.145 167.086 119.141C164.334 120.136 168.025 120.606 169.497 120.606C170.968 120.606 182.087 117.995 182.087 117.995L180.415 111.024Z" fill="#FFA283"/>
<path d="M245.55 36.2355C245.55 36.2355 246.251 83.4781 238.458 96.7187C230.665 109.959 182.082 119.071 182.082 119.071L177.196 108.088C177.196 108.088 215.601 96.2002 218.198 89.1902C220.795 82.1802 225.903 47.6296 228.597 41.3972C231.775 34.0753 243.731 26.6277 245.55 36.2355Z" fill="#FFBE00"/>
</svg>
