<svg id="Illustration" xmlns="http://www.w3.org/2000/svg" xmlns:xlink="http://www.w3.org/1999/xlink" viewBox="0 0 11898.01 12512.72"><defs><style>.cls-1{fill:#9b9b9b;}.cls-2{fill:url(#linear-gradient);}.cls-3{fill:#828282;}.cls-4{fill:#3d0b00;}.cls-5{fill:url(#linear-gradient-2);}.cls-6{fill:#dadfe5;}.cls-7{fill:url(#linear-gradient-3);}.cls-8{fill:#c1cad4;}.cls-9{fill:url(#linear-gradient-4);}.cls-10{fill:url(#linear-gradient-5);}.cls-11,.cls-14{fill:#fff;}.cls-11{opacity:0.67;isolation:isolate;}.cls-12{fill:url(#linear-gradient-6);}.cls-13{fill:url(#linear-gradient-7);}.cls-15{fill:#1a2e35;}.cls-16{fill:#ffbf9d;}.cls-17{fill:#ff9a6c;}.cls-18{fill:#375a64;}.cls-19{fill:#ffbe00;}.cls-20{fill:#fafafa;}.cls-21{opacity:0.6;}.cls-22{opacity:0.3;}</style><linearGradient id="linear-gradient" x1="3777.12" y1="2216.6" x2="4346.79" y2="2216.6" gradientTransform="translate(15062.35 13701.75) rotate(180)" gradientUnits="userSpaceOnUse"><stop offset="0" stop-color="#b3b3b3"/><stop offset="1" stop-color="gray"/></linearGradient><linearGradient id="linear-gradient-2" x1="8045.35" y1="2537.62" x2="8284.04" y2="2537.62" gradientTransform="matrix(1, 0, 0, -1, -213.84, 13701.75)" gradientUnits="userSpaceOnUse"><stop offset="0" stop-color="#494949"/><stop offset="1" stop-color="#3c3b6b"/></linearGradient><linearGradient id="linear-gradient-3" x1="8419.38" y1="1187.15" x2="8658.07" y2="1187.15" xlink:href="#linear-gradient-2"/><linearGradient id="linear-gradient-4" x1="5779.11" y1="1451.37" x2="6017.83" y2="1451.37" xlink:href="#linear-gradient-2"/><linearGradient id="linear-gradient-5" x1="10999.47" y1="11994.67" x2="4346.45" y2="5820.66" gradientTransform="matrix(1, 0, 0, -1, -213.84, 13701.75)" xlink:href="#linear-gradient"/><linearGradient id="linear-gradient-6" x1="11006.13" y1="12034.43" x2="9967.08" y2="11070.18" gradientTransform="matrix(1, 0, 0, -1, 0, 13847.59)" xlink:href="#linear-gradient"/><linearGradient id="linear-gradient-7" x1="10456.38" y1="11617.29" x2="4161.99" y2="5776.1" gradientTransform="matrix(1, 0, 0, -1, -213.84, 13701.75)" xlink:href="#linear-gradient"/></defs><title>2</title><path class="cls-1" d="M10794.88,11442.85c0,206.94,127.54,374.65,284.86,374.65s284.81-167.74,284.81-374.65-127.51-374.65-284.81-374.65S10794.88,11235.92,10794.88,11442.85Z" transform="translate(-423.53 -951.09)"/><path class="cls-2" d="M10715.56,11485.15c0,206.94,127.51,374.65,284.81,374.65s284.86-167.77,284.86-374.65-127.53-374.65-284.86-374.65S10715.56,11278.22,10715.56,11485.15Z" transform="translate(-423.53 -951.09)"/><path class="cls-3" d="M10881.05,11492.69c0,86.72,53.43,157,119.37,157s119.35-70.3,119.35-157-53.44-157-119.35-157S10881.05,11406,10881.05,11492.69Z" transform="translate(-423.53 -951.09)"/><path class="cls-4" d="M11079.74,11027.79v411.45a109.39,109.39,0,0,1-109.39,109.37h0a109.35,109.35,0,0,1-88.32-44.86l-370.05-506.7Z" transform="translate(-423.53 -951.09)"/><path class="cls-1" d="M7745.34,11114.27c0,206.94,127.54,374.65,284.84,374.65S8315,11321.16,8315,11114.27s-127.53-374.65-284.83-374.65S7745.34,10907.34,7745.34,11114.27Z" transform="translate(-423.53 -951.09)"/><path class="cls-3" d="M7666,11156.6c0,206.93,127.54,374.64,284.84,374.64s284.84-167.76,284.84-374.64S8108.13,10782,7950.83,10782,7666,10949.66,7666,11156.6Z" transform="translate(-423.53 -951.09)"/><path class="cls-5" d="M7831.51,11164.11c0,86.74,53.43,157,119.34,157s119.35-70.28,119.35-157-53.43-157-119.35-157S7831.51,11077.35,7831.51,11164.11Z" transform="translate(-423.53 -951.09)"/><path class="cls-6" d="M8030.18,10699.21v411.47a109.37,109.37,0,0,1-109.37,109.37h0a109.32,109.32,0,0,1-88.34-44.88l-370-506.68Z" transform="translate(-423.53 -951.09)"/><path class="cls-4" d="M11122.27,11091.74a74.7,74.7,0,0,0,8.24-148.93L7519,10535.87c-196.55-33.83-360.47-183.22-413.41-380L5592.81,4523.63a727.63,727.63,0,0,0-652.4-537l-1098.53-65.53a74.7,74.7,0,0,0-8.88,149.11l1097.8,65.48a578,578,0,0,1,517.92,426.71L6961.5,10194.63a675.51,675.51,0,0,0,536.65,489.08l3615.67,407.54A72.42,72.42,0,0,0,11122.27,11091.74Z" transform="translate(-423.53 -951.09)"/><path class="cls-4" d="M8609.72,8874.59a74.74,74.74,0,0,0,71.78-54.25l850.43-2975.78a74.7,74.7,0,1,0-143.19-42.63l-.45,1.58-850.4,2975.82a75,75,0,0,0,71.83,95.27Z" transform="translate(-423.53 -951.09)"/><path class="cls-4" d="M7739.73,8750.13a74.69,74.69,0,0,0,73.46-61.59L8337.7,5740.82a74.7,74.7,0,1,0-146.76-27.91c-.11.57-.21,1.14-.31,1.71L7666.12,8662.36a74.72,74.72,0,0,0,73.61,87.85Z" transform="translate(-423.53 -951.09)"/><path class="cls-4" d="M7199.18,8653.53h3.13a74.7,74.7,0,0,0,71.51-77.72l-121-2916.66c-1.67-41.34-34.67-73.95-77.72-71.52a74.68,74.68,0,0,0-71.52,77.69v0l121.05,2916.53A74.67,74.67,0,0,0,7199.18,8653.53Z" transform="translate(-423.53 -951.09)"/><path class="cls-4" d="M9796.4,8983.45a74.76,74.76,0,0,0,70.82-51l998.51-2977.09a74.71,74.71,0,1,0-141.67-47.49h0L9725.58,8885a74.79,74.79,0,0,0,70.85,98.47Z" transform="translate(-423.53 -951.09)"/><path d="M1272.08,4329.53c4.1,0,8.24-.15,12.42-.51L3742.23,4127a149.39,149.39,0,1,0-20.62-298.07c-1.3.09-2.6.19-3.9.32L1260,4031.36a149.4,149.4,0,0,0,12.1,298.28Z" transform="translate(-423.53 -951.09)"/><path class="cls-1" d="M8119.37,12464.84c0,206.94,127.51,374.65,284.84,374.65S8689,12671.75,8689,12464.84s-127.53-374.64-284.83-374.64S8119.37,12257.83,8119.37,12464.84Z" transform="translate(-423.53 -951.09)"/><path class="cls-3" d="M8040,12507.06c0,206.94,127.51,374.65,284.84,374.65s284.83-167.76,284.83-374.65-127.53-374.65-284.83-374.65S8040,12300.13,8040,12507.06Z" transform="translate(-423.53 -951.09)"/><path class="cls-7" d="M8205.54,12514.61c0,86.71,53.41,157,119.34,157s119.35-70.28,119.35-157-53.43-157-119.35-157S8205.54,12427.9,8205.54,12514.61Z" transform="translate(-423.53 -951.09)"/><path class="cls-8" d="M8404.21,12049.71v411.44a109.4,109.4,0,0,1-109.4,109.37h0a109.33,109.33,0,0,1-88.32-44.88l-370-506.68Z" transform="translate(-423.53 -951.09)"/><path class="cls-1" d="M5479.1,12200.45c0,206.93,127.54,374.64,284.84,374.64s284.83-167.73,284.83-374.64-127.51-374.65-284.83-374.65S5479.1,11993.51,5479.1,12200.45Z" transform="translate(-423.53 -951.09)"/><path class="cls-3" d="M5399.75,12242.64c0,206.93,127.54,374.65,284.84,374.65s284.84-167.77,284.84-374.65S5841.89,11868,5684.54,11868,5399.75,12035.94,5399.75,12242.64Z" transform="translate(-423.53 -951.09)"/><path class="cls-9" d="M5565.27,12250.39c0,86.71,53.43,157,119.35,157s119.37-70.28,119.37-157-53.46-157-119.37-157S5565.27,12163.57,5565.27,12250.39Z" transform="translate(-423.53 -951.09)"/><path class="cls-8" d="M5763.94,11785.31v411.44a109.41,109.41,0,0,1-109.37,109.4h0a109.38,109.38,0,0,1-88.34-44.88l-370-506.63Z" transform="translate(-423.53 -951.09)"/><path class="cls-6" d="M12245.83,6074.57a74.7,74.7,0,0,0,5.3-149.21l-6431.93-463a80.07,80.07,0,0,0-17.9.88L3138.58,5916.8a74.7,74.7,0,1,0,25.09,147.28h0l2653.83-452,6422.91,462.34C12242.19,6074.49,12244.05,6074.57,12245.83,6074.57Z" transform="translate(-423.53 -951.09)"/><path class="cls-10" d="M4855.14,1080.91V8659.68l5328.68-345.07c121-7.08,214.89-91.67,214.89-193.65v-6764c0-105.09-99.48-191.2-224.43-194Z" transform="translate(-423.53 -951.09)"/><path class="cls-11" d="M4584.44,1305V8435.56l5353-327c113.87-6.67,202.18-86.27,202.18-182.21V1562.5c0-98.88-93.58-179.78-211.14-182.57Z" transform="translate(-423.53 -951.09)"/><path class="cls-12" d="M10185.31,1578.26h597.48a12.27,12.27,0,0,1,12.27,12.28h0V3000.3a12.27,12.27,0,0,1-12.27,12.28h-597.48V1578.26Z" transform="translate(-423.53 -951.09)"/><path class="cls-13" d="M4523.46,1295.86V8469.12c0,109.66,95.08,202.93,224,219.75l4304.18,561.07c135,14.68,254.65-73.74,254.65-188.18V1140.83c0-106.71-104.66-192.44-231.55-189.68L4779,1073.62C4636.5,1077.68,4523.46,1176,4523.46,1295.86Z" transform="translate(-423.53 -951.09)"/><path class="cls-14" d="M5786.13,3978.76l1663.57,59.42V7115.91l397.18,39.77v121.95L5812.36,7068.89V6952.08l363.72,36.4v-2878l-389.95-14.93ZM6797.45,3557.6c-240.65-6.28-410.46-69.76-511.12-190.35q-150.33-180-150.2-441.23t163.58-430.74c109.68-113.51,277.42-170.53,504.62-170.53q343.88,0,526.08,157.61,182.39,158.57,182.67,451.41t-175.69,463.71c-116.43,113.25-296.88,166.42-539.94,160.09Z" transform="translate(-423.53 -951.09)"/><path class="cls-4" d="M10060.31,6738.11a75.26,75.26,0,0,0,21.7-3.2l2185.45-663.54a74.72,74.72,0,0,0-41.33-143.62c-.7.2-1.39.41-2.08.63l-2171.26,659.25L3158.37,5916.11a74.67,74.67,0,0,0-14.52,148.64h0l6909.2,673A67.74,67.74,0,0,0,10060.31,6738.11Z" transform="translate(-423.53 -951.09)"/><path class="cls-4" d="M3983,9085.77a78.68,78.68,0,0,0,11.47-.88l2620.19-402L10601,9066.57a74.7,74.7,0,1,0,14.29-148.72L6619.71,8533.28a72.31,72.31,0,0,0-18.47.54L3971.82,8937.25A74.7,74.7,0,0,0,3983,9085.77Z" transform="translate(-423.53 -951.09)"/><path class="cls-4" d="M8734,9537.41a74.66,74.66,0,0,0,67.46-42.71l1326.37-2799.35a74.71,74.71,0,1,0-135-64h0L8688.89,9383.45,3990.22,8936.71a74.7,74.7,0,1,0-14.82,148.66l.69.06,4750.78,451.7A60.71,60.71,0,0,0,8734,9537.41Z" transform="translate(-423.53 -951.09)"/><path class="cls-4" d="M8733.87,9537.41a75.14,75.14,0,0,0,18.29-2.24l1874.15-470.59a74.58,74.58,0,0,0,47.34-36.56L12311.3,6035.68a74.71,74.71,0,1,0-131.12-71.64l-1621.92,2963.6-1842.5,462.5a74.7,74.7,0,0,0,18.09,147.12Z" transform="translate(-423.53 -951.09)"/><path class="cls-4" d="M9577.89,7756.31a74.34,74.34,0,0,0,21-3L11657.17,7150a74.68,74.68,0,0,0-42-143.32h0L9570.37,7606,3492.56,7075.92a74.68,74.68,0,1,0-12.92,148.8h0L9571.46,7756C9573.55,7756.2,9575.72,7756.31,9577.89,7756.31Z" transform="translate(-423.53 -951.09)"/><path class="cls-4" d="M9075,8817.62a73.71,73.71,0,0,0,20.13-2.79L11067,8262.44a74.7,74.7,0,0,0-40.26-143.86L9068,8667.32,3790.26,8205.6c-41-4.34-77.33,26.82-80.9,67.93a74.69,74.69,0,0,0,67.88,80.9h0l5291.26,462.88C9070.67,8817.52,9072.86,8817.62,9075,8817.62Z" transform="translate(-423.53 -951.09)"/><path class="cls-4" d="M7763.87,9445.28a74.78,74.78,0,0,0,71.57-53.41L8681.29,6554a74.71,74.71,0,0,0-143.19-42.68l-846,2837.82a74.93,74.93,0,0,0,71.62,96.1Z" transform="translate(-423.53 -951.09)"/><path class="cls-4" d="M6828.2,9356.26a74.69,74.69,0,0,0,73.51-61.7L7409,6419.45a74.7,74.7,0,1,0-147.12-26h0L6754.56,9268.7a74.78,74.78,0,0,0,60.59,86.56A77.05,77.05,0,0,0,6828.2,9356.26Z" transform="translate(-423.53 -951.09)"/><path class="cls-4" d="M5772.93,9236.17a74.7,74.7,0,0,0,74.52-70.51l159.88-2854.78A74.7,74.7,0,0,0,5937,6232.1h0c-41.47-1.6-76.48,29.2-78.78,70.39l-159.91,2854.8a74.72,74.72,0,0,0,70.41,78.78C5770.09,9236.14,5771.51,9236.17,5772.93,9236.17Z" transform="translate(-423.53 -951.09)"/><path class="cls-4" d="M4773,9124.24h4a74.66,74.66,0,0,0,70.67-78.47v0L4695.54,6145.39a74.7,74.7,0,0,0-149.19,7.75L4698.49,9053.5A74.66,74.66,0,0,0,4773,9124.24Z" transform="translate(-423.53 -951.09)"/><path class="cls-4" d="M9300.73,9395.15a74.69,74.69,0,0,0,67.36-42.3L10735.2,6511.33a74.7,74.7,0,0,0-134.62-64.77L9233.47,9288.08a74.64,74.64,0,0,0,67.18,107.07Z" transform="translate(-423.53 -951.09)"/><path class="cls-4" d="M10060.23,9204.44a74.67,74.67,0,0,0,66.9-41.34l1451.18-2907a74.7,74.7,0,0,0-133.63-66.74l-1451.19,2907a74.69,74.69,0,0,0,66.74,108.08Z" transform="translate(-423.53 -951.09)"/><path class="cls-4" d="M8418.52,12164.74a74.9,74.9,0,0,0,27.52-5.17l2703.65-1073a74.7,74.7,0,0,0-55.06-138.88l-2686,1065.94-3261.41-398.42a572.92,572.92,0,0,1-484.43-417.87L2875,4706.84a728.81,728.81,0,0,0-648.74-532.39l-948.58-68.78c-40.72-2.37-76.92,27.93-79.92,69.12a74.76,74.76,0,0,0,69.12,79.92l948.61,68.62a579,579,0,0,1,515.51,423l1787.86,6490.48a721.72,721.72,0,0,0,610.31,526.47L8409.45,12164A76.59,76.59,0,0,0,8418.52,12164.74Z" transform="translate(-423.53 -951.09)"/><path class="cls-15" d="M2282,5346.51a691.59,691.59,0,0,1,156.32,443.09c-1,91.37-17.81,192.11,35.34,266.42,40.33,56.4,113.87,84.64,146.63,145.75,39.43,73.48,5.81,166.32,30.08,246.11,34.36,113.09,166.83,160.4,245.46,248.74,68.11,76.61,93.32,188.61,65.88,287.5s-106.19,181.43-203.08,215c-52,18.08-111.49,21.86-160.74-2.72-53.15-26.48-86-80.79-112.58-133.86-52.32-104.31-510.86-668.66-536.83-782.4" transform="translate(-423.53 -951.09)"/><path class="cls-15" d="M1948.38,5213.58c-187.53-30.21-367.75,94.3-446.74,267s-81.18,369.15-87,559-19.2,388-116,551.35c-61.52,103.69-156.76,194.62-171.69,314.25-13.38,107.09,42.06,214.94,23.64,321.29-16,92.6-86.56,173.11-83.77,267.09,3.36,113,119.58,198.12,232.55,201.14s218.56-56.17,307.16-126.37a1181.7,1181.7,0,0,0,337.21-428.49" transform="translate(-423.53 -951.09)"/><path class="cls-16" d="M1640,5660.73c-24.34-194.58,113.65-372.06,308.23-396.41q5.41-.67,10.85-1.19c189.26-18.08,357.46,122.89,385.83,310.88,24.86,164.8,46.25,331.14,45.48,391.58C2388,6147.77,2281.43,6218.8,2238.2,6240c-9.87,4.86-37,10.34-47.92,11.94h0a1.22,1.22,0,0,0-1.05,1.37.07.07,0,0,1,0,.05l40.46,209.13c18.35,136.95-58.13,259.26-194.94,279.18-137.28,20-244.56-85.26-265.51-222.36Z" transform="translate(-423.53 -951.09)"/><path class="cls-15" d="M2307.53,5653.83c-3,4.26-27.08-8.66-57.9-4.09-30.86,4.14-51.19,23.26-55.07,20-1.88-1.45.75-8.71,9.54-17.31a79.35,79.35,0,0,1,43.43-20.67,76.2,76.2,0,0,1,46.77,7.9C2304.94,5645.61,2309.1,5651.89,2307.53,5653.83Z" transform="translate(-423.53 -951.09)"/><path class="cls-15" d="M2033.34,5720.46c-3,4.24-27.08-8.65-57.91-4.08-30.85,4.13-51.16,23.25-55.06,20-1.88-1.42.73-8.68,9.56-17.31a79.63,79.63,0,0,1,43.41-20.67,76.51,76.51,0,0,1,46.77,7.9C2030.62,5712.25,2034.84,5718.58,2033.34,5720.46Z" transform="translate(-423.53 -951.09)"/><path class="cls-15" d="M2145.78,5885.77c-.38-1.73,18.3-7.75,48.78-16.33,7.76-2,15-4.62,15.51-10.18,1-6-3.52-14-8.68-22.58q-15.27-27-32-56.56c-44.8-80.66-78.44-147.45-75.16-149.24s42.22,62.17,87,142.83l31,57.08c4.27,8.5,10.88,17.91,8.58,30.31a20,20,0,0,1-11.27,13.41,54.27,54.27,0,0,1-13.09,3.8C2165.42,5884.56,2146.17,5887.5,2145.78,5885.77Z" transform="translate(-423.53 -951.09)"/><path class="cls-17" d="M2189,6252.1s-117.64,27.16-279.64-40.69c0,0,69.94,150.56,290.54,97.05Z" transform="translate(-423.53 -951.09)"/><path class="cls-15" d="M2017.83,5639.67c-1.83,8.81-33.2,9.32-68.72,19-35.76,8.92-63.39,23.77-69.28,16.95-2.58-3.28,1.27-11.91,11.89-21.75a124,124,0,0,1,105.13-27.37C2010.91,5629.88,2018.56,5635.48,2017.83,5639.67Z" transform="translate(-423.53 -951.09)"/><path class="cls-15" d="M2282.31,5585.49c-4.42,7.75-26.72,3.61-52.32,7-25.84,2.58-46.51,11.57-52.53,5-2.58-3.25-.31-10.74,8.16-18.75s23.26-15.51,40.78-17.68,33.77,2.12,43.71,8S2284.27,5581.64,2282.31,5585.49Z" transform="translate(-423.53 -951.09)"/><path class="cls-15" d="M1966.47,5760.25a25.63,25.63,0,0,0,29.22,20.67,24.51,24.51,0,0,0,21.6-27.12c0-.21,0-.42-.08-.63A25.63,25.63,0,0,0,1988,5732.5a24.53,24.53,0,0,0-21.66,27.08Z" transform="translate(-423.53 -951.09)"/><path class="cls-15" d="M2239.57,5701.19a25.69,25.69,0,0,0,29.23,20.67,24.55,24.55,0,0,0,21.62-27.16c0-.2-.05-.39-.07-.59a25.66,25.66,0,0,0-29.2-20.67,24.52,24.52,0,0,0-21.66,27.08C2239.52,5700.74,2239.54,5701,2239.57,5701.19Z" transform="translate(-423.53 -951.09)"/><path class="cls-17" d="M2194.31,5946a38.5,38.5,0,0,0-45,18.71c-8.06,14.39-6.12,34.05,5.45,45.78s32.22,13.59,45,3.18c8.69-7.05,12.92-18.32,14.14-29.46,1-10.33-.65-21.29-7-29.43s-18.09-12.55-27.52-8.34" transform="translate(-423.53 -951.09)"/><path class="cls-15" d="M2320.83,5426.61c-14.1-68.52-61.28-127-118.85-166.94-48.78-33.93-106.5-56.38-165.9-58.19s-120.31,18.09-163.22,59.28c-31.73,30.38-48,73.43-49.46,117.32l3.44-30.3a110.44,110.44,0,0,0,.39,76.32.43.43,0,0,1,0,.16h0c5,13.25,11,26.53,16.38,39.84a170.54,170.54,0,0,0,81,88.11c16.76,8.42,35.37,14.08,54.25,13.17s37.68-9,49.1-23.9c16.27-21.34,14.39-50.92,11.73-77.64,16.12,25.17,33.22,51.29,59.11,66.17s63.33,14.39,81.55-9.3c17.65-22.92,10.67-55.86.44-82.91a164.13,164.13,0,0,0,67.64,58.44c15.14,7,33,11.65,48.34,5,12.92-5.63,21.76-18.65,25.09-32.43S2323.68,5440.48,2320.83,5426.61Z" transform="translate(-423.53 -951.09)"/><path class="cls-18" d="M2164.33,5483.17c-2,0-1.62-25.69-10-65.6-8.37-39.28-28.24-94.78-74.93-135.81-22.92-20.26-49.3-34.26-74.93-40.46a162.55,162.55,0,0,0-69.76-1.73c-39.84,8.11-59.14,27-60.33,25-.39-.44,3.77-5.5,13.3-12.4a135,135,0,0,1,45.27-20.42,162.11,162.11,0,0,1,73.87-.56c27.55,6,55.81,20.67,80.1,42.11,49.09,43.41,68.65,102.27,75.14,142.76a288.25,288.25,0,0,1,3.9,49.09C2165.94,5476.79,2165,5483.17,2164.33,5483.17Z" transform="translate(-423.53 -951.09)"/><path class="cls-16" d="M4159.12,8008.43l-832.8-330.13S2899.68,7118.81,2908.57,7108l-299.46,328,435.26,589.11L4053,8261.15l477.66,3.85C4493.7,8081.4,4159.12,8008.43,4159.12,8008.43Z" transform="translate(-423.53 -951.09)"/><path class="cls-19" d="M2343.93,6412.43l-113.4-43.93-489.94,62.14v86.56l-14,1.73s-152.18,27.65-300.13,116.48c-179.16,107.56-272.25,315-239.08,521.33,19.92,123.89,58.55,274.5,133,361.52,142.29,166.45,272.23-39.25,272.23-39.25s89.32,203.71,84.18,300c-4.29,80.7-40,248.82-51.44,301.33a15.88,15.88,0,0,0,12.13,18.91l.63.13,1033.52,191.2,5-252.59L2643.73,6999l-45.6-403.56S2599.63,6402.45,2343.93,6412.43Z" transform="translate(-423.53 -951.09)"/><polygon class="cls-19" points="2158.78 5577.01 2552.84 6146.4 2235.57 6532.86 2158.78 5577.01"/><path class="cls-15" d="M2666.8,7726.31c-.8,0-1.29-13.1-1.55-36.74-.33-25.56-.75-59.27-1.26-100-2-84.38-6.77-201.07-23.59-328.71-16.33-127.76-41.16-241.87-60.15-324.16-9.36-39.71-17.06-72.55-22.92-97.41-5.38-23-8-35.83-7.26-36s4.8,12.25,11.52,34.93,15.89,55.66,26.41,96.64c21,81.93,47.18,196.36,63.58,324.6,16.88,128.23,20.39,245.46,20.39,330.08-.41,42.32-1,76.55-2.32,100.19S2667.58,7726.33,2666.8,7726.31Z" transform="translate(-423.53 -951.09)"/><path class="cls-20" d="M1697.11,6860.61c0,1.83-29.9,1.45-77.9,4a1227.13,1227.13,0,0,0-365.87,75.73c-45.06,16.69-72.34,28.89-73.07,27.26-.33-.7,6.13-4.49,18.09-10.72s29.71-14.6,52-23.95a1006.71,1006.71,0,0,1,368.55-76.35c24.19-.29,43.77.23,57.26,1.31S1697.13,6859.78,1697.11,6860.61Z" transform="translate(-423.53 -951.09)"/><path class="cls-20" d="M2609.83,7121.24c.23,1.47-18.45,6-49.09,10.69a1088.4,1088.4,0,0,1-241.92,8.27c-31-2.58-49.89-5.81-49.76-7.28s19.3-1.22,50.15-.68,73.43.88,120.4-.69,89.43-4.89,120.17-7.55S2609.68,7119.63,2609.83,7121.24Z" transform="translate(-423.53 -951.09)"/><path class="cls-20" d="M2790.85,6863.56c2,2.09-32.89,36.94-84.54,68.39s-98.44,46.87-99.4,44.13,43-22.66,93.51-53.77S2788.65,6861,2790.85,6863.56Z" transform="translate(-423.53 -951.09)"/><path class="cls-20" d="M2631.59,6599.65c1.93,1.91-44.55,43.72-114.78,73.17-70,30-132.39,34.26-132.41,31.52-.6-3.46,59.66-12.63,128-41.91C2581,6633.62,2629.49,6596.7,2631.59,6599.65Z" transform="translate(-423.53 -951.09)"/><path class="cls-20" d="M2653.08,7562c.31.72-7,4.52-20.46,10.78s-33.36,14.52-58.32,23.66a1071.51,1071.51,0,0,1-408.54,62.76c-26.57-1.24-48-3-62.74-5.16s-22.81-3.34-22.74-4.11c.18-1.86,32.87.8,85.68,1.21a1271.07,1271.07,0,0,0,405.66-62.32C2622,7572.68,2652.36,7560.33,2653.08,7562Z" transform="translate(-423.53 -951.09)"/><path class="cls-20" d="M2661.12,7855.7c.15.37-3,2.15-9.25,5.17l-27.44,12.92c-23.82,11.32-59.09,25.84-103.35,42.5s-97.67,33.95-157.87,50.49A1849.79,1849.79,0,0,1,1962.57,8029c-62.38,2.58-118.62,2.25-165.75-.31s-85.27-5.64-111.29-9.2l-30-3.88c-6.85-1.06-10.34-1.81-10.34-2.19s3.72-.39,10.65,0l30.26,2c26.2,2.19,64.2,4.26,111.1,5.6s102.91.91,164.92-2.12c62-3.64,130-10.05,200.84-20.82,70.77-11.22,137.51-25.68,197.66-41,60-15.89,113.53-32.27,157.82-47.95s80-29,104.25-39l28.24-11.06C2657.45,7856.45,2660.94,7855.37,2661.12,7855.7Z" transform="translate(-423.53 -951.09)"/><path class="cls-19" d="M760.67,12460.06l-117.1,529.29-213.29,391.86a55.57,55.57,0,0,0,22.31,75.36c1.09.59,2.2,1.15,3.32,1.66h0a55.16,55.16,0,0,0,50.77-2.3c99.24-57.33,463.22-270.05,469.6-309.25,7.42-45.42,160.53-550,160.53-550Z" transform="translate(-423.53 -951.09)"/><g class="cls-21"><path class="cls-14" d="M455.93,13458.16,985,13111.08l-5.46,22.29a83.59,83.59,0,0,1-32.16,47.93c-43.08,31-163.84,114.28-439.09,275a55.58,55.58,0,0,1-52.38,1.88Z" transform="translate(-423.53 -951.09)"/></g><g class="cls-21"><path class="cls-14" d="M918.66,12914.79c-15.5,5.86-24.62,24.75-19.37,40.41s24.36,25.19,39.89,19.58,27.26-28,20.31-42.91-30-24.94-43.77-15.77" transform="translate(-423.53 -951.09)"/></g><path class="cls-15" d="M632.67,13257.68c-3.34.72-8.45-29.77-36.18-52.27-27-23.25-57.87-23-57.75-26.46-.15-1.39,7.52-3.85,20.26-2.58a88.56,88.56,0,0,1,72.61,60.9C635.15,13249.59,634.06,13257.58,632.67,13257.68Z" transform="translate(-423.53 -951.09)"/><path class="cls-15" d="M577.86,13319c-3.05,1.65-15.73-19.61-41.05-34.08-25-15-49.74-15.74-49.79-19.23-.86-3.07,27.2-8,55.81,9S581,13318.22,577.86,13319Z" transform="translate(-423.53 -951.09)"/><path class="cls-15" d="M724.62,13184.45c-3.1,1.89-22.45-31-59.84-56.84-37-26.53-74.36-33.82-73.61-37.36-.18-3,40.72-.72,80.48,27.65C711.68,13145.83,727.52,13183.6,724.62,13184.45Z" transform="translate(-423.53 -951.09)"/><path class="cls-15" d="M773.64,13026.56c-2.17,2.82-28.27-16.48-65.79-27.13-37.36-11.16-69.76-8.91-70-12.45-.83-2.95,33.2-10.88,73.38,1S775.91,13024.52,773.64,13026.56Z" transform="translate(-423.53 -951.09)"/><path class="cls-15" d="M811.93,12872.07c-2.38,2.59-27.31-22.06-67.72-30-40.23-8.87-73,3.77-74.11.41-.56-1.32,6.8-6.51,20.67-10.54a120.86,120.86,0,0,1,106.51,22.27C808.34,12863.39,813,12871.12,811.93,12872.07Z" transform="translate(-423.53 -951.09)"/><path class="cls-15" d="M752.35,12812.85c-.68-.15,0-7.51,4.18-20.1a142.59,142.59,0,0,1,28.6-48.26c8.09-8.37,17.11-19.51,33.59-22.82A22.32,22.32,0,0,1,842,12732.5a36.36,36.36,0,0,1,2.58,25.84c-8.76,33.28-45.37,58.57-84.13,54.26a91,91,0,0,1-75.49-67.57c-1.45-8.27-1.48-18.09,4.8-25.84s17.8-8.94,25-5.81c15.07,6.17,22.71,17.59,30.26,26.53a159.24,159.24,0,0,1,25.84,49.72c3.87,12.66,4.31,20,3.61,20.18-2.17.9-7-29.12-36.17-64.6-7.47-8.34-15.94-18.68-26.92-22.48a11.69,11.69,0,0,0-13.67,3.08c-3.05,3.74-3.57,10.64-2.15,17.21,6.83,26.69,33.31,54,66.12,57.8s64.78-18.22,72.07-44.94a26.3,26.3,0,0,0-1-18.08,12.09,12.09,0,0,0-12.76-6.15c-11.24,1.6-20.83,11-28.71,18.81C759.63,12783.45,754.67,12813.94,752.35,12812.85Z" transform="translate(-423.53 -951.09)"/><g class="cls-22"><polygon points="323.47 11566.41 298.15 11687.77 681.35 11751.33 713.31 11645.5 337.11 11508.98 323.47 11566.41"/></g><path class="cls-19" d="M2472.89,12656l-31.65,422.87s419.22,174,421,252.77l-822.14-31.88,22.27-660.94Z" transform="translate(-423.53 -951.09)"/><g class="cls-21"><path class="cls-14" d="M2188.47,13033.28c-16.07,3.72-27.78,21.19-24.7,37.41s20.67,28.27,36.87,24.81,30.82-24,25.83-39.77-26.35-28.76-41.21-21.55" transform="translate(-423.53 -951.09)"/></g><g class="cls-21"><path class="cls-14" d="M2040.13,13299.8l4.86-66.54,786.43,55.45s36,17.34,30.85,43Z" transform="translate(-423.53 -951.09)"/></g><path class="cls-15" d="M2454.8,13075.11c-.28,4-20.41,5.17-40.67,17.21-20.67,11.6-31.44,28.6-35.06,26.87-3.67-.93,3.23-24.7,28-39S2455.81,13071.47,2454.8,13075.11Z" transform="translate(-423.53 -951.09)"/><path class="cls-15" d="M2539.63,13114.12c.77,3.93-16.87,10.08-31.19,26.54-14.75,16-18.91,34.26-22.92,33.92-3.77.5-5.65-23.25,12.51-43.25S2539.68,13110.3,2539.63,13114.12Z" transform="translate(-423.53 -951.09)"/><path class="cls-15" d="M2584.61,13219.31c-3.69.72-8.5-19.56,2.59-41.16s30.28-29.58,31.85-26.17c2.12,3.38-10.51,14.7-19.4,32.55C2590.43,13202.1,2588.62,13219,2584.61,13219.31Z" transform="translate(-423.53 -951.09)"/><path class="cls-15" d="M2451.32,12977.93c-1.84,3.62-20.05-2.58-42.79-2-22.76.21-40.72,7.13-42.69,3.62-2.19-3,15.51-17.18,42.43-17.6S2453.41,12974.86,2451.32,12977.93Z" transform="translate(-423.53 -951.09)"/><g class="cls-22"><polygon points="2043.03 11788.57 2037.5 11863.94 1633.58 11844.58 1636.29 11757.43 2043.03 11788.57"/></g><path class="cls-15" d="M2456.12,12892.51c0,1.66-16,3.54-41.18-1.81a183.86,183.86,0,0,1-42.56-14.9,194.84,194.84,0,0,1-23.25-13.47,51.09,51.09,0,0,1-12.07-10.15c-4.29-4.37-6.41-15.12-1-21.45a22,22,0,0,1,18-8.47,54.18,54.18,0,0,1,15.35,2.71,146.17,146.17,0,0,1,62.27,36.18c18.37,18.39,24.31,33.58,22.89,34.39-1.86,1.24-10.65-11.68-29.51-27a164.52,164.52,0,0,0-35.91-22.12,155.42,155.42,0,0,0-23.26-8.19c-8.63-2.58-16-3-18.39.8-.88,1.45-1,2,.72,4.65a40.64,40.64,0,0,0,8.86,7.42,215.34,215.34,0,0,0,21.27,13.28,225.46,225.46,0,0,0,39.22,16.79C2440.8,12888.59,2456.28,12890.34,2456.12,12892.51Z" transform="translate(-423.53 -951.09)"/><path class="cls-15" d="M2450.67,12898.07c-1.45.57-8.86-14.14-9.33-40.21a133.13,133.13,0,0,1,18.84-69.45c5.17-7.93,11.42-18.58,27.05-19.76a19.24,19.24,0,0,1,16.74,12.17,55.16,55.16,0,0,1,3.65,15.24,91.1,91.1,0,0,1-1,27.72,94.56,94.56,0,0,1-19.25,41.86c-16.87,20.67-33.82,24.83-34.1,23.46-1.27-2.06,12.92-9.27,26.12-29.27a94.63,94.63,0,0,0,14.52-38.19,84.85,84.85,0,0,0,.18-23.82c-1-8.79-4-16-7.26-15.19-4.08-.21-11.29,6.09-14.93,12.91a136.33,136.33,0,0,0-11.06,21.91,147.49,147.49,0,0,0-9.56,40.78C2449.17,12882.33,2452.87,12897.55,2450.67,12898.07Z" transform="translate(-423.53 -951.09)"/><path class="cls-4" d="M1621.71,8096.33s-130.53,5.71-216.54,450.2S658,12592.25,658,12592.25l478.8,4.37,903.29-3423.8-60,3529.73,486.45,37.24s365-3904.86,368.47-4132.05c4.29-283.26-158.38-569.77-158.38-569.77Z" transform="translate(-423.53 -951.09)"/><path class="cls-18" d="M2279.83,8058.27c3.05.65-46.51,254.56-110.95,567.12s-119,565.51-122,564.87,46.51-254.51,111-567.14S2276.78,8057.65,2279.83,8058.27Z" transform="translate(-423.53 -951.09)"/><path class="cls-18" d="M2354.5,8121.71c-.83-1.12,12.92-5.17,27.83,8.06a40.16,40.16,0,0,1,12.92,30.64c-.26,13.77-10.67,27.16-24.5,32.84s-30.61,4.06-40.64-5.37a40.19,40.19,0,0,1-12.92-30.75c.88-19.9,13.44-26.92,13.64-25.55,1.5,1.11-7,9.27-5.65,25.34a33.81,33.81,0,0,0,11.54,23c7.24,6.15,19,7.34,29.54,2.92s17.88-13.69,18.52-23.25a33.86,33.86,0,0,0-8.39-24.34C2366.08,8123.13,2354.27,8123.54,2354.5,8121.71Z" transform="translate(-423.53 -951.09)"/><path class="cls-18" d="M2333.75,8297.71c-.28-1.37,13.47.47,21,18.09a37.73,37.73,0,0,1-1.31,31.88c-6.05,11.84-20.91,18.81-35.17,17.55s-27.9-10.16-32-22.79a37.78,37.78,0,0,1,3.62-31.71c10.15-16.2,24-15.86,23.54-14.54.69,1.7-10.34,4.37-16.49,18.27a31.4,31.4,0,0,0-1,24.23c3.2,8.3,12.48,14.45,23.25,15.3s20.86-3.8,25.3-11.53a31.56,31.56,0,0,0,2.79-24.08C2343.16,8303.63,2332.8,8299.29,2333.75,8297.71Z" transform="translate(-423.53 -951.09)"/><path class="cls-18" d="M1874.9,8126.15c.67.23-1.06,8.22-5.69,22.27a367.77,367.77,0,0,1-25.24,57.34,421.57,421.57,0,0,1-333.31,219.62,365.9,365.9,0,0,1-62.63.57c-14.75-1.27-22.79-2.85-22.71-3.54,0-2.12,32.71,1.57,84.46-5a439.91,439.91,0,0,0,327.11-215.57C1863.45,8156.84,1872.91,8125.43,1874.9,8126.15Z" transform="translate(-423.53 -951.09)"/><path class="cls-18" d="M2806.56,8442.07c-.46.62-5.53-2.58-14.37-8.68a254.84,254.84,0,0,1-34.72-29.72c-27.57-27-60.1-71-81.6-126.42s-26.64-109.94-24.34-148.49a255.6,255.6,0,0,1,5.79-45.35c2.4-10.51,4.08-16.2,4.83-16,2,.36-2.58,23.69-2.58,61.57a402.34,402.34,0,0,0,103.76,269.23C2788.73,8426.2,2807.83,8440.42,2806.56,8442.07Z" transform="translate(-423.53 -951.09)"/><path class="cls-16" d="M1431.31,7239.76l212.75,11.75c13.44,69,60.15,174.43,60.15,174.43,171.23-297.13,304-695.47,337-855.51-4.81-16-10.49-33.59-17.6-53.44-8.19-22.81-1.16-66,2.58-90,5.74-35.63,15.71-83.56,18.71-105.75,9.12-67.64,20-78.26,43.59-70.62,32.09,10.34-13.15,189.94,13.15,193.79,14.13,2.12,31.42-59.43,36.43-109.86s27.83-205.7,44.52-216.06c24.44-15.17,45.76,8.83,39.58,59.09-6.25,50.87-14.13,202.54,12.54,204.58,26.27,2,48.34-255.33,48.34-255.33s-4.16-56,26.71-54.67c55.71,2.43,12.17,273.88,7.42,299.46-3.33,17.88,25.6,21.16,28.14,1.76,2.58-20,16.07-257.37,72.76-255.46,43.53,1.47-33.59,223.57-9.28,275.07s41.34-174.87,83-171.74c15.5,1.16,26.92,4.18-1.53,132.28-15.27,68.84-60.15,195.42-99.37,300.24C2325.12,7009,2036.23,8145.27,1583,7937.27,1329.44,7821,1211.1,7244.64,1211.1,7244.64Z" transform="translate(-423.53 -951.09)"/><path class="cls-17" d="M2391,6653.91a35.23,35.23,0,0,1,2.15-7.75c2-5.74,4.44-13.1,7.6-22.35l29.63-85.76c12.64-37.28,28.14-82.94,43.56-136.6,7.91-26.77,14.29-55.79,20.26-86.92,2.89-15.51,5.84-31.55,7.75-48a161.2,161.2,0,0,0,1.14-24.65c-.6-8.45-1.89-15.32-8.55-15.51-6.9-1.86-11.53,3.83-16.26,11a134,134,0,0,0-10.74,24c-6.08,17-10.83,35.22-15.51,53.77s-9.07,37.72-14.72,57.18c-3.41,9.84-4.91,19.32-12.92,29.89a11.8,11.8,0,0,1-5.95,3.57,10,10,0,0,1-8.13-1.84,26,26,0,0,1-6-8.16,56.69,56.69,0,0,1-4.58-16.54c-3.87-43.46,6.05-85.47,12.92-129.19,3.72-21.73,7.75-43.74,10.52-66a306.55,306.55,0,0,0,2.58-33.44c.42-10.33-1.39-24.13-5.89-26.09-5.53-2.1-15.5,4.18-20.88,13.38a138.83,138.83,0,0,0-14.18,30.7,473.8,473.8,0,0,0-16.64,69.29c-4.13,23.85-7.36,48.17-10,72.79q-1.77,18.5-3.61,37.18l-1.66,18.81c-.46,5.17-.46,15.73-8.6,21.83a22.1,22.1,0,0,1-25.61,1,17.91,17.91,0,0,1-7.75-12.33,22.93,22.93,0,0,1,0-6.92l.8-4.65q2.92-18.84,5.82-37.85c3.56-25.43,6.66-51.14,9.12-77.08s4.24-52.11,4.65-78.36-.16-53.26-7.75-77.08c-2.59-7.21-6.46-13.8-10.93-15.68a13.53,13.53,0,0,0-14.63,4.67c-7.49,10.55-8.73,27.94-8.14,42.07v1.08c-4.62,50.9-10.15,100.93-17.49,150.1a737.85,737.85,0,0,1-14,73q-2.27,9-5.5,18.09c-2.87,6-3.67,12.12-12.25,18.71a13.19,13.19,0,0,1-15.91-3.49,30.63,30.63,0,0,1-5.89-9.8,96.09,96.09,0,0,1-4.89-18.65c-6.87-48.83-4-95.81-1.29-141.88.93-23.25,6.56-46.07,3.52-66.4-1.45-10.08-5.41-20.18-12.1-24.67a13.81,13.81,0,0,0-11.11-1.71,27.12,27.12,0,0,0-6,2.58c-2,1.63-1.55,1-3.05,3.78-8.42,17.67-12.53,40-17.08,60.3-4.26,20.67-7.9,41.34-11.21,61.68s-6.23,40.46-8.81,60.25-4,39.53-7.91,58.89a315.79,315.79,0,0,1-15.14,56,112.78,112.78,0,0,1-6.25,13.31c-3,4.06-4.75,9.38-12.92,11.91-4.75,1.32-8.84-1.94-11-4.62a27.27,27.27,0,0,1-3.41-8,80.49,80.49,0,0,1-1.76-14.42c-.46-36.92,5-70.77,6.85-103.35,1-16.23,1.76-32.25,0-47.05-1-6.95-3.2-15.12-7.18-16.72-5.79-2.33-13.28-3.54-17.62-.39-9.59,6.9-12.92,22.74-16,35.45-3.05,13.38-4.44,26.67-6.92,39.48-9,51.21-18.56,95.21-23.26,131.18-2.09,18.09-3,34.18-.67,47.7,3,13.12,7.39,24.72,9.92,33.82l6.2,20.93a32.24,32.24,0,0,1,1.71,7.26,33.11,33.11,0,0,1-3-6.87c-1.94-5.17-4.36-12.05-7.44-20.49-3-9.23-7.52-19.77-11.24-33.93-2.79-14.16-2.27-30.69-.54-49,3.93-36.61,12.69-80.28,21-131.77,2.29-12.77,3.53-26.31,6.51-40.11a155.91,155.91,0,0,1,5.68-21c2.77-6.84,5.69-14.7,13.57-19.86,8.39-5.17,17.69-3.34,25.58-.34,10.15,5.81,10.51,15.5,12.29,23.25,2.2,16.2,1.5,32.38.65,48.89-1.58,32.86-6.72,67.44-6,102.39a69.05,69.05,0,0,0,1.55,12.41c.91,4.21,3.08,5.84,2.59,5,.77.15,4.08-3.59,5.94-7a95,95,0,0,0,5.48-12,306.6,306.6,0,0,0,14.23-54.13c3.62-18.71,4.83-38.24,7.47-58.34s5.32-40.15,8.53-60.64,6.77-41.34,11-62.25c4.81-21.11,7.75-42,18.09-63.95a21,21,0,0,1,7.75-8.32,38.91,38.91,0,0,1,9.1-3.82,26.21,26.21,0,0,1,20.67,3.26c11.91,8.39,15.68,21.47,17.67,33.09a131.4,131.4,0,0,1-.16,35.38c-1.26,11.11-2.19,22.45-3,33.79-2.59,45.32-5.17,92.79,1.5,138.75a84.73,84.73,0,0,0,4.16,16,19.11,19.11,0,0,0,3.23,5.6,2.09,2.09,0,0,0,1.08.86h0a19.79,19.79,0,1,1-.15,2.06c0-.95-.26-.77-.88-1.86a41,41,0,0,0,6.28-11.88q2.86-8.15,5.16-16.82c5.89-23.1,9.87-47.29,13.57-71.6,7.21-48.73,12.68-98.7,17.26-149.27v1.06c-.26-16.66-.55-34.1,11-51.36a26.86,26.86,0,0,1,30.23-8.84c11.27,5.17,15.51,15.35,18.58,23.7,8.6,27.69,8.29,54.87,8.37,81.69-.41,26.8-2.27,53.28-4.73,79.46s-5.65,52.06-9.3,77.67c-2,12.78-4,25.55-5.89,38.24-1.63,8.06-1.24,8.31,1.16,10.69a9.17,9.17,0,0,0,10.08-.39c2.77-1.86,3.1-5.63,3.7-12.66l1.65-18.81q1.91-18.81,3.75-37.43c2.73-24.84,6-49.38,10.33-73.59a483.51,483.51,0,0,1,17.36-71.18,149.69,149.69,0,0,1,15.76-33.59,48.5,48.5,0,0,1,13.91-14.37c6.25-3.59,13.15-6.85,22.53-3.26,8.88,4.86,10.33,13.1,11.8,19.1a104.84,104.84,0,0,1,1.17,18.4,312.78,312.78,0,0,1-3,34.85c-3,22.71-7,44.78-10.88,66.51-7.05,43.15-16.82,86.09-13.43,125.52a47.75,47.75,0,0,0,3.46,13.23,20,20,0,0,0,2.79,4.31c0-.23-.18-.39-.54,1-.18,1.76,0-.39-.21,0-.8-1.35-.21-1,0-1.42,4.57-5.64,7.75-16.49,10.62-25.43,5.63-18.89,10.13-38,15-56.66s9.79-37,16.23-54.62a141.33,141.33,0,0,1,11.81-25.71,42.88,42.88,0,0,1,9.87-11.47,20,20,0,0,1,7.75-3.85,24.22,24.22,0,0,1,8.32,0,16.76,16.76,0,0,1,13.69,10,41.43,41.43,0,0,1,2.77,14.34,174.91,174.91,0,0,1-1.42,26.18c-2,16.87-5.17,32.94-8.25,48.6-6.3,31-13.15,60.54-21.44,87.36-16.18,53.74-32.43,99.19-45.84,136.27s-24.44,65.62-32,84.92c-3.64,9.07-6.56,16.28-8.83,21.92A38.39,38.39,0,0,1,2391,6653.91Z" transform="translate(-423.53 -951.09)"/><path class="cls-19" d="M1208.69,7264.35c41.16,145.21,121.44,369.48,208,606.08,12.48,34.19,60,36.41,75.6,3.52l211.87-448s-51-368.06-46.71-355.09-437.21,47.62-437.21,47.62Z" transform="translate(-423.53 -951.09)"/><path class="cls-20" d="M1686,7192.14c.49,1.8-26.31,9.58-68.27,25.58a958.05,958.05,0,0,0-297.88,180.65c-33.59,29.79-52.87,50-54.26,48.71-.57-.52,3.67-6.07,11.88-15.74s20.67-23,36.95-38.75a804.78,804.78,0,0,1,300.7-182.39c21.5-7.11,39.15-12.1,51.52-14.78S1685.77,7191.34,1686,7192.14Z" transform="translate(-423.53 -951.09)"/><path class="cls-15" d="M1770,7303.86c-1.12.83-15.51-16.18-35.35-46.25A770,770,0,0,1,1627.4,6999c-7.29-35.27-9.12-57.49-7.75-57.69s6.33,21.39,15.5,55.86a1023.19,1023.19,0,0,0,106.24,256.21C1759.27,7284.35,1771.37,7302.85,1770,7303.86Z" transform="translate(-423.53 -951.09)"/><path class="cls-15" d="M1911.3,5319.61c-74.12,119.81-89.86,274.79-41.34,407.36,21.76,59.43,56.23,118.29,50,181.44-6.46,64.59-55.53,125.78-38.19,188.36,10.33,37,42,64.43,54.26,100.76,14.29,42.71-.59,88.94-7.39,133.51-17.31,113.42,18.94,227.37,27.93,341.91s-21.91,248.33-124,298.25c-31,15.16-71.57,19.53-97.36-3.6-32.76-29.37-23.64-82.11-14.67-125.46,89.68-433.59-187.33-856-124-1294.27,10.16-70.26,49.38-189.47,100-238.64s190.48-43.18,238.36,8.68" transform="translate(-423.53 -951.09)"/><path class="cls-18" d="M1484.67,6576.14c-.9-.75,12.92-15.51,32.5-46.33A416,416,0,0,0,1573.76,6388a421,421,0,0,0,6.69-105.34c-1.68-38.14-7-79.17-4.47-123.07a263.44,263.44,0,0,1,12.43-66.35,362.1,362.1,0,0,1,29.74-63.61c24.23-41,54.93-79.17,83-119.94s51.39-83.64,58.93-129.19-.59-90.43-7.54-132.91c-7.52-42.45-12.69-84.23-9.56-123.09a412.27,412.27,0,0,1,20.67-105.68,405.41,405.41,0,0,1,76.55-134.8,299.46,299.46,0,0,1,29.46-30.25c7.23-6.41,11.16-9.61,11.42-9.3.83.85-14.6,14.1-37.52,42.37a420.71,420.71,0,0,0-72.34,134.36,413.73,413.73,0,0,0-19,103.74c-2.58,38,2.58,78.31,10.34,120.81,7.18,42.3,16,88.42,8.21,136.43s-32.11,92.6-60.54,133.71-59,79.19-82.68,119.16a357.6,357.6,0,0,0-29,61.42,253.32,253.32,0,0,0-12.27,63.64c-2.79,42.5,2.14,83.4,3.43,122a422.14,422.14,0,0,1-8.19,107.33A401,401,0,0,1,1520.74,6532a345.22,345.22,0,0,1-25.84,33.44C1488.47,6572.78,1485,6576.39,1484.67,6576.14Z" transform="translate(-423.53 -951.09)"/><path class="cls-18" d="M1279.18,6608.56c-.34-.18,2-5.17,6.72-14.52l21.06-40.67c18.08-35.32,45.26-86.12,72-151.77,26.15-65.4,52.09-147.28,52.89-240.68a444.7,444.7,0,0,0-5.29-71.05c-3.72-24.08-9.33-48.63-12.92-74.26s-5.17-52.76,1.65-79.66,23.64-50.95,44.06-69.53c40.85-37.13,90.09-61.29,115.54-104.75,26.07-42.71,31.84-92.81,38.4-138.9,5.63-46.51,14.57-91.44,29.82-130.87a467.42,467.42,0,0,1,175.36-221.3,347,347,0,0,1,39.63-23.26c9.41-4.65,14.42-6.92,14.6-6.56.57,1.09-19.43,10.54-51.68,33.38A473,473,0,0,0,1704.7,5393,457,457,0,0,0,1652,5495.08c-14.6,38.76-22.92,82.24-28.42,129-6.41,46.12-11.68,97.56-39.28,143.29-27.59,46.79-78.57,71.65-117.27,107.26-19.54,17.82-34.68,39.48-40.91,64.07s-4.88,50.41-1.55,75.32,8.94,49.56,12.64,74.13a452.28,452.28,0,0,1,5.17,72.78c-1.42,95.42-28.61,178.1-55.92,243.66-27.85,65.75-56.14,116.08-75.47,150.81L1288,6595C1282.57,6604.12,1279.57,6608.74,1279.18,6608.56Z" transform="translate(-423.53 -951.09)"/></svg>