<svg width="15" height="15" viewBox="0 0 15 15" fill="none" xmlns="http://www.w3.org/2000/svg">
<path fill-rule="evenodd" clip-rule="evenodd" d="M7.34699 0.58606C3.36744 0.58606 0.141357 3.8127 0.141357 7.79303C0.141357 11.7733 3.36744 15 7.34699 15C11.3266 15 14.5526 11.7733 14.5526 7.79303C14.5526 3.8127 11.3266 0.58606 7.34699 0.58606ZM7.34699 13.5586C4.16845 13.5586 1.58248 10.9722 1.58248 7.79303C1.58248 4.6139 4.16845 2.02745 7.34699 2.02745C10.5256 2.02745 13.1115 4.6139 13.1115 7.79303C13.1115 10.9722 10.5256 13.5586 7.34699 13.5586ZM8.24927 4.91024C8.24927 5.43278 7.86889 5.81111 7.35431 5.81111C6.81891 5.81111 6.44786 5.43278 6.44786 4.90025C6.44786 4.38842 6.82895 4.00937 7.35431 4.00937C7.86889 4.00937 8.24927 4.38842 8.24927 4.91024ZM6.628 7.07233H8.06913V11.3965H6.628V7.07233Z" fill="#9098B1"/>
</svg>
