<svg width="30" height="31" viewBox="0 0 30 31" fill="none" xmlns="http://www.w3.org/2000/svg">
<path d="M23.75 6.78125H6.25C5.67085 6.78465 5.11636 7.02388 4.70682 7.44705C4.2973 7.87024 4.06579 8.44321 4.0625 9.04167V21.9583C4.06579 22.5568 4.2973 23.1297 4.70682 23.5529C5.11636 23.9762 5.67085 24.2154 6.25 24.2188H23.75C24.3291 24.2154 24.8836 23.9762 25.2931 23.5529C25.7027 23.1297 25.9342 22.5568 25.9375 21.9583V9.04167C25.9342 8.44321 25.7027 7.87024 25.2931 7.44705C24.8836 7.02388 24.3291 6.78465 23.75 6.78125ZM6.25 8.71875H23.75C23.8329 8.71875 23.9124 8.75277 23.971 8.81333C24.0296 8.87389 24.0625 8.95603 24.0625 9.04167V11.9479H5.9375V9.04167C5.9375 8.95603 5.97042 8.87389 6.02902 8.81333C6.08764 8.75277 6.16712 8.71875 6.25 8.71875ZM23.75 22.2812H6.25C6.16712 22.2812 6.08764 22.2473 6.02902 22.1867C5.97042 22.1261 5.9375 22.044 5.9375 21.9583V13.8854H24.0625V21.9583C24.0625 22.044 24.0296 22.1261 23.971 22.1867C23.9124 22.2473 23.8329 22.2812 23.75 22.2812Z" fill="#9098B1"/>
<path d="M11.25 16.792H8.75C8.41847 16.792 8.10054 16.9281 7.86611 17.1703C7.6317 17.4125 7.5 17.7411 7.5 18.0837C7.5 18.4262 7.6317 18.7548 7.86611 18.997C8.10054 19.2392 8.41847 19.3753 8.75 19.3753H11.25C11.5815 19.3753 11.8995 19.2392 12.1339 18.997C12.3683 18.7548 12.5 18.4262 12.5 18.0837C12.5 17.7411 12.3683 17.4125 12.1339 17.1703C11.8995 16.9281 11.5815 16.792 11.25 16.792Z" fill="#9098B1"/>
</svg>
