<svg width="44" height="44" viewBox="0 0 44 44" fill="none" xmlns="http://www.w3.org/2000/svg">
<path d="M44 0H40.5625V1.375H42.625V4.125H44V0ZM37.125 0H33.6875V1.375H37.125V0ZM30.25 0H26.8125V1.375H30.25V0ZM23.375 0H19.9375V1.375H23.375V0ZM16.5 0H13.0625V1.375H16.5V0ZM9.625 0H6.1875V1.375H9.625V0ZM2.75 0H0V1.375H2.75V0ZM1.375 4.125H0V7.5625H1.375V4.125ZM1.375 11H0V14.4375H1.375V11ZM1.375 17.875H0V21.3125H1.375V17.875ZM1.375 24.75H0V28.1875H1.375V24.75ZM1.375 31.625H0V35.0625H1.375V31.625ZM1.375 38.5H0V41.9375H1.375V38.5ZM4.8125 42.625H1.375V44H4.8125V42.625ZM11.6875 42.625H8.25V44H11.6875V42.625ZM18.5625 42.625H15.125V44H18.5625V42.625ZM25.4375 42.625H22V44H25.4375V42.625ZM32.3125 42.625H28.875V44H32.3125V42.625ZM39.1875 42.625H35.75V44H39.1875V42.625ZM44 41.9375H42.625V42.625V44H44V41.9375ZM44 35.0625H42.625V38.5H44V35.0625ZM44 28.1875H42.625V31.625H44V28.1875ZM44 21.3125H42.625V24.75H44V21.3125ZM44 14.4375H42.625V17.875H44V14.4375ZM44 7.5625H42.625V11H44V7.5625Z" fill="#371400"/>
<path d="M23.0312 15.123H20.9688V28.8799H23.0312V15.123Z" fill="#E21B1B"/>
<path d="M28.8798 20.9688H15.1229V23.0312H28.8798V20.9688Z" fill="#E21B1B"/>
</svg>
