<svg width="28" height="34" viewBox="0 0 28 34" fill="none" xmlns="http://www.w3.org/2000/svg">
<path d="M22.1667 26.5625H5.83335C5.29281 26.5588 4.77529 26.2965 4.39306 25.8322C4.01083 25.3681 3.79476 24.7397 3.79169 24.0833V9.91667C3.79476 9.2603 4.01083 8.63188 4.39306 8.16773C4.77529 7.70361 5.29281 7.44123 5.83335 7.4375H22.1667C22.7072 7.44123 23.2247 7.70361 23.6069 8.16773C23.9893 8.63188 24.2053 9.2603 24.2084 9.91667V24.0833C24.2053 24.7397 23.9893 25.3681 23.6069 25.8322C23.2247 26.2965 22.7072 26.5588 22.1667 26.5625ZM5.83335 9.5625C5.756 9.5625 5.68182 9.59981 5.62711 9.66623C5.57242 9.73266 5.54169 9.82274 5.54169 9.91667V24.0833C5.54169 24.1773 5.57242 24.2674 5.62711 24.3338C5.68182 24.4002 5.756 24.4375 5.83335 24.4375H22.1667C22.244 24.4375 22.3182 24.4002 22.373 24.3338C22.4277 24.2674 22.4584 24.1773 22.4584 24.0833V9.91667C22.4584 9.82274 22.4277 9.73266 22.373 9.66623C22.3182 9.59981 22.244 9.5625 22.1667 9.5625H5.83335Z" fill="#9098B1"/>
<path d="M10.5 16.6462C10.0385 16.6462 9.58741 16.48 9.20369 16.1686C8.81997 15.8574 8.52091 15.4148 8.3443 14.8971C8.1677 14.3793 8.12149 13.8097 8.21152 13.2601C8.30155 12.7105 8.52378 12.2056 8.85011 11.8094C9.17642 11.4131 9.59219 11.1433 10.0448 11.0339C10.4974 10.9246 10.9666 10.9807 11.393 11.1952C11.8193 11.4096 12.1838 11.7728 12.4401 12.2387C12.6965 12.7047 12.8334 13.2524 12.8334 13.8128C12.8334 14.5642 12.5875 15.2849 12.1499 15.8163C11.7123 16.3477 11.1189 16.6462 10.5 16.6462ZM10.5 13.1045C10.3846 13.1045 10.2719 13.146 10.1759 13.2239C10.08 13.3017 10.0052 13.4123 9.96109 13.5418C9.91694 13.6712 9.90539 13.8136 9.9279 13.951C9.9504 14.0884 10.006 14.2146 10.0875 14.3138C10.1691 14.4128 10.2731 14.4802 10.3862 14.5076C10.4994 14.5349 10.6167 14.5209 10.7233 14.4672C10.8298 14.4136 10.921 14.3228 10.985 14.2064C11.0491 14.0899 11.0834 13.9529 11.0834 13.8128C11.0834 13.625 11.0219 13.4448 10.9125 13.312C10.8031 13.1791 10.6547 13.1045 10.5 13.1045Z" fill="#9098B1"/>
<path d="M14 22.3128C13.7689 22.3091 13.548 22.1961 13.3846 21.9976C13.2211 21.7991 13.128 21.531 13.125 21.2503C13.125 20.287 12.9267 19.4795 10.5 19.4795C8.07333 19.4795 7.875 20.287 7.875 21.2503C7.875 21.5321 7.78281 21.8024 7.61872 22.0016C7.45463 22.2009 7.23206 22.3128 7 22.3128C6.76794 22.3128 6.54537 22.2009 6.38128 22.0016C6.21719 21.8024 6.125 21.5321 6.125 21.2503C6.125 17.3545 9.415 17.3545 10.5 17.3545C11.585 17.3545 14.875 17.3545 14.875 21.2503C14.872 21.531 14.7789 21.7991 14.6154 21.9976C14.452 22.1961 14.2311 22.3091 14 22.3128Z" fill="#9098B1"/>
<path d="M19.8333 15.2295H16.3333C16.1013 15.2295 15.8787 15.1176 15.7146 14.9183C15.5505 14.7191 15.4583 14.4488 15.4583 14.167C15.4583 13.8852 15.5505 13.6149 15.7146 13.4157C15.8787 13.2164 16.1013 13.1045 16.3333 13.1045H19.8333C20.0654 13.1045 20.288 13.2164 20.452 13.4157C20.6161 13.6149 20.7083 13.8852 20.7083 14.167C20.7083 14.4488 20.6161 14.7191 20.452 14.9183C20.288 15.1176 20.0654 15.2295 19.8333 15.2295Z" fill="#9098B1"/>
<path d="M18.6666 19.4795H16.3333C16.1013 19.4795 15.8787 19.3676 15.7146 19.1683C15.5505 18.9691 15.4583 18.6988 15.4583 18.417C15.4583 18.1352 15.5505 17.8649 15.7146 17.6657C15.8787 17.4664 16.1013 17.3545 16.3333 17.3545H18.6666C18.8987 17.3545 19.1213 17.4664 19.2853 17.6657C19.4495 17.8649 19.5416 18.1352 19.5416 18.417C19.5416 18.6988 19.4495 18.9691 19.2853 19.1683C19.1213 19.3676 18.8987 19.4795 18.6666 19.4795Z" fill="#9098B1"/>
</svg>
