<svg width="26" height="26" viewBox="0 0 26 26" fill="none" xmlns="http://www.w3.org/2000/svg">
<path d="M11.375 6.5H10.2917C9.99251 6.5 9.75 6.74251 9.75 7.04167V8.125C9.75 8.42415 9.99251 8.66667 10.2917 8.66667H11.375C11.6741 8.66667 11.9167 8.42415 11.9167 8.125V7.04167C11.9167 6.74251 11.6741 6.5 11.375 6.5Z" fill="#9098B1"/>
<path d="M15.7083 6.5H14.625C14.3259 6.5 14.0833 6.74251 14.0833 7.04167V8.125C14.0833 8.42415 14.3259 8.66667 14.625 8.66667H15.7083C16.0075 8.66667 16.25 8.42415 16.25 8.125V7.04167C16.25 6.74251 16.0075 6.5 15.7083 6.5Z" fill="#9098B1"/>
<path d="M11.375 10.292H10.2917C9.99251 10.292 9.75 10.5345 9.75 10.8337V11.917C9.75 12.2161 9.99251 12.4587 10.2917 12.4587H11.375C11.6741 12.4587 11.9167 12.2161 11.9167 11.917V10.8337C11.9167 10.5345 11.6741 10.292 11.375 10.292Z" fill="#9098B1"/>
<path d="M15.7083 10.292H14.625C14.3259 10.292 14.0833 10.5345 14.0833 10.8337V11.917C14.0833 12.2161 14.3259 12.4587 14.625 12.4587H15.7083C16.0075 12.4587 16.25 12.2161 16.25 11.917V10.8337C16.25 10.5345 16.0075 10.292 15.7083 10.292Z" fill="#9098B1"/>
<path d="M11.375 14.083H10.2917C9.99251 14.083 9.75 14.3256 9.75 14.6247V15.708C9.75 16.0071 9.99251 16.2497 10.2917 16.2497H11.375C11.6741 16.2497 11.9167 16.0071 11.9167 15.708V14.6247C11.9167 14.3256 11.6741 14.083 11.375 14.083Z" fill="#9098B1"/>
<path d="M15.7083 14.083H14.625C14.3259 14.083 14.0833 14.3256 14.0833 14.6247V15.708C14.0833 16.0071 14.3259 16.2497 14.625 16.2497H15.7083C16.0075 16.2497 16.25 16.0071 16.25 15.708V14.6247C16.25 14.3256 16.0075 14.083 15.7083 14.083Z" fill="#9098B1"/>
<path d="M19.7709 20.8538H19.2292V4.33301C19.2264 4.11839 19.1399 3.91336 18.9881 3.76158C18.8364 3.60982 18.6313 3.52331 18.4167 3.52051H7.58335C7.36873 3.52331 7.1637 3.60982 7.01193 3.76158C6.86016 3.91336 6.77366 4.11839 6.77085 4.33301V20.8538H6.22919C6.0137 20.8538 5.80703 20.9394 5.65466 21.0918C5.50229 21.2442 5.41669 21.4509 5.41669 21.6663C5.41669 21.8818 5.50229 22.0885 5.65466 22.2408C5.80703 22.3933 6.0137 22.4788 6.22919 22.4788H19.7709C19.9863 22.4788 20.193 22.3933 20.3453 22.2408C20.4978 22.0885 20.5834 21.8818 20.5834 21.6663C20.5834 21.4509 20.4978 21.2442 20.3453 21.0918C20.193 20.9394 19.9863 20.8538 19.7709 20.8538ZM17.6042 20.8538H11.9167V18.4163C11.9167 18.2727 11.8596 18.1349 11.7581 18.0333C11.6565 17.9318 11.5187 17.8747 11.375 17.8747H10.2917C10.148 17.8747 10.0102 17.9318 9.90867 18.0333C9.80709 18.1349 9.75002 18.2727 9.75002 18.4163V20.8538H8.39585V5.14551H17.6042V20.8538Z" fill="#9098B1"/>
</svg>
