<svg width="112" height="112" viewBox="0 0 112 112" fill="none" xmlns="http://www.w3.org/2000/svg">
<g filter="url(#filter0_d_11_552)">
<rect x="4" width="104" height="104" rx="52" fill="#371300"/>
</g>
<path d="M42.6591 82V70.3636H46.7273C47.5379 70.3636 48.2064 70.5038 48.733 70.7841C49.2595 71.0606 49.6515 71.4337 49.9091 71.9034C50.1667 72.3693 50.2955 72.8864 50.2955 73.4545C50.2955 73.9545 50.2064 74.3674 50.0284 74.6932C49.8542 75.0189 49.6231 75.2765 49.3352 75.4659C49.0511 75.6553 48.7424 75.7955 48.4091 75.8864V76C48.7652 76.0227 49.1231 76.1477 49.483 76.375C49.8428 76.6023 50.1439 76.928 50.3864 77.3523C50.6288 77.7765 50.75 78.2955 50.75 78.9091C50.75 79.4924 50.6174 80.017 50.3523 80.483C50.0871 80.9489 49.6686 81.3182 49.0966 81.5909C48.5246 81.8636 47.7803 82 46.8636 82H42.6591ZM44.0682 80.75H46.8636C47.7841 80.75 48.4375 80.572 48.8239 80.2159C49.214 79.8561 49.4091 79.4205 49.4091 78.9091C49.4091 78.5152 49.3087 78.1515 49.108 77.8182C48.9072 77.4811 48.6212 77.2121 48.25 77.0114C47.8788 76.8068 47.4394 76.7045 46.9318 76.7045H44.0682V80.75ZM44.0682 75.4773H46.6818C47.1061 75.4773 47.4886 75.3939 47.8295 75.2273C48.1742 75.0606 48.447 74.8258 48.6477 74.5227C48.8523 74.2197 48.9545 73.8636 48.9545 73.4545C48.9545 72.9432 48.7765 72.5095 48.4205 72.1534C48.0644 71.7936 47.5 71.6136 46.7273 71.6136H44.0682V75.4773ZM58.3835 78.4318V73.2727H59.7244V82H58.3835V80.5227H58.2926C58.0881 80.9659 57.7699 81.3428 57.3381 81.6534C56.9063 81.9602 56.3608 82.1136 55.7017 82.1136C55.1562 82.1136 54.6714 81.9943 54.2472 81.7557C53.8229 81.5133 53.4896 81.1496 53.2472 80.6648C53.0047 80.1761 52.8835 79.5606 52.8835 78.8182V73.2727H54.2244V78.7273C54.2244 79.3636 54.4025 79.8712 54.7585 80.25C55.1184 80.6288 55.5767 80.8182 56.1335 80.8182C56.4669 80.8182 56.8059 80.733 57.1506 80.5625C57.4991 80.392 57.7907 80.1307 58.0256 79.7784C58.2642 79.4261 58.3835 78.9773 58.3835 78.4318ZM63.044 85.2727C62.8168 85.2727 62.6141 85.2538 62.4361 85.2159C62.258 85.1818 62.1349 85.1477 62.0668 85.1136L62.4077 83.9318C62.7334 84.0152 63.0213 84.0455 63.2713 84.0227C63.5213 84 63.7429 83.8883 63.9361 83.6875C64.133 83.4905 64.313 83.1705 64.4759 82.7273L64.7259 82.0455L61.4986 73.2727H62.9531L65.3622 80.2273H65.4531L67.8622 73.2727H69.3168L65.6122 83.2727C65.4455 83.7235 65.2391 84.0966 64.9929 84.392C64.7467 84.6913 64.4607 84.9129 64.1349 85.0568C63.813 85.2008 63.4493 85.2727 63.044 85.2727Z" fill="white"/>
<path d="M66.6914 64.8359C65.3203 64.8359 64.2305 63.7461 64.2305 62.375C64.2305 61.0039 65.3203 59.9141 66.6914 59.9141C68.0625 59.9141 69.1523 61.0039 69.1523 62.375C69.1523 63.7461 68.0273 64.8359 66.6914 64.8359ZM47.0039 64.8359C45.6328 64.8359 44.543 63.7461 44.543 62.375C44.543 61.0039 45.6328 59.9141 47.0039 59.9141C48.375 59.9141 49.4648 61.0039 49.4648 62.375C49.4648 63.7461 48.3398 64.8359 47.0039 64.8359ZM46.6172 57.8047C44.7539 57.8047 43.1367 56.3281 42.9258 54.4648L40.5352 37.6602L39.1641 29.8203C39.0586 28.9766 38.3203 28.2734 37.5117 28.2734H35.7188C35.1211 28.2734 34.6641 27.8164 34.6641 27.2188C34.6641 26.6211 35.1211 26.1641 35.7188 26.1641H37.5117C39.375 26.1641 41.0273 27.6406 41.2734 29.5039L42.6445 37.3438L45.0352 54.1836C45.1055 54.9922 45.8438 55.6953 46.6172 55.6953H69.4688C70.0664 55.6953 70.5234 56.1523 70.5234 56.75C70.5234 57.3477 70.0664 57.8047 69.4688 57.8047H46.6172ZM48.375 52.1797C47.8125 52.1797 47.3555 51.7578 47.3203 51.1953C47.2852 50.9141 47.3906 50.6328 47.5664 50.4219C47.7422 50.2109 48.0234 50.0703 48.2695 50.0703L67.3594 48.6641C68.2031 48.6641 68.9414 47.9961 69.0469 47.1875L71.2617 34.5312C71.332 33.9336 71.1562 33.3008 70.8047 32.9141C70.5586 32.6328 70.2422 32.4922 69.8555 32.4922H45.5625C44.9648 32.4922 44.5078 32.0352 44.5078 31.4375C44.5078 30.8398 44.9648 30.3828 45.5625 30.3828H69.9258C70.9102 30.3828 71.7891 30.8047 72.457 31.5078C73.1953 32.3516 73.5469 33.582 73.4062 34.8125L71.1914 47.4688C70.9805 49.2969 69.3281 50.7383 67.5 50.7383L48.5156 52.1445C48.4453 52.1797 48.4102 52.1797 48.375 52.1797Z" fill="white"/>
<defs>
<filter id="filter0_d_11_552" x="0" y="0" width="112" height="112" filterUnits="userSpaceOnUse" color-interpolation-filters="sRGB">
<feFlood flood-opacity="0" result="BackgroundImageFix"/>
<feColorMatrix in="SourceAlpha" type="matrix" values="0 0 0 0 0 0 0 0 0 0 0 0 0 0 0 0 0 0 127 0" result="hardAlpha"/>
<feOffset dy="4"/>
<feGaussianBlur stdDeviation="2"/>
<feComposite in2="hardAlpha" operator="out"/>
<feColorMatrix type="matrix" values="0 0 0 0 0 0 0 0 0 0 0 0 0 0 0 0 0 0 0.25 0"/>
<feBlend mode="normal" in2="BackgroundImageFix" result="effect1_dropShadow_11_552"/>
<feBlend mode="normal" in="SourceGraphic" in2="effect1_dropShadow_11_552" result="shape"/>
</filter>
</defs>
</svg>
