<svg width="32" height="29" viewBox="0 0 32 29" fill="none" xmlns="http://www.w3.org/2000/svg">
<path d="M13.125 26.5312C13.125 26.9639 12.9967 27.3868 12.7563 27.7466C12.516 28.1063 12.1743 28.3867 11.7746 28.5522C11.3749 28.7178 10.9351 28.7611 10.5107 28.6767C10.0864 28.5923 9.69663 28.384 9.3907 28.078C9.08478 27.7721 8.87644 27.3823 8.79203 26.958C8.70763 26.5337 8.75095 26.0938 8.91651 25.6941C9.08208 25.2944 9.36246 24.9528 9.72219 24.7124C10.0819 24.472 10.5049 24.3438 10.9375 24.3438C11.5177 24.3438 12.0741 24.5742 12.4843 24.9845C12.8945 25.3947 13.125 25.9511 13.125 26.5312ZM25.1562 24.3438C24.7236 24.3438 24.3007 24.472 23.9409 24.7124C23.5812 24.9528 23.3008 25.2944 23.1353 25.6941C22.9697 26.0938 22.9264 26.5337 23.0108 26.958C23.0952 27.3823 23.3035 27.7721 23.6095 28.078C23.9154 28.384 24.3052 28.5923 24.7295 28.6767C25.1538 28.7611 25.5937 28.7178 25.9934 28.5522C26.3931 28.3867 26.7347 28.1063 26.9751 27.7466C27.2155 27.3868 27.3438 26.9639 27.3438 26.5312C27.3438 25.9511 27.1133 25.3947 26.703 24.9845C26.2928 24.5742 25.7364 24.3438 25.1562 24.3438ZM31.6709 7.16504L27.7703 19.8402C27.566 20.5122 27.1506 21.1003 26.5856 21.5175C26.0207 21.9347 25.3363 22.1587 24.634 22.1562H11.4939C10.7816 22.1536 10.0893 21.9202 9.52069 21.4911C8.95209 21.062 8.5378 20.4603 8.33984 19.776L3.39336 2.46875H1.09375C0.803669 2.46875 0.52547 2.35352 0.320352 2.1484C0.115234 1.94328 0 1.66508 0 1.375C0 1.08492 0.115234 0.80672 0.320352 0.601602C0.52547 0.396484 0.803669 0.28125 1.09375 0.28125H3.39336C3.86833 0.282826 4.33002 0.438187 4.70932 0.724079C5.08862 1.00997 5.36513 1.41102 5.49746 1.86719L6.60625 5.75H30.625C30.7962 5.74994 30.9649 5.79004 31.1178 5.8671C31.2706 5.94415 31.4032 6.05599 31.505 6.19363C31.6067 6.33128 31.6747 6.49088 31.7035 6.65959C31.7324 6.82831 31.7212 7.00143 31.6709 7.16504ZM29.1443 7.9375H7.23105L10.4426 19.1758C10.5079 19.4042 10.6459 19.6052 10.8355 19.7482C11.0252 19.8913 11.2564 19.9687 11.4939 19.9688H24.634C24.868 19.9688 25.0959 19.8938 25.2842 19.7548C25.4724 19.6158 25.6111 19.42 25.6799 19.1963L29.1443 7.9375Z" fill="#371400"/>
</svg>
