<svg width="12" height="18" viewBox="0 0 12 18" fill="none" xmlns="http://www.w3.org/2000/svg">
<path d="M9.54095 0H2.45899C1.40023 0.00118033 0.542135 0.859279 0.540955 1.91803V16.082C0.542135 17.1407 1.40023 17.9988 2.45899 18H9.54095C10.5997 17.9994 11.4584 17.1407 11.459 16.082V1.91803C11.4578 0.859279 10.5997 0.00118033 9.54095 0ZM9.98358 16.082C9.98358 16.3263 9.78528 16.5246 9.54095 16.5246H2.45899C2.21466 16.5246 2.01636 16.3263 2.01636 16.082V1.91803C2.01695 1.6737 2.21466 1.476 2.45899 1.47541H9.54095C9.78528 1.47541 9.98358 1.6737 9.98358 1.91803V16.082ZM5.37381 14.2873C5.21387 14.4431 5.11473 14.6609 5.11473 14.901C5.11473 14.9022 5.11473 14.9034 5.11473 14.9046C5.11473 15.0273 5.14069 15.1442 5.18791 15.2492L5.18554 15.2439C5.22804 15.3555 5.29236 15.4505 5.37381 15.5272L5.3744 15.5278C5.52784 15.6877 5.74325 15.7875 5.98168 15.7875C5.98817 15.7875 5.99466 15.7875 6.00115 15.7875H5.99997C6.12332 15.7857 6.24017 15.7645 6.34994 15.7261L6.34227 15.7285C6.45204 15.6765 6.54587 15.6092 6.62495 15.5278C6.70699 15.4505 6.77132 15.3555 6.81204 15.2492L6.81381 15.2439C6.85866 15.1442 6.88463 15.0273 6.88463 14.9046C6.88463 14.9034 6.88463 14.9022 6.88463 14.9016C6.88463 14.6609 6.78489 14.4431 6.62495 14.2873C6.46325 14.1315 6.24253 14.0353 5.99938 14.0353C5.75623 14.0353 5.53551 14.1315 5.37322 14.2873H5.37381Z" fill="#9098B1"/>
</svg>
