<svg width="20" height="20" viewBox="0 0 20 20" fill="none" xmlns="http://www.w3.org/2000/svg">
<path d="M3.40124 0.76001V7.80001H0.318665L0.385696 19.24H6.50187H7.38187H13.5212H19.6812V2.52001H12.6412V2.96001V11.32H10.4395V0.763447L3.40124 0.76001ZM4.28124 1.64001L9.55952 1.64345V11.32H7.36726L7.36038 7.80001H6.92124H4.28124V1.64001ZM5.60124 2.52001V3.40001H6.48124V2.52001H5.60124ZM7.37843 2.52001V3.40001H8.24124V2.52001H7.37843ZM13.5212 3.40001H18.8012V18.36H16.5841V16.6H15.7212V18.36H13.5212V11.32V3.40001ZM5.60124 4.28001V5.16001H6.48124V4.28001H5.60124ZM7.36124 4.28001V5.16001H8.24124V4.28001H7.36124ZM14.8412 4.28173V5.16001H15.7212V4.28173H14.8412ZM16.6098 4.28345V5.16946H17.4727V4.28345H16.6098ZM14.8412 6.04689V6.92001H15.7212V6.04689H14.8412ZM16.6098 6.04689V6.92001H17.4727V6.04689H16.6098ZM14.8412 7.80001V8.68001H15.7212V7.80001H14.8412ZM16.6012 7.80001V8.68001H17.4727V7.80001H16.6012ZM1.20382 8.68001H6.4821L6.48726 11.32H6.48038L6.49929 18.36H4.27265V16.6H3.40984V18.36H1.26054L1.20382 8.68001ZM2.52124 9.56001V10.4469H3.41843V9.56001H2.52124ZM4.29843 9.56001V10.4469H5.16124V9.56001H4.29843ZM14.8412 9.56345V10.4392H15.7212V9.56345H14.8412ZM16.6012 9.56345V10.4392H17.4727V9.56345H16.6012ZM2.52124 11.3131V12.2H3.41843V11.3131H2.52124ZM4.29843 11.3131V12.2H5.16124V11.3131H4.29843ZM14.8412 11.3166V12.2034H15.7212V11.3166H14.8412ZM16.6098 11.3166V12.2034H17.4727V11.3166H16.6098ZM7.36898 12.2H12.6412V18.36H10.4412V16.6H9.56124V18.36H7.38015L7.36898 12.2ZM2.52124 13.08V13.9669H3.41843V13.08H2.52124ZM4.29843 13.08V13.9669H5.16124V13.08H4.29843ZM8.68124 13.08V13.9669H9.56124V13.08H8.68124ZM10.4412 13.08V13.9669H11.3212V13.08H10.4412ZM14.8412 13.08V13.9669H15.7212V13.08H14.8412ZM16.6098 13.08V13.9669H17.4727V13.08H16.6098ZM8.68124 14.8331V15.72H9.56124V14.8331H8.68124ZM10.4412 14.8331V15.72H11.3212V14.8331H10.4412ZM14.8412 14.8331V15.72H15.7212V14.8331H14.8412ZM16.6098 14.8331V15.72H17.4727V14.8331H16.6098Z" fill="#9098B1"/>
</svg>
