<svg width="18" height="18" viewBox="0 0 18 18" fill="none" xmlns="http://www.w3.org/2000/svg">
<path d="M9 0C4.02975 0 0 4.02919 0 9C0 13.9708 4.02919 18 9 18C13.9708 18 18 13.9708 18 9C18 4.02919 13.9708 0 9 0ZM9 16.893C4.6575 16.893 1.125 13.3425 1.125 9C1.125 4.6575 4.6575 1.125 9 1.125C13.3425 1.125 16.875 4.6575 16.875 9C16.875 13.3425 13.3425 16.893 9 16.893ZM12.1821 5.8185C11.9627 5.59912 11.6066 5.59912 11.3867 5.8185L9.00056 8.20463L6.61444 5.8185C6.39506 5.59912 6.03844 5.59912 5.8185 5.8185C5.59856 6.03787 5.59912 6.3945 5.8185 6.61388L8.20463 9L5.8185 11.3861C5.59912 11.6055 5.59912 11.9621 5.8185 12.1815C6.03787 12.4009 6.3945 12.4009 6.61444 12.1815L9.00056 9.79537L11.3867 12.1815C11.6061 12.4009 11.9621 12.4009 12.1821 12.1815C12.402 11.9621 12.4014 11.6055 12.1821 11.3861L9.79594 9L12.1821 6.61388C12.402 6.39394 12.402 6.03787 12.1821 5.8185Z" fill="black"/>
</svg>
