<svg width="16" height="20" viewBox="0 0 16 20" fill="none" xmlns="http://www.w3.org/2000/svg">
<path d="M2.96985 18.625H12.5948C13.0532 18.625 13.2823 18.8542 13.2823 19.3125C13.2823 19.7708 13.0532 20 12.5948 20H2.96985C2.51152 20 2.28235 19.7708 2.28235 19.3125C2.28235 18.8542 2.51152 18.625 2.96985 18.625Z" fill="#9098B1"/>
<path d="M13.9698 8.3125C13.9698 6.67147 13.318 5.09766 12.1576 3.93728C10.9972 2.7769 9.42338 2.125 7.78235 2.125C6.14132 2.125 4.56751 2.7769 3.40713 3.93728C2.24674 5.09766 1.59485 6.67147 1.59485 8.3125C1.59485 10.8507 3.62572 14.159 7.78235 18.1217C11.939 14.159 13.9698 10.8507 13.9698 8.3125ZM7.78235 20C2.74022 15.4171 0.219849 11.5204 0.219849 8.3125C0.219849 6.3068 1.01661 4.38325 2.43485 2.96501C3.8531 1.54676 5.77665 0.75 7.78235 0.75C9.78805 0.75 11.7116 1.54676 13.1298 2.96501C14.5481 4.38325 15.3448 6.3068 15.3448 8.3125C15.3448 11.5204 12.8245 15.4171 7.78235 20Z" fill="#9098B1"/>
<path d="M7.78235 10.375C8.32936 10.375 8.85396 10.1577 9.24076 9.77091C9.62755 9.38411 9.84485 8.85951 9.84485 8.3125C9.84485 7.76549 9.62755 7.24089 9.24076 6.85409C8.85396 6.4673 8.32936 6.25 7.78235 6.25C7.23534 6.25 6.71073 6.4673 6.32394 6.85409C5.93715 7.24089 5.71985 7.76549 5.71985 8.3125C5.71985 8.85951 5.93715 9.38411 6.32394 9.77091C6.71073 10.1577 7.23534 10.375 7.78235 10.375ZM7.78235 11.75C6.87067 11.75 5.99633 11.3878 5.35167 10.7432C4.70701 10.0985 4.34485 9.22418 4.34485 8.3125C4.34485 7.40082 4.70701 6.52648 5.35167 5.88182C5.99633 5.23716 6.87067 4.875 7.78235 4.875C8.69403 4.875 9.56837 5.23716 10.213 5.88182C10.8577 6.52648 11.2198 7.40082 11.2198 8.3125C11.2198 9.22418 10.8577 10.0985 10.213 10.7432C9.56837 11.3878 8.69403 11.75 7.78235 11.75Z" fill="#9098B1"/>
</svg>
