<svg width="18" height="17" viewBox="0 0 18 17" fill="none" xmlns="http://www.w3.org/2000/svg">
<path d="M14.9454 5.92671L11.4432 2.3973M14.9454 5.92671L10.5689 10.3371C9.99221 10.9183 9.2922 11.3771 8.48852 11.5168C7.67706 11.6579 6.67002 11.7048 6.18978 11.2208C5.70954 10.7369 5.75612 9.72197 5.89608 8.90421C6.03469 8.0943 6.49002 7.38885 7.0667 6.80765L11.4432 2.3973M14.9454 5.92671C14.9454 5.92671 17.572 3.27965 15.8209 1.51494C14.0698 -0.249763 11.4432 2.3973 11.4432 2.3973M16.3074 8.40833C16.3074 14.1436 14.5562 15.9083 8.8651 15.9083C3.17397 15.9083 1.42285 14.1436 1.42285 8.40833C1.42285 2.67303 3.17397 0.908325 8.8651 0.908325" stroke="#9098B1" stroke-width="1.5" stroke-linecap="round" stroke-linejoin="round"/>
</svg>
