<svg width="18" height="17" viewBox="0 0 18 17" fill="none" xmlns="http://www.w3.org/2000/svg">
<path d="M16.1153 12.0128L12.1281 16H9.85429V13.7262L13.8415 9.73902C13.9933 9.59023 14.1974 9.50689 14.4099 9.50689C14.6225 9.50689 14.8266 9.59023 14.9784 9.73902L16.1153 10.8759C16.2641 11.0277 16.3474 11.2318 16.3474 11.4443C16.3474 11.6569 16.2641 11.861 16.1153 12.0128ZM8.23017 1.38293C7.58773 1.38293 6.95972 1.57344 6.42555 1.93036C5.89138 2.28728 5.47504 2.79459 5.22919 3.38812C4.98334 3.98166 4.91902 4.63477 5.04435 5.26487C5.16968 5.89497 5.47905 6.47375 5.93332 6.92802C6.3876 7.3823 6.96638 7.69166 7.59647 7.81699C8.22657 7.94233 8.87968 7.878 9.47322 7.63215C10.0668 7.3863 10.5741 6.96996 10.931 6.43579C11.2879 5.90162 11.4784 5.27361 11.4784 4.63117C11.4784 3.76969 11.1362 2.94348 10.527 2.33432C9.91786 1.72516 9.09166 1.38293 8.23017 1.38293Z" stroke="#9098B1" stroke-width="1.5" stroke-linecap="round" stroke-linejoin="round"/>
<path d="M8.23012 11.1277H5.79394C4.71708 11.1277 3.68433 11.5555 2.92288 12.3169C2.16142 13.0784 1.73364 14.1111 1.73364 15.188C1.73364 15.4034 1.8192 15.6099 1.97149 15.7622C2.12378 15.9145 2.33033 16 2.5457 16H6.606" stroke="#9098B1" stroke-width="1.5" stroke-linecap="round" stroke-linejoin="round"/>
</svg>
