<svg width="27" height="26" viewBox="0 0 27 26" fill="none" xmlns="http://www.w3.org/2000/svg">
<path d="M2.91663 25.9434C2.22913 25.9434 1.64038 25.6988 1.15038 25.2096C0.660378 24.7204 0.415795 24.1317 0.416628 23.4434V5.94336C0.416628 5.25586 0.661628 4.66711 1.15163 4.17711C1.64163 3.68711 2.22996 3.44253 2.91663 3.44336H14.0729L11.5729 5.94336H2.91663V23.4434H20.4166V14.7559L22.9166 12.2559V23.4434C22.9166 24.1309 22.6716 24.7196 22.1816 25.2096C21.6916 25.6996 21.1033 25.9442 20.4166 25.9434H2.91663ZM16.8854 4.16211L18.6666 5.91211L10.4166 14.1621V15.9434H12.1666L20.4479 7.66211L22.2291 9.41211L13.2291 18.4434H7.91663V13.1309L16.8854 4.16211ZM22.2291 9.41211L16.8854 4.16211L20.0104 1.03711C20.5104 0.53711 21.1095 0.287109 21.8079 0.287109C22.5062 0.287109 23.0945 0.53711 23.5729 1.03711L25.3229 2.81836C25.802 3.29753 26.0416 3.88086 26.0416 4.56836C26.0416 5.25586 25.802 5.83919 25.3229 6.31836L22.2291 9.41211Z" fill="#371400"/>
</svg>
