<svg width="27" height="27" viewBox="0 0 27 27" fill="none" xmlns="http://www.w3.org/2000/svg">
<path d="M9.91393 20.8125L15.3333 26.2319C15.4846 26.382 15.6889 26.4666 15.9021 26.4675C16.0112 26.4695 16.1194 26.4473 16.2189 26.4025C16.3658 26.3403 16.4911 26.2363 16.5792 26.1033C16.6674 25.9704 16.7144 25.8145 16.7146 25.655V11.1275L25.9283 1.88938C26.041 1.77512 26.1174 1.63003 26.1478 1.47241C26.1782 1.31479 26.1612 1.15172 26.0989 1.00375C26.038 0.855372 25.9345 0.728357 25.8014 0.638711C25.6684 0.549065 25.5118 0.500801 25.3514 0.5L0.976432 0.5C0.816024 0.500801 0.659442 0.549065 0.526419 0.638711C0.393396 0.728357 0.289886 0.855372 0.228932 1.00375C0.166711 1.15172 0.149711 1.31479 0.180078 1.47241C0.210444 1.63003 0.286816 1.77512 0.399557 1.88938L9.64581 11.1275V20.2681C9.66152 20.4774 9.75761 20.6725 9.91393 20.8125ZM2.93456 2.125H23.3933L15.2683 10.25C15.1915 10.3253 15.1305 10.415 15.0886 10.514C15.0468 10.613 15.025 10.7194 15.0246 10.8269V23.7294L11.2383 19.935V10.7944C11.2379 10.6869 11.2161 10.5805 11.1742 10.4815C11.1324 10.3825 11.0713 10.2928 10.9946 10.2175L2.93456 2.125Z" fill="#371400"/>
</svg>
