<svg width="18" height="18" viewBox="0 0 18 18" fill="none" xmlns="http://www.w3.org/2000/svg">
<path d="M9.00006 0.0625C4.06381 0.0625 0.062561 4.06375 0.062561 9C0.062561 13.9362 4.06381 17.9375 9.00006 17.9375C13.9363 17.9375 17.9376 13.9362 17.9376 9C17.9376 4.06375 13.9363 0.0625 9.00006 0.0625ZM9.00006 16.5625C4.8235 16.5625 1.43756 13.1766 1.43756 9C1.43756 4.82344 4.8235 1.4375 9.00006 1.4375C13.1766 1.4375 16.5626 4.82344 16.5626 9C16.5626 13.1766 13.1766 16.5625 9.00006 16.5625ZM8.19431 6.73744C7.78937 7.05231 7.41469 7.26681 7.07025 7.37956V8.57719C7.72544 8.36131 8.29469 8.02788 8.778 7.57688V12.4657H10.1853V5.59069H9.02619C8.87631 6.01144 8.59856 6.42187 8.19431 6.73744Z" fill="#9098B1"/>
</svg>
