<svg width="21" height="17" viewBox="0 0 21 17" fill="none" xmlns="http://www.w3.org/2000/svg">
<path d="M20.9849 6.17987L15.56 0.754894C15.307 0.501787 14.8965 0.501787 14.6434 0.754894L12.0107 3.38765C11.7575 3.64075 11.7575 4.05116 12.0107 4.30426L12.5065 4.8001L11.1199 4.92159C10.967 4.935 10.8181 4.96646 10.6744 5.01441C10.5311 4.96658 10.382 4.93496 10.2297 4.92159L8.84306 4.8001L9.33889 4.30426C9.592 4.05116 9.592 3.64075 9.33889 3.38765L6.70614 0.754894C6.45308 0.501787 6.04263 0.501787 5.78953 0.754894L0.364635 6.17987C0.111528 6.43293 0.111528 6.84338 0.364635 7.09648L2.99739 9.72924C3.25037 9.98222 3.66094 9.9823 3.914 9.72924L4.50045 9.14279L4.62169 10.5291C4.66139 10.9838 4.86114 11.412 5.18389 11.7347L9.08755 15.6379C10.1591 16.7094 11.2905 16.6094 12.023 15.8771C12.37 15.53 16.1517 11.7488 16.166 11.7345C16.4887 11.4117 16.6882 10.9837 16.7279 10.5291L16.8492 9.14275L17.4356 9.72919C17.6886 9.98218 18.0992 9.98226 18.3522 9.72919L20.985 7.09644C21.2381 6.84338 21.2381 6.43293 20.9849 6.17987ZM3.4557 8.35431L1.73956 6.63817L6.24792 2.12986L7.96401 3.84595C2.52243 9.28754 3.91228 7.89768 3.4557 8.35431ZM14.6609 11.4042C14.6608 11.4043 14.6608 11.4044 14.6607 11.4044C14.4229 11.6425 14.0378 11.6426 13.7995 11.4042C13.7991 11.4038 13.7986 11.4035 13.7982 11.403L12.7632 10.3681C12.5101 10.1149 12.0997 10.115 11.8466 10.3681C11.5935 10.6212 11.5935 11.0316 11.8466 11.2847L12.8829 12.3209C12.8831 12.3211 12.8833 12.3213 12.8835 12.3215C13.1209 12.5596 13.1215 12.9442 12.8827 13.1825C12.6449 13.4205 12.2598 13.4206 12.0214 13.1823C12.0211 13.182 12.0208 13.1818 12.0205 13.1815L10.9851 12.1461C10.7321 11.893 10.3216 11.893 10.0685 12.1461C9.81541 12.3992 9.81541 12.8096 10.0685 13.0627L11.1048 14.099C11.1049 14.0991 11.105 14.0992 11.1052 14.0994C11.3418 14.3366 11.3444 14.7212 11.1041 14.961C10.9618 15.1038 10.7575 15.1661 10.5576 15.1278C10.3399 15.086 10.2627 14.9799 10.004 14.7212L6.10034 10.818C5.99276 10.7105 5.92619 10.5677 5.91294 10.4161L5.69695 7.94633C5.96782 7.67542 7.21412 6.42883 7.64659 5.99657L10.1164 6.21297C10.2679 6.22621 10.4105 6.2927 10.5179 6.40008C11.4665 7.34832 14.4166 10.2985 14.6606 10.5426C14.8982 10.7803 14.8983 11.1668 14.6609 11.4042ZM15.5114 9.56005C15.3085 9.3571 13.0853 7.13377 12.0893 6.13799L13.7028 5.99661C14.1637 6.45717 15.5162 7.81007 15.6525 7.94637L15.5114 9.56005ZM17.8939 8.35431C17.2868 7.74724 13.5197 3.98008 13.3856 3.846L15.1017 2.1299L19.61 6.63813L17.8939 8.35431Z" fill="#9098B1"/>
</svg>
