<svg width="17" height="15" viewBox="0 0 17 15" fill="none" xmlns="http://www.w3.org/2000/svg">
<path d="M8.34696 13.75C12.0289 13.75 15.0136 10.9518 15.0136 7.5C15.0136 4.04822 12.0289 1.25 8.34696 1.25C4.66507 1.25 1.6803 4.04822 1.6803 7.5C1.6803 10.9518 4.66507 13.75 8.34696 13.75Z" stroke="#9098B1" stroke-linecap="square"/>
<path d="M8.34696 13.75C10.1247 12.2348 11.0136 10.1515 11.0136 7.5C11.0136 4.84848 10.1247 2.76515 8.34696 1.25C6.56919 2.76515 5.6803 4.84848 5.6803 7.5C5.6803 10.1515 6.56919 12.2348 8.34696 13.75Z" stroke="#9098B1" stroke-linecap="round"/>
<path d="M2.01355 5.625H14.6802M2.01355 9.375H14.6802" stroke="#9098B1" stroke-linecap="round"/>
</svg>
