<svg width="13" height="16" viewBox="0 0 13 16" fill="none" xmlns="http://www.w3.org/2000/svg">
<path d="M6.33263 0.876801C3.15868 0.876801 0.470581 3.5173 0.470581 6.64459C0.470581 9.91981 3.58646 13.2692 5.68226 15.6233C5.69049 15.6328 6.02922 16 6.44635 16H6.48313C6.90074 16 7.23705 15.6328 7.24528 15.6233C9.21188 13.4153 12.0844 9.77377 12.0844 6.64459C12.0844 3.51683 9.98758 0.876801 6.33263 0.876801ZM6.52668 14.9891C6.50974 15.0056 6.48506 15.024 6.46329 15.0396C6.44103 15.0245 6.41683 15.0056 6.39893 14.9891L6.14584 14.7046C4.15892 12.4785 1.43791 9.42971 1.43791 6.64412C1.43791 4.02961 3.67937 1.82108 6.33215 1.82108C9.63675 1.82108 11.1161 4.24323 11.1161 6.64412C11.1161 8.75859 9.57191 11.5669 6.52668 14.9891ZM6.2944 3.73848C4.69122 3.73848 3.39096 5.00792 3.39096 6.57417C3.39096 8.14041 4.69122 9.40986 6.2944 9.40986C7.89759 9.40986 9.19785 8.13994 9.19785 6.57417C9.19785 5.0084 7.89807 3.73848 6.2944 3.73848ZM6.2944 8.46463C5.2269 8.46463 4.33651 7.59596 4.33651 6.55337C4.33651 5.51079 5.20464 4.66292 6.27214 4.66292C7.34013 4.66292 8.20777 5.51079 8.20777 6.55337C8.20826 7.59596 7.36239 8.46463 6.2944 8.46463Z" fill="#371400"/>
</svg>
