<svg width="15" height="15" viewBox="0 0 15 15" fill="none" xmlns="http://www.w3.org/2000/svg">
<path d="M13.4102 11.1523H12.2431C12.1634 11.1523 12.0887 11.1872 12.0389 11.2486C11.9227 11.3897 11.7981 11.5259 11.667 11.6554C11.1306 12.1923 10.4952 12.6202 9.796 12.9154C9.0716 13.2214 8.29301 13.3784 7.50664 13.3769C6.71143 13.3769 5.94112 13.2209 5.21729 12.9154C4.51808 12.6202 3.8827 12.1923 3.34629 11.6554C2.80892 11.1202 2.38044 10.486 2.08457 9.78769C1.77744 9.06386 1.62305 8.29521 1.62305 7.49999C1.62305 6.70478 1.7791 5.93613 2.08457 5.2123C2.38008 4.51337 2.80508 3.88417 3.34629 3.34462C3.8875 2.80507 4.5167 2.38007 5.21729 2.08456C5.94112 1.7791 6.71143 1.62304 7.50664 1.62304C8.30186 1.62304 9.07217 1.77744 9.796 2.08456C10.4966 2.38007 11.1258 2.80507 11.667 3.34462C11.7981 3.47578 11.921 3.61191 12.0389 3.75136C12.0887 3.81279 12.165 3.84765 12.2431 3.84765H13.4102C13.5147 3.84765 13.5795 3.73144 13.5214 3.64345C12.248 1.66455 10.0201 0.354682 7.48838 0.361323C3.51065 0.371284 0.321487 3.60029 0.361331 7.57304C0.401175 11.4827 3.58536 14.6387 7.50664 14.6387C10.0317 14.6387 12.2497 13.3305 13.5214 11.3565C13.5778 11.2685 13.5147 11.1523 13.4102 11.1523ZM14.886 7.39541L12.5303 5.53603C12.4423 5.4663 12.3145 5.52939 12.3145 5.64062V6.90234H7.10157C7.02852 6.90234 6.96875 6.9621 6.96875 7.03515V7.96484C6.96875 8.03789 7.02852 8.09765 7.10157 8.09765H12.3145V9.35937C12.3145 9.4706 12.4439 9.53369 12.5303 9.46396L14.886 7.60458C14.9019 7.59216 14.9148 7.57629 14.9236 7.55817C14.9324 7.54005 14.937 7.52015 14.937 7.49999C14.937 7.47984 14.9324 7.45994 14.9236 7.44182C14.9148 7.4237 14.9019 7.40783 14.886 7.39541Z" fill="#9098B1"/>
</svg>
