<svg width="35" height="34" viewBox="0 0 35 34" fill="none" xmlns="http://www.w3.org/2000/svg">
<path d="M30.5655 25.1094H27.888C27.7052 25.1094 27.5338 25.1894 27.4196 25.3303C27.153 25.6541 26.8673 25.9664 26.5665 26.2634C25.3359 27.4953 23.8783 28.4769 22.2742 29.1542C20.6123 29.8561 18.8261 30.2162 17.0221 30.2129C15.1978 30.2129 13.4306 29.8549 11.7701 29.1542C10.166 28.4769 8.70838 27.4953 7.4778 26.2634C6.24501 25.0358 5.26202 23.5807 4.58326 21.9788C3.87867 20.3182 3.52448 18.5548 3.52448 16.7305C3.52448 14.9062 3.88248 13.1428 4.58326 11.4823C5.26119 9.87887 6.23619 8.43541 7.4778 7.19762C8.7194 5.95982 10.1629 4.98482 11.7701 4.30689C13.4306 3.60611 15.1978 3.2481 17.0221 3.2481C18.8464 3.2481 20.6136 3.6023 22.2742 4.30689C23.8814 4.98482 25.3249 5.95982 26.5665 7.19762C26.8673 7.4985 27.1492 7.8108 27.4196 8.13072C27.5338 8.27164 27.709 8.35162 27.888 8.35162H30.5655C30.8054 8.35162 30.954 8.08502 30.8207 7.88316C27.8995 3.34332 22.7883 0.338339 16.9802 0.353573C7.85485 0.376425 0.538538 7.78414 0.629944 16.8981C0.72135 25.8673 8.02623 33.1075 17.0221 33.1075C22.815 33.1075 27.9033 30.1063 30.8207 25.5779C30.9502 25.376 30.8054 25.1094 30.5655 25.1094ZM33.9513 16.4906L28.5469 12.225C28.3451 12.065 28.0518 12.2097 28.0518 12.4649V15.3594H16.0928C15.9253 15.3594 15.7881 15.4965 15.7881 15.6641V17.7969C15.7881 17.9645 15.9253 18.1016 16.0928 18.1016H28.0518V20.9962C28.0518 21.2513 28.3489 21.3961 28.5469 21.2361L33.9513 16.9705C33.9877 16.942 34.0172 16.9056 34.0375 16.864C34.0577 16.8224 34.0682 16.7768 34.0682 16.7305C34.0682 16.6843 34.0577 16.6386 34.0375 16.5971C34.0172 16.5555 33.9877 16.5191 33.9513 16.4906Z" fill="#371400"/>
</svg>
