<svg width="22" height="16" viewBox="0 0 22 16" fill="none" xmlns="http://www.w3.org/2000/svg">
<path d="M21.4458 2.38527C21.3511 1.93113 21.1397 1.51555 20.8444 1.17223C20.7821 1.09742 20.7171 1.03043 20.6466 0.963437C20.1234 0.462734 19.3892 0.150391 18.587 0.150391H3.41297C2.61083 0.150391 1.87919 0.462734 1.35358 0.963437C1.28323 1.03043 1.21818 1.09742 1.15576 1.17223C0.860322 1.51551 0.648887 1.93113 0.556848 2.38527C0.519031 2.56055 0.5 2.74168 0.5 2.9248V13.0745C0.5 13.4639 0.586707 13.8382 0.741336 14.1762C0.884768 14.4989 1.09624 14.7908 1.35354 15.0356C1.41875 15.0976 1.48351 15.1545 1.55418 15.2112C2.0581 15.6086 2.70857 15.8487 3.41297 15.8487H18.587C19.2917 15.8487 19.945 15.6086 20.446 15.2087C20.5164 15.1545 20.5815 15.0976 20.6466 15.0356C20.9038 14.7908 21.1152 14.4989 21.2616 14.1762V14.1737C21.4162 13.8357 21.5 13.4639 21.5 13.0746V2.9248C21.5 2.74168 21.4813 2.56055 21.4458 2.38527ZM2.4076 1.96715C2.66784 1.71957 3.01733 1.56969 3.41297 1.56969H18.587C18.9827 1.56969 19.3352 1.71957 19.5924 1.96715C19.6384 2.01125 19.6818 2.06039 19.72 2.10922L11.7668 8.71059C11.5475 8.89367 11.2765 8.9841 11 8.9841C10.7263 8.9841 10.4555 8.89367 10.2332 8.71059L2.28303 2.10641C2.31822 2.05758 2.36158 2.01125 2.4076 1.96715ZM1.99026 13.0745V3.57512L7.74574 8.35695L1.99317 13.1337C1.99026 13.1156 1.99026 13.0952 1.99026 13.0745ZM18.587 14.4291H3.41297C3.15535 14.4291 2.9143 14.3646 2.70857 14.2513L8.77798 9.21383L9.34461 9.68328C9.81879 10.0757 10.4122 10.2745 11 10.2745C11.5909 10.2745 12.1842 10.0757 12.6583 9.68328L13.2247 9.21383L19.2917 14.2513C19.0857 14.3646 18.8446 14.4291 18.587 14.4291ZM20.0097 13.0745C20.0097 13.0952 20.0097 13.1156 20.0069 13.1337L14.2544 8.35973L20.0097 3.57766V13.0745Z" fill="#9098B1"/>
</svg>
