<svg width="26" height="26" viewBox="0 0 26 26" fill="none" xmlns="http://www.w3.org/2000/svg">
<path d="M21.3334 23C21.3334 23.9205 22.0795 24.6667 23 24.6667C23.9205 24.6667 24.6667 23.9205 24.6667 23C24.6667 22.0795 23.9205 21.3334 23 21.3334C22.0795 21.3334 21.3334 22.0795 21.3334 23Z" stroke="#9098B1" stroke-width="2" stroke-linecap="round" stroke-linejoin="round"/>
<path d="M11.3334 23C11.3334 23.9205 12.0795 24.6667 13 24.6667C13.9205 24.6667 14.6667 23.9205 14.6667 23C14.6667 22.0795 13.9205 21.3334 13 21.3334C12.0795 21.3334 11.3334 22.0795 11.3334 23Z" stroke="#9098B1" stroke-width="2" stroke-linecap="round" stroke-linejoin="round"/>
<path d="M1.33337 23C1.33337 23.9205 2.07957 24.6667 3.00004 24.6667C3.92051 24.6667 4.66671 23.9205 4.66671 23C4.66671 22.0795 3.92051 21.3334 3.00004 21.3334C2.07957 21.3334 1.33337 22.0795 1.33337 23Z" stroke="#9098B1" stroke-width="2" stroke-linecap="round" stroke-linejoin="round"/>
<path d="M21.3334 13C21.3334 13.9205 22.0795 14.6667 23 14.6667C23.9205 14.6667 24.6667 13.9205 24.6667 13C24.6667 12.0795 23.9205 11.3334 23 11.3334C22.0795 11.3334 21.3334 12.0795 21.3334 13Z" stroke="#9098B1" stroke-width="2" stroke-linecap="round" stroke-linejoin="round"/>
<path d="M11.3334 13C11.3334 13.9205 12.0795 14.6667 13 14.6667C13.9205 14.6667 14.6667 13.9205 14.6667 13C14.6667 12.0795 13.9205 11.3334 13 11.3334C12.0795 11.3334 11.3334 12.0795 11.3334 13Z" stroke="#9098B1" stroke-width="2" stroke-linecap="round" stroke-linejoin="round"/>
<path d="M1.33337 13C1.33337 13.9205 2.07957 14.6667 3.00004 14.6667C3.92051 14.6667 4.66671 13.9205 4.66671 13C4.66671 12.0795 3.92051 11.3334 3.00004 11.3334C2.07957 11.3334 1.33337 12.0795 1.33337 13Z" stroke="#9098B1" stroke-width="2" stroke-linecap="round" stroke-linejoin="round"/>
<path d="M21.3334 3.00004C21.3334 3.92051 22.0795 4.66671 23 4.66671C23.9205 4.66671 24.6667 3.92051 24.6667 3.00004C24.6667 2.07957 23.9205 1.33337 23 1.33337C22.0795 1.33337 21.3334 2.07957 21.3334 3.00004Z" stroke="#9098B1" stroke-width="2" stroke-linecap="round" stroke-linejoin="round"/>
<path d="M11.3334 3.00004C11.3334 3.92051 12.0795 4.66671 13 4.66671C13.9205 4.66671 14.6667 3.92051 14.6667 3.00004C14.6667 2.07957 13.9205 1.33337 13 1.33337C12.0795 1.33337 11.3334 2.07957 11.3334 3.00004Z" stroke="#9098B1" stroke-width="2" stroke-linecap="round" stroke-linejoin="round"/>
<path d="M1.33337 3.00004C1.33337 3.92051 2.07957 4.66671 3.00004 4.66671C3.92051 4.66671 4.66671 3.92051 4.66671 3.00004C4.66671 2.07957 3.92051 1.33337 3.00004 1.33337C2.07957 1.33337 1.33337 2.07957 1.33337 3.00004Z" stroke="#9098B1" stroke-width="2" stroke-linecap="round" stroke-linejoin="round"/>
</svg>
