<svg width="19" height="19" viewBox="0 0 19 19" fill="none" xmlns="http://www.w3.org/2000/svg">
<path fill-rule="evenodd" clip-rule="evenodd" d="M8.27866 3.87588C8.80602 4.4604 8.63882 5.1226 8.17252 5.75092C8.06197 5.89989 7.93454 6.04667 7.78063 6.20841C7.70676 6.28604 7.64916 6.34442 7.52867 6.46502C7.25503 6.7389 7.025 6.96903 6.83857 7.15542C6.74817 7.24581 7.36541 8.47911 8.5633 9.67806C9.76054 10.8764 10.9939 11.494 11.0847 11.4031L11.7744 10.7132C12.1541 10.3331 12.3552 10.1497 12.6316 9.96838C13.2061 9.59149 13.8328 9.48908 14.3613 9.96162C16.087 11.1959 17.0635 11.9533 17.5419 12.4503C18.475 13.4198 18.3527 14.9121 17.5472 15.7634C17.2679 16.0586 16.9137 16.4129 16.4954 16.8161C13.965 19.3477 8.62467 17.8071 4.53191 13.7107C0.438222 9.61342 -1.10171 4.27315 1.42338 1.74696C1.87671 1.28656 2.02617 1.13719 2.46767 0.702204C3.28966 -0.107653 4.85096 -0.23446 5.80006 0.703005C6.29929 1.19611 7.0952 2.22006 8.27866 3.87588ZM13.0466 11.9857L12.3568 12.6758C11.1844 13.8487 9.18769 12.8489 7.29094 10.9504C5.39288 9.05072 4.39405 7.05497 5.56688 5.88236C5.75306 5.69621 5.98287 5.4663 6.2563 5.19263C6.36662 5.08221 6.41709 5.03106 6.47766 4.96741C6.56019 4.88068 6.628 4.80451 6.6823 4.73711C5.63347 3.27625 4.92049 2.36343 4.53613 1.98378C4.33763 1.78771 3.89315 1.82381 3.72998 1.98458C3.29478 2.41335 3.15173 2.55631 2.70024 3.01482C1.07635 4.63943 2.31949 8.95047 5.80428 12.4383C9.28797 15.9251 13.5988 17.1687 15.235 15.5319C15.6468 15.1348 15.9824 14.799 16.2407 14.5261C16.4274 14.3288 16.4607 13.9218 16.246 13.6987C15.8884 13.3272 15.0129 12.6447 13.5012 11.5592C13.391 11.6479 13.2556 11.7765 13.0466 11.9857Z" fill="#9098B1"/>
</svg>
