<svg width="30" height="30" viewBox="0 0 30 30" fill="none" xmlns="http://www.w3.org/2000/svg">
<path d="M25 9.375H5C4.65482 9.375 4.375 9.65482 4.375 10V20C4.375 20.3452 4.65482 20.625 5 20.625H25C25.3452 20.625 25.625 20.3452 25.625 20V10C25.625 9.65482 25.3452 9.375 25 9.375Z" stroke="#9098B1" stroke-linecap="round" stroke-linejoin="round"/>
<path d="M8.75 16.875C9.78553 16.875 10.625 16.0355 10.625 15C10.625 13.9645 9.78553 13.125 8.75 13.125C7.71447 13.125 6.875 13.9645 6.875 15C6.875 16.0355 7.71447 16.875 8.75 16.875Z" stroke="#9098B1" stroke-linecap="round" stroke-linejoin="round"/>
<path d="M15 16.875C16.0355 16.875 16.875 16.0355 16.875 15C16.875 13.9645 16.0355 13.125 15 13.125C13.9645 13.125 13.125 13.9645 13.125 15C13.125 16.0355 13.9645 16.875 15 16.875Z" stroke="#9098B1" stroke-linecap="round" stroke-linejoin="round"/>
<path d="M21.25 16.875C22.2855 16.875 23.125 16.0355 23.125 15C23.125 13.9645 22.2855 13.125 21.25 13.125C20.2145 13.125 19.375 13.9645 19.375 15C19.375 16.0355 20.2145 16.875 21.25 16.875Z" stroke="#9098B1" stroke-linecap="round" stroke-linejoin="round"/>
</svg>
