<svg width="21" height="21" viewBox="0 0 21 21" fill="none" xmlns="http://www.w3.org/2000/svg">
<path fill-rule="evenodd" clip-rule="evenodd" d="M8.53571 2.625C5.42911 2.625 2.91071 5.1434 2.91071 8.25C2.91071 11.3566 5.42911 13.875 8.53571 13.875C10.0893 13.875 11.494 13.2467 12.5131 12.2274C13.5324 11.2083 14.1607 9.80363 14.1607 8.25C14.1607 5.1434 11.6423 2.625 8.53571 2.625ZM0.660706 8.25C0.660706 3.90076 4.18647 0.375 8.53571 0.375C12.885 0.375 16.4107 3.90076 16.4107 8.25C16.4107 10.0184 15.8268 11.6519 14.8428 12.9661L20.5812 18.7045C21.0205 19.1438 21.0205 19.8562 20.5812 20.2955C20.1419 20.7348 19.4295 20.7348 18.9902 20.2955L13.2518 14.5571C11.9376 15.5411 10.3041 16.125 8.53571 16.125C4.18647 16.125 0.660706 12.5993 0.660706 8.25Z" fill="#9098B1"/>
</svg>
