<svg width="16" height="15" viewBox="0 0 16 15" fill="none" xmlns="http://www.w3.org/2000/svg">
<path fill-rule="evenodd" clip-rule="evenodd" d="M6.33333 1.95833C4.03215 1.95833 2.16667 3.73054 2.16667 5.91667C2.16667 8.10277 4.03215 9.875 6.33333 9.875C7.48417 9.875 8.52467 9.43285 9.27958 8.7156C10.0346 7.99843 10.5 7.00996 10.5 5.91667C10.5 3.73054 8.6345 1.95833 6.33333 1.95833ZM0.5 5.91667C0.5 2.85609 3.11168 0.375 6.33333 0.375C9.555 0.375 12.1667 2.85609 12.1667 5.91667C12.1667 7.16109 11.7342 8.31059 11.0053 9.23541L15.2559 13.2735C15.5813 13.5827 15.5813 14.084 15.2559 14.3931C14.9305 14.7023 14.4028 14.7023 14.0774 14.3931L9.82675 10.355C8.85325 11.0475 7.64325 11.4583 6.33333 11.4583C3.11168 11.4583 0.5 8.97725 0.5 5.91667Z" fill="#371400"/>
</svg>
