<svg width="18" height="16" viewBox="0 0 18 16" fill="none" xmlns="http://www.w3.org/2000/svg">
<path d="M10.7653 15.875C10.3162 15.875 9.89451 15.6737 9.54617 15.4987C9.32617 15.3938 9.06034 15.2625 8.92284 15.2625C8.78534 15.2625 8.51034 15.3938 8.29951 15.4987C7.85951 15.7175 7.30951 15.98 6.72283 15.8313C6.11783 15.6825 5.78783 15.175 5.51283 14.7725C5.39366 14.5887 5.22866 14.3438 5.11866 14.2825C5.00866 14.2213 4.71533 14.2125 4.46783 14.195C3.97283 14.1687 3.35866 14.1425 2.91866 13.7312C2.47866 13.3025 2.45116 12.7163 2.42366 12.2438C2.4145 12.0163 2.39616 11.7275 2.332 11.6225C2.277 11.5262 2.01116 11.3688 1.82783 11.255C1.40616 10.9925 0.883663 10.6687 0.718663 10.1C0.562829 9.54 0.83783 9.015 1.067 8.595C1.177 8.385 1.3145 8.13125 1.3145 8C1.3145 7.86875 1.177 7.60625 1.067 7.405C0.83783 6.985 0.562829 6.46 0.718663 5.90002C0.874496 5.32252 1.40616 5.00752 1.82783 4.74502C2.02033 4.63127 2.277 4.47377 2.34116 4.36877C2.40533 4.26377 2.4145 3.98377 2.43283 3.74752C2.46033 3.27502 2.48783 2.68877 2.91866 2.26877C3.36783 1.84877 3.982 1.82252 4.477 1.79627C4.71533 1.78752 5.01783 1.77002 5.12783 1.70877C5.22866 1.65627 5.39366 1.40252 5.51283 1.22752C5.78783 0.825018 6.127 0.326268 6.72283 0.168768C7.30951 0.0200177 7.85951 0.282518 8.29951 0.501268C8.51951 0.606268 8.78534 0.737518 8.92284 0.737518C9.06034 0.737518 9.33534 0.606268 9.54617 0.501268C9.98617 0.291268 10.5362 0.0200177 11.1228 0.168768C11.7278 0.317518 12.0578 0.825018 12.3328 1.22752C12.452 1.41127 12.617 1.65627 12.727 1.71752C12.837 1.77877 13.1303 1.78752 13.3778 1.80502C13.8728 1.83127 14.487 1.85752 14.927 2.26877C15.367 2.69752 15.3945 3.28377 15.422 3.75627C15.4312 3.98377 15.4495 4.27252 15.5137 4.37752C15.5687 4.47377 15.8345 4.63127 16.0178 4.74502C16.4395 5.00752 16.962 5.33127 17.127 5.90002C17.2828 6.46 17.0078 6.985 16.7787 7.405C16.6687 7.615 16.5312 7.86875 16.5312 8C16.5312 8.13125 16.6687 8.39375 16.7787 8.595C17.0078 9.015 17.2828 9.54 17.127 10.1C16.9712 10.6775 16.4395 10.9925 16.0178 11.255C15.8253 11.3688 15.5687 11.5262 15.5045 11.6312C15.4403 11.7362 15.4312 12.0163 15.4128 12.2525C15.3853 12.725 15.3578 13.3112 14.927 13.7312C14.4778 14.1512 13.8637 14.1775 13.3687 14.2038C13.1303 14.2125 12.8278 14.23 12.7178 14.2913C12.617 14.3438 12.452 14.5975 12.3328 14.7725C12.0578 15.175 11.7187 15.6738 11.1228 15.8313C11.0037 15.8663 10.8845 15.875 10.7653 15.875ZM7.0895 1.43752C7.0895 1.43752 7.0895 1.43752 7.08033 1.43752C6.98866 1.47252 6.77783 1.77002 6.677 1.93627C6.457 2.26002 6.2095 2.62752 5.81533 2.84627C5.412 3.06502 4.95366 3.09127 4.54116 3.10877C4.3395 3.11752 3.96366 3.13502 3.88116 3.19627C3.82616 3.26627 3.80783 3.61627 3.79866 3.80877C3.78033 4.20252 3.75283 4.64002 3.52366 5.01627C3.2945 5.39252 2.9095 5.62877 2.57033 5.83877C2.39616 5.94377 2.0845 6.13627 2.04783 6.23252C2.03866 6.32875 2.1945 6.62625 2.28616 6.80125C2.4695 7.15125 2.6895 7.545 2.6895 7.99125C2.6895 8.4375 2.47866 8.83125 2.28616 9.18125C2.1945 9.35625 2.0295 9.65375 2.04783 9.75C2.0845 9.8375 2.39616 10.0387 2.57033 10.135C2.9095 10.345 3.2945 10.5813 3.52366 10.9575C3.75283 11.3425 3.78033 11.78 3.79866 12.1737C3.80783 12.3663 3.82616 12.725 3.89033 12.8038C3.96366 12.8562 4.33033 12.8737 4.532 12.8825C4.9445 12.9 5.40283 12.9262 5.797 13.145C6.19116 13.3637 6.43866 13.7312 6.65866 14.055C6.76866 14.2213 6.97033 14.5188 7.07116 14.5538C7.16284 14.58 7.48367 14.4137 7.66701 14.3263C8.03367 14.1512 8.44617 13.9413 8.91367 13.9413C9.38117 13.9413 9.79367 14.1425 10.1603 14.3263C10.3437 14.4137 10.637 14.58 10.7562 14.5538C10.8478 14.5188 11.0587 14.2213 11.1595 14.055C11.3795 13.7312 11.627 13.3637 12.0212 13.145C12.4245 12.9262 12.8828 12.9 13.2953 12.8825C13.497 12.8737 13.8728 12.8562 13.9553 12.795C14.0103 12.725 14.0287 12.375 14.0378 12.1825C14.0562 11.7888 14.0837 11.3512 14.3128 10.975C14.542 10.5988 14.927 10.3625 15.2662 10.1525C15.4403 10.0475 15.752 9.855 15.7887 9.75875C15.7978 9.6625 15.642 9.365 15.5503 9.19C15.367 8.84 15.147 8.44625 15.147 8C15.147 7.55375 15.3578 7.16 15.5503 6.81C15.642 6.635 15.7978 6.3375 15.7887 6.24127C15.752 6.14502 15.4312 5.95252 15.2662 5.84752C14.927 5.63752 14.542 5.40127 14.3128 5.02502C14.0837 4.64002 14.0562 4.20252 14.0378 3.80877C14.0287 3.61627 14.0103 3.25752 13.9462 3.17877C13.8728 3.12627 13.5062 3.10877 13.3045 3.10002C12.892 3.08252 12.4337 3.05627 12.0395 2.83752C11.6453 2.61877 11.3978 2.25127 11.1778 1.92752C11.0678 1.76127 10.8662 1.46377 10.7653 1.42877C10.6737 1.40252 10.3528 1.56877 10.1695 1.65627C9.80284 1.83127 9.39034 2.04127 8.92284 2.04127C8.45534 2.04127 8.04284 1.84002 7.67617 1.65627C7.49284 1.56877 7.19951 1.42877 7.0895 1.42877V1.43752ZM7.53867 11.0712C7.35534 11.0712 7.18117 11.0013 7.05283 10.8787L4.752 8.6825C4.48616 8.42875 4.48616 8.00875 4.752 7.755C5.01783 7.50125 5.45783 7.50125 5.72366 7.755L7.53867 9.4875L12.1128 5.12127C12.3787 4.86752 12.8187 4.86752 13.0845 5.12127C13.3503 5.37502 13.3503 5.79502 13.0845 6.04877L8.02451 10.8787C7.89617 11.0013 7.72201 11.0712 7.53867 11.0712Z" fill="#9098B1"/>
</svg>
