<svg width="13" height="14" viewBox="0 0 13 14" fill="none" xmlns="http://www.w3.org/2000/svg">
<path d="M10.3469 13.6667C9.79137 13.6667 9.31915 13.4722 8.93026 13.0833C8.54137 12.6945 8.34692 12.2222 8.34692 11.6667C8.34692 11.5889 8.35248 11.5082 8.36359 11.4247C8.3747 11.3416 8.39137 11.2667 8.41359 11.2L3.71359 8.46668C3.5247 8.63334 3.31359 8.76379 3.08026 8.85801C2.84692 8.95268 2.60248 9.00001 2.34692 9.00001C1.79137 9.00001 1.31915 8.80557 0.930257 8.41668C0.541368 8.02779 0.346924 7.55557 0.346924 7.00001C0.346924 6.44446 0.541368 5.97223 0.930257 5.58334C1.31915 5.19446 1.79137 5.00001 2.34692 5.00001C2.60248 5.00001 2.84692 5.04712 3.08026 5.14134C3.31359 5.23601 3.5247 5.36668 3.71359 5.53334L8.41359 2.80001C8.39137 2.73334 8.3747 2.65845 8.36359 2.57534C8.35248 2.49179 8.34692 2.41112 8.34692 2.33334C8.34692 1.77779 8.54137 1.30557 8.93026 0.916677C9.31915 0.527788 9.79137 0.333344 10.3469 0.333344C10.9025 0.333344 11.3747 0.527788 11.7636 0.916677C12.1525 1.30557 12.3469 1.77779 12.3469 2.33334C12.3469 2.8889 12.1525 3.36112 11.7636 3.75001C11.3747 4.1389 10.9025 4.33334 10.3469 4.33334C10.0914 4.33334 9.84692 4.28601 9.61359 4.19134C9.38026 4.09712 9.16915 3.96668 8.98026 3.80001L4.28026 6.53334C4.30248 6.60001 4.31915 6.6749 4.33026 6.75801C4.34137 6.84157 4.34692 6.92223 4.34692 7.00001C4.34692 7.07779 4.34137 7.15823 4.33026 7.24134C4.31915 7.3249 4.30248 7.40001 4.28026 7.46668L8.98026 10.2C9.16915 10.0333 9.38026 9.90268 9.61359 9.80801C9.84692 9.71379 10.0914 9.66668 10.3469 9.66668C10.9025 9.66668 11.3747 9.86112 11.7636 10.25C12.1525 10.6389 12.3469 11.1111 12.3469 11.6667C12.3469 12.2222 12.1525 12.6945 11.7636 13.0833C11.3747 13.4722 10.9025 13.6667 10.3469 13.6667Z" fill="#9098B1"/>
</svg>
