<svg width="14" height="31" viewBox="0 0 14 31" fill="none" xmlns="http://www.w3.org/2000/svg">
<path d="M13.051 26.5512H11.7829V24.745C11.7829 24.6251 11.6827 24.5281 11.559 24.5281H10.6778V10.6962C10.6778 10.5764 10.5776 10.4793 10.4538 10.4793H9.84881V8.78029C9.84881 8.6605 9.74858 8.56341 9.62486 8.56341H8.52237V6.86432C8.52237 6.74453 8.42214 6.64743 8.29842 6.64743H8.04611C7.85228 6.24749 7.22381 4.7386 7.22381 2.00441V0.216948C7.22381 0.0970941 7.12358 0 6.99986 0C6.87614 0 6.77597 0.0971546 6.77597 0.216948V2.00441C6.77597 4.7386 6.14731 6.24749 5.95367 6.64743H5.70123C5.57757 6.64743 5.47728 6.74453 5.47728 6.86432V8.56334H4.37486C4.25114 8.56334 4.15091 8.66044 4.15091 8.78029V10.4793H3.54587C3.42215 10.4793 3.32192 10.5764 3.32192 10.6962V24.5281H2.44076C2.3171 24.5281 2.21687 24.6251 2.21687 24.745V26.5511H0.9488C0.825142 26.5511 0.724854 26.6482 0.724854 26.768V30.7831C0.724854 30.9028 0.825142 31 0.9488 31H13.051C13.1747 31 13.2749 30.9029 13.2749 30.7831V26.768C13.275 26.6483 13.1748 26.5512 13.051 26.5512ZM6.99998 4.70379C7.17094 5.65549 7.40214 6.2961 7.55466 6.64743H6.44512C6.59789 6.29604 6.82902 5.65543 6.99998 4.70379ZM5.92518 7.08127H6.09126C6.09126 7.08127 6.09139 7.08127 6.09164 7.08127C6.09164 7.08127 6.09176 7.08127 6.09189 7.08127H8.07454V8.56341H5.92518V7.08127ZM4.59893 8.99718H5.70129H8.29849H9.40097V10.4793H4.59893V8.99718ZM3.77 10.9132H4.37505H9.62492H10.2301V24.5281H3.76988V10.9132H3.77ZM2.66477 24.9618H3.54606H10.4538H11.3351V26.5512H2.6647L2.66477 24.9618ZM12.827 30.5663H1.17275V26.985H2.44088H11.559H12.827V30.5663Z" fill="#9098B1"/>
<path d="M4.79529 11.5117C4.67164 11.5117 4.57141 11.6088 4.57141 11.7286V13.2712C4.57141 13.391 4.67164 13.4881 4.79529 13.4881C4.91895 13.4881 5.01918 13.391 5.01918 13.2712V11.7286C5.01918 11.6088 4.91889 11.5117 4.79529 11.5117Z" fill="#9098B1"/>
<path d="M5.89765 11.5117C5.77399 11.5117 5.67377 11.6088 5.67377 11.7286V13.2712C5.67377 13.391 5.77406 13.4881 5.89765 13.4881C6.02131 13.4881 6.12154 13.391 6.12154 13.2712V11.7286C6.12154 11.6088 6.02131 11.5117 5.89765 11.5117Z" fill="#9098B1"/>
<path d="M7.00001 11.5117C6.87629 11.5117 6.77606 11.6088 6.77606 11.7286V13.2712C6.77606 13.391 6.87629 13.4881 7.00001 13.4881C7.12367 13.4881 7.22395 13.391 7.22395 13.2712V11.7286C7.22389 11.6088 7.1236 11.5117 7.00001 11.5117Z" fill="#9098B1"/>
<path d="M8.10224 11.5117C7.97858 11.5117 7.8783 11.6088 7.8783 11.7286V13.2712C7.8783 13.391 7.97852 13.4881 8.10224 13.4881C8.22596 13.4881 8.32619 13.391 8.32619 13.2712V11.7286C8.32619 11.6088 8.22596 11.5117 8.10224 11.5117Z" fill="#9098B1"/>
<path d="M9.2046 11.5117C9.08094 11.5117 8.98077 11.6088 8.98077 11.7286V13.2712C8.98077 13.391 9.081 13.4881 9.2046 13.4881C9.32825 13.4881 9.42854 13.391 9.42854 13.2712V11.7286C9.42854 11.6088 9.32832 11.5117 9.2046 11.5117Z" fill="#9098B1"/>
<path d="M4.79529 14.163C4.67164 14.163 4.57141 14.2601 4.57141 14.38V15.9226C4.57141 16.0424 4.67164 16.1395 4.79529 16.1395C4.91895 16.1395 5.01918 16.0423 5.01918 15.9226V14.38C5.01918 14.2601 4.91889 14.163 4.79529 14.163Z" fill="#9098B1"/>
<path d="M5.89765 14.163C5.77399 14.163 5.67377 14.2601 5.67377 14.38V15.9226C5.67377 16.0424 5.77406 16.1395 5.89765 16.1395C6.02131 16.1395 6.12154 16.0423 6.12154 15.9226V14.38C6.12154 14.2601 6.02131 14.163 5.89765 14.163Z" fill="#9098B1"/>
<path d="M7.00001 14.163C6.87629 14.163 6.77606 14.2601 6.77606 14.38V15.9226C6.77606 16.0424 6.87629 16.1395 7.00001 16.1395C7.12367 16.1395 7.22395 16.0423 7.22395 15.9226V14.38C7.22389 14.2601 7.1236 14.163 7.00001 14.163Z" fill="#9098B1"/>
<path d="M8.10224 14.163C7.97858 14.163 7.8783 14.2601 7.8783 14.38V15.9226C7.8783 16.0424 7.97852 16.1395 8.10224 16.1395C8.22596 16.1395 8.32619 16.0423 8.32619 15.9226V14.38C8.32619 14.2601 8.22596 14.163 8.10224 14.163Z" fill="#9098B1"/>
<path d="M9.2046 14.163C9.08094 14.163 8.98077 14.2601 8.98077 14.38V15.9226C8.98077 16.0424 9.081 16.1395 9.2046 16.1395C9.32825 16.1395 9.42854 16.0423 9.42854 15.9226V14.38C9.42854 14.2601 9.32832 14.163 9.2046 14.163Z" fill="#9098B1"/>
<path d="M4.79529 16.8145C4.67164 16.8145 4.57141 16.9116 4.57141 17.0313V18.574C4.57141 18.6938 4.67164 18.791 4.79529 18.791C4.91895 18.791 5.01918 18.6939 5.01918 18.574V17.0313C5.01918 16.9116 4.91889 16.8145 4.79529 16.8145Z" fill="#9098B1"/>
<path d="M5.89765 16.8145C5.77399 16.8145 5.67377 16.9116 5.67377 17.0313V18.574C5.67377 18.6938 5.77406 18.791 5.89765 18.791C6.02131 18.791 6.12154 18.6939 6.12154 18.574V17.0313C6.12154 16.9116 6.02131 16.8145 5.89765 16.8145Z" fill="#9098B1"/>
<path d="M7.00001 16.8145C6.87629 16.8145 6.77606 16.9116 6.77606 17.0313V18.574C6.77606 18.6938 6.87629 18.791 7.00001 18.791C7.12367 18.791 7.22395 18.6939 7.22395 18.574V17.0313C7.22389 16.9116 7.1236 16.8145 7.00001 16.8145Z" fill="#9098B1"/>
<path d="M8.10224 16.8145C7.97858 16.8145 7.8783 16.9116 7.8783 17.0313V18.574C7.8783 18.6938 7.97852 18.791 8.10224 18.791C8.22596 18.791 8.32619 18.6939 8.32619 18.574V17.0313C8.32619 16.9116 8.22596 16.8145 8.10224 16.8145Z" fill="#9098B1"/>
<path d="M9.2046 16.8145C9.08094 16.8145 8.98077 16.9116 8.98077 17.0313V18.574C8.98077 18.6938 9.081 18.791 9.2046 18.791C9.32825 18.791 9.42854 18.6939 9.42854 18.574V17.0313C9.42854 16.9116 9.32832 16.8145 9.2046 16.8145Z" fill="#9098B1"/>
<path d="M4.79529 19.4658C4.67164 19.4658 4.57141 19.5628 4.57141 19.6826V21.2253C4.57141 21.3451 4.67164 21.4422 4.79529 21.4422C4.91895 21.4422 5.01918 21.3451 5.01918 21.2253V19.6826C5.01918 19.5628 4.91889 19.4658 4.79529 19.4658Z" fill="#9098B1"/>
<path d="M5.89765 19.4658C5.77399 19.4658 5.67377 19.5628 5.67377 19.6826V21.2253C5.67377 21.3451 5.77406 21.4422 5.89765 21.4422C6.02131 21.4422 6.12154 21.3451 6.12154 21.2253V19.6826C6.12154 19.5628 6.02131 19.4658 5.89765 19.4658Z" fill="#9098B1"/>
<path d="M7.00001 19.4658C6.87629 19.4658 6.77606 19.5628 6.77606 19.6826V21.2253C6.77606 21.3451 6.87629 21.4422 7.00001 21.4422C7.12367 21.4422 7.22395 21.3451 7.22395 21.2253V19.6826C7.22389 19.5628 7.1236 19.4658 7.00001 19.4658Z" fill="#9098B1"/>
<path d="M8.10224 19.4658C7.97858 19.4658 7.8783 19.5628 7.8783 19.6826V21.2253C7.8783 21.3451 7.97852 21.4422 8.10224 21.4422C8.22596 21.4422 8.32619 21.3451 8.32619 21.2253V19.6826C8.32619 19.5628 8.22596 19.4658 8.10224 19.4658Z" fill="#9098B1"/>
<path d="M9.2046 19.4658C9.08094 19.4658 8.98077 19.5628 8.98077 19.6826V21.2253C8.98077 21.3451 9.081 21.4422 9.2046 21.4422C9.32825 21.4422 9.42854 21.3451 9.42854 21.2253V19.6826C9.42854 19.5628 9.32832 19.4658 9.2046 19.4658Z" fill="#9098B1"/>
<path d="M4.79529 22.117C4.67164 22.117 4.57141 22.2141 4.57141 22.3339V23.8766C4.57141 23.9964 4.67164 24.0935 4.79529 24.0935C4.91895 24.0935 5.01918 23.9964 5.01918 23.8766V22.3339C5.01918 22.2141 4.91889 22.117 4.79529 22.117Z" fill="#9098B1"/>
<path d="M5.89765 22.117C5.77399 22.117 5.67377 22.2141 5.67377 22.3339V23.8766C5.67377 23.9964 5.77406 24.0935 5.89765 24.0935C6.02131 24.0935 6.12154 23.9964 6.12154 23.8766V22.3339C6.12154 22.2141 6.02131 22.117 5.89765 22.117Z" fill="#9098B1"/>
<path d="M7.00001 22.117C6.87629 22.117 6.77606 22.2141 6.77606 22.3339V23.8766C6.77606 23.9964 6.87629 24.0935 7.00001 24.0935C7.12367 24.0935 7.22395 23.9964 7.22395 23.8766V22.3339C7.22389 22.2141 7.1236 22.117 7.00001 22.117Z" fill="#9098B1"/>
<path d="M8.10224 22.117C7.97858 22.117 7.8783 22.2141 7.8783 22.3339V23.8766C7.8783 23.9964 7.97852 24.0935 8.10224 24.0935C8.22596 24.0935 8.32619 23.9964 8.32619 23.8766V22.3339C8.32619 22.2141 8.22596 22.117 8.10224 22.117Z" fill="#9098B1"/>
<path d="M9.2046 22.117C9.08094 22.117 8.98077 22.2141 8.98077 22.3339V23.8766C8.98077 23.9964 9.081 24.0935 9.2046 24.0935C9.32825 24.0935 9.42854 23.9964 9.42854 23.8766V22.3339C9.42854 22.2141 9.32832 22.117 9.2046 22.117Z" fill="#9098B1"/>
</svg>
