<svg width="25" height="25" viewBox="0 0 25 25" fill="none" xmlns="http://www.w3.org/2000/svg">
<path d="M12.5 12.7604C11.7274 12.7604 10.9722 12.5313 10.3298 12.1021C9.68743 11.6729 9.18675 11.0628 8.89109 10.349C8.59545 9.63524 8.51808 8.84982 8.66881 8.09209C8.81953 7.33435 9.19156 6.63832 9.73786 6.09202C10.2842 5.54572 10.9802 5.17369 11.7379 5.02297C12.4956 4.87224 13.281 4.9496 13.9949 5.24525C14.7086 5.54091 15.3187 6.04158 15.7479 6.68396C16.1772 7.32635 16.4062 8.08157 16.4062 8.85416C16.4062 9.89016 15.9947 10.8837 15.2622 11.6163C14.5296 12.3488 13.536 12.7604 12.5 12.7604ZM12.5 6.51041C12.0365 6.51041 11.5833 6.64787 11.1979 6.9054C10.8125 7.16294 10.5121 7.52898 10.3347 7.95724C10.1573 8.38551 10.1109 8.85676 10.2013 9.3114C10.2917 9.76604 10.5149 10.1837 10.8427 10.5114C11.1705 10.8393 11.5881 11.0625 12.0427 11.1529C12.4974 11.2433 12.9686 11.1969 13.3969 11.0195C13.8252 10.8421 14.1912 10.5417 14.4487 10.1563C14.7062 9.77085 14.8437 9.31771 14.8437 8.85416C14.8437 8.23255 14.5968 7.63642 14.1573 7.19688C13.7177 6.75733 13.1216 6.51041 12.5 6.51041Z" fill="#9098B1"/>
<path d="M19.7917 20.0521C19.5853 20.0494 19.3881 19.9662 19.2422 19.8203C19.0963 19.6744 19.0131 19.4772 19.0104 19.2708C19.0104 17.2396 17.9063 15.8854 12.5 15.8854C7.09376 15.8854 5.98959 17.2396 5.98959 19.2708C5.98959 19.478 5.90728 19.6768 5.76077 19.8232C5.61426 19.9698 5.41554 20.0521 5.20834 20.0521C5.00115 20.0521 4.80243 19.9698 4.65592 19.8232C4.50941 19.6768 4.42709 19.478 4.42709 19.2708C4.42709 14.3229 10.0833 14.3229 12.5 14.3229C14.9167 14.3229 20.5729 14.3229 20.5729 19.2708C20.5702 19.4772 20.4871 19.6744 20.3412 19.8203C20.1952 19.9662 19.998 20.0494 19.7917 20.0521Z" fill="#9098B1"/>
</svg>
