<svg width="19" height="15" viewBox="0 0 19 15" fill="none" xmlns="http://www.w3.org/2000/svg">
<path d="M9.34792 10.5694L2.75582 7.42922L5.44977 6.14471L4.24556 5.57104L0.347412 7.42922L9.34792 11.7155L18.3471 7.42922L14.449 5.57104L13.2474 6.14471L15.94 7.42922L9.34792 10.5694Z" fill="#9098B1"/>
<path d="M9.34792 13.7139L2.75582 10.5737L5.44977 9.28918L4.24556 8.71552L0.347412 10.5737L9.34792 14.86L18.3471 10.5737L14.449 8.71552L13.2474 9.28918L15.94 10.5737L9.34792 13.7139Z" fill="#9098B1"/>
<path d="M9.34804 -0.000244141L0.347534 4.28604L9.34804 8.57107L18.3473 4.28479L9.34804 -0.000244141ZM9.34804 1.14584L15.9401 4.28604L9.34804 7.42624L2.75594 4.28604L9.34804 1.14584Z" fill="#9098B1"/>
</svg>
